<svg width="45" height="46" viewBox="0 0 45 46" fill="none" xmlns="http://www.w3.org/2000/svg">
<rect y="0.18396" width="45" height="45" rx="8" fill="#FF840A"/>
<path d="M27.4109 17.3102L29.9979 14.715L30.1703 13.6223C25.4561 9.32213 17.9623 9.80972 13.7126 14.6397C12.5322 15.9812 11.6564 17.6536 11.1895 19.3806L12.116 19.2497L17.2899 18.3938L17.6893 17.984C19.9908 15.4484 23.8822 15.1073 26.5395 17.2647L27.4109 17.3102Z" fill="white"/>
<path d="M33.6847 19.3042C33.09 17.1075 31.8693 15.1328 30.1718 13.6222L26.541 17.2645C28.0742 18.5212 28.9476 20.4144 28.9101 22.4001V23.0466C30.6947 23.0466 32.1416 24.498 32.1416 26.2882C32.1416 28.0786 30.6947 29.4935 28.9101 29.4935H22.4382L21.8027 30.1856V34.0737L22.4382 34.6837H28.9101C33.5522 34.72 37.3446 31.0109 37.3807 26.3542C37.4026 23.5317 36.0153 20.8855 33.6847 19.3042Z" fill="white"/>
<path d="M15.9745 34.684H22.4374V29.4937H15.9745C15.514 29.4936 15.0681 29.3943 14.6493 29.2024L13.7324 29.4846L11.1273 32.0798L10.9004 32.9631C12.3614 34.0697 14.1439 34.692 15.9745 34.684Z" fill="white"/>
<path d="M15.9743 17.8475C11.3322 17.8752 7.59162 21.6729 7.61929 26.3295C7.63475 28.9299 8.84542 31.3778 10.9002 32.963L14.6492 29.2023C13.0227 28.4652 12.2999 26.545 13.0347 24.9135C13.7695 23.282 15.6837 22.557 17.31 23.294C18.0267 23.6188 18.6006 24.1947 18.9244 24.9135L22.6733 21.1528C21.0782 19.061 18.5997 17.838 15.9743 17.8475Z" fill="white"/>
</svg>
