<svg width="252" height="179" viewBox="0 0 252 179" fill="none" xmlns="http://www.w3.org/2000/svg">
<rect x="9.18945" y="45.9334" width="233.42" height="87.3984" rx="7.6902" fill="#D9D9D9"/>
<rect x="28.6406" y="65.2049" width="81.4256" height="48.8554" rx="9.04729" fill="#C2C2C2"/>
<path d="M77.4967 95.0609L82.9251 89.6325L77.4967 84.2041M61.2116 84.2041L55.7832 89.6325L61.2116 95.0609M72.7469 78.7758L65.9614 100.489" stroke="url(#paint0_linear_709_328)" stroke-width="2.71419" stroke-linecap="round" stroke-linejoin="round"/>
<circle cx="131.821" cy="70.028" r="3.65903" fill="#FC7E59"/>
<path d="M144.653 66.9734V74.028H143.979C143.875 74.028 143.787 74.0118 143.716 73.9792C143.648 73.9435 143.581 73.8849 143.516 73.8036L139.832 69.1005C139.852 69.3152 139.862 69.5136 139.862 69.6957V74.028H138.705V66.9734H139.393C139.449 66.9734 139.496 66.9767 139.535 66.9832C139.577 66.9864 139.613 66.9962 139.642 67.0124C139.675 67.0255 139.706 67.0466 139.735 67.0759C139.764 67.1019 139.797 67.1377 139.832 67.1832L143.53 71.9058C143.521 71.7919 143.513 71.6797 143.506 71.5692C143.5 71.4586 143.496 71.3561 143.496 71.2618V66.9734H144.653ZM152.951 70.5007C152.951 71.0179 152.865 71.4976 152.693 71.9399C152.524 72.379 152.283 72.7596 151.971 73.0815C151.658 73.4035 151.283 73.6556 150.844 73.8377C150.405 74.0166 149.917 74.1061 149.38 74.1061C148.847 74.1061 148.36 74.0166 147.921 73.8377C147.482 73.6556 147.105 73.4035 146.789 73.0815C146.477 72.7596 146.235 72.379 146.063 71.9399C145.89 71.4976 145.804 71.0179 145.804 70.5007C145.804 69.9836 145.89 69.5055 146.063 69.0664C146.235 68.624 146.477 68.2419 146.789 67.9199C147.105 67.5979 147.482 67.3474 147.921 67.1686C148.36 66.9864 148.847 66.8954 149.38 66.8954C149.738 66.8954 150.074 66.9376 150.39 67.0222C150.705 67.1035 150.995 67.2206 151.258 67.3735C151.522 67.5231 151.758 67.7068 151.966 67.9248C152.177 68.1394 152.356 68.3801 152.502 68.6468C152.649 68.9135 152.759 69.203 152.834 69.5152C152.912 69.8275 152.951 70.156 152.951 70.5007ZM151.61 70.5007C151.61 70.1137 151.558 69.7673 151.454 69.4616C151.349 69.1526 151.201 68.8907 151.01 68.6761C150.818 68.4614 150.583 68.2972 150.307 68.1833C150.034 68.0695 149.725 68.0126 149.38 68.0126C149.035 68.0126 148.725 68.0695 148.448 68.1833C148.175 68.2972 147.941 68.4614 147.746 68.6761C147.554 68.8907 147.406 69.1526 147.302 69.4616C147.198 69.7673 147.146 70.1137 147.146 70.5007C147.146 70.8878 147.198 71.2358 147.302 71.5448C147.406 71.8505 147.554 72.1107 147.746 72.3253C147.941 72.5368 148.175 72.6994 148.448 72.8132C148.725 72.9271 149.035 72.984 149.38 72.984C149.725 72.984 150.034 72.9271 150.307 72.8132C150.583 72.6994 150.818 72.5368 151.01 72.3253C151.201 72.1107 151.349 71.8505 151.454 71.5448C151.558 71.2358 151.61 70.8878 151.61 70.5007ZM156.943 72.9693C157.197 72.9693 157.423 72.9271 157.621 72.8425C157.823 72.7579 157.992 72.6392 158.129 72.4863C158.265 72.3335 158.369 72.1481 158.441 71.9302C158.516 71.7123 158.553 71.4683 158.553 71.1984V66.9734H159.866V71.1984C159.866 71.6179 159.797 72.0066 159.661 72.3644C159.527 72.7189 159.334 73.0263 159.08 73.2865C158.83 73.5434 158.524 73.7451 158.163 73.8914C157.802 74.0345 157.395 74.1061 156.943 74.1061C156.488 74.1061 156.08 74.0345 155.719 73.8914C155.358 73.7451 155.05 73.5434 154.797 73.2865C154.546 73.0263 154.353 72.7189 154.216 72.3644C154.083 72.0066 154.016 71.6179 154.016 71.1984V66.9734H155.328V71.1935C155.328 71.4634 155.364 71.7074 155.436 71.9253C155.51 72.1432 155.616 72.3302 155.753 72.4863C155.893 72.6392 156.062 72.7579 156.26 72.8425C156.462 72.9271 156.69 72.9693 156.943 72.9693ZM167.39 66.9734L164.541 74.028H163.356L160.506 66.9734H161.56C161.674 66.9734 161.767 67.0011 161.838 67.0564C161.91 67.1116 161.964 67.1832 161.999 67.271L163.663 71.574C163.718 71.7139 163.77 71.8684 163.819 72.0375C163.871 72.2034 163.92 72.3774 163.965 72.5595C164.005 72.3774 164.047 72.2034 164.092 72.0375C164.138 71.8684 164.188 71.7139 164.244 71.574L165.897 67.271C165.923 67.1962 165.974 67.1279 166.049 67.0661C166.127 67.0043 166.221 66.9734 166.332 66.9734H167.39ZM169.438 68.0175V69.9738H171.906V70.9837H169.438V72.9791H172.57V74.028H168.121V66.9734H172.57V68.0175H169.438ZM177.46 71.3642L176.602 69.0176C176.559 68.9135 176.515 68.7899 176.47 68.6468C176.424 68.5037 176.379 68.3492 176.333 68.1833C176.291 68.3492 176.247 68.5053 176.202 68.6517C176.156 68.7948 176.112 68.92 176.07 69.0273L175.216 71.3642H177.46ZM179.778 74.028H178.763C178.649 74.028 178.556 74.0004 178.485 73.9451C178.413 73.8865 178.36 73.815 178.324 73.7304L177.797 72.2912H174.875L174.348 73.7304C174.322 73.8052 174.271 73.8735 174.196 73.9353C174.122 73.9971 174.029 74.028 173.918 74.028H172.894L175.67 66.9734H177.007L179.778 74.028ZM183.176 72.9693C183.429 72.9693 183.655 72.9271 183.854 72.8425C184.056 72.7579 184.225 72.6392 184.361 72.4863C184.498 72.3335 184.602 72.1481 184.673 71.9302C184.748 71.7123 184.786 71.4683 184.786 71.1984V66.9734H186.098V71.1984C186.098 71.6179 186.03 72.0066 185.893 72.3644C185.76 72.7189 185.566 73.0263 185.313 73.2865C185.062 73.5434 184.756 73.7451 184.395 73.8914C184.034 74.0345 183.628 74.1061 183.176 74.1061C182.72 74.1061 182.312 74.0345 181.951 73.8914C181.59 73.7451 181.283 73.5434 181.029 73.2865C180.779 73.0263 180.585 72.7189 180.449 72.3644C180.315 72.0066 180.249 71.6179 180.249 71.1984V66.9734H181.561V71.1935C181.561 71.4634 181.597 71.7074 181.668 71.9253C181.743 72.1432 181.849 72.3302 181.985 72.4863C182.125 72.6392 182.294 72.7579 182.493 72.8425C182.694 72.9271 182.922 72.9693 183.176 72.9693Z" fill="#FC7E59"/>
<path d="M140.931 87.7436C140.931 88.6803 140.775 89.5404 140.463 90.3239C140.151 91.1075 139.712 91.782 139.146 92.3476C138.581 92.9131 137.9 93.352 137.105 93.6643C136.31 93.9765 135.426 94.1326 134.454 94.1326H129.585V81.3545H134.454C135.426 81.3545 136.31 81.5136 137.105 81.8317C137.9 82.1439 138.581 82.5828 139.146 83.1484C139.712 83.708 140.151 84.3796 140.463 85.1632C140.775 85.9467 140.931 86.8068 140.931 87.7436ZM138.492 87.7436C138.492 87.0425 138.398 86.4151 138.21 85.8613C138.027 85.3016 137.759 84.8303 137.405 84.4474C137.058 84.0586 136.634 83.7611 136.133 83.5549C135.638 83.3487 135.078 83.2456 134.454 83.2456H131.971V92.2415H134.454C135.078 92.2415 135.638 92.1384 136.133 91.9322C136.634 91.726 137.058 91.4315 137.405 91.0486C137.759 90.6597 138.027 90.1884 138.21 89.6347C138.398 89.075 138.492 88.4446 138.492 87.7436ZM148.406 88.5566C148.406 88.2738 148.365 88.0087 148.282 87.7612C148.205 87.5079 148.088 87.287 147.929 87.0985C147.77 86.9099 147.566 86.7627 147.319 86.6566C147.077 86.5447 146.795 86.4887 146.47 86.4887C145.84 86.4887 145.342 86.6684 144.977 87.0278C144.618 87.3871 144.388 87.8967 144.288 88.5566H148.406ZM144.244 89.8732C144.279 90.3387 144.361 90.7422 144.491 91.0839C144.621 91.4197 144.791 91.6995 145.004 91.9234C145.216 92.1414 145.466 92.3063 145.755 92.4183C146.049 92.5243 146.373 92.5773 146.727 92.5773C147.08 92.5773 147.384 92.5361 147.637 92.4536C147.896 92.3711 148.12 92.2798 148.309 92.1797C148.503 92.0795 148.671 91.9882 148.812 91.9057C148.96 91.8233 149.101 91.782 149.236 91.782C149.419 91.782 149.555 91.8498 149.643 91.9853L150.27 92.7806C150.029 93.0634 149.758 93.302 149.457 93.4964C149.157 93.6849 148.842 93.8381 148.512 93.9559C148.188 94.0678 147.855 94.1474 147.513 94.1945C147.177 94.2416 146.85 94.2652 146.532 94.2652C145.902 94.2652 145.316 94.1621 144.774 93.9559C144.232 93.7438 143.761 93.4345 143.36 93.028C142.959 92.6156 142.644 92.109 142.414 91.5081C142.185 90.9013 142.07 90.2002 142.07 89.4049C142.07 88.7863 142.17 88.206 142.37 87.664C142.57 87.1161 142.856 86.6419 143.227 86.2413C143.604 85.8348 144.061 85.5137 144.597 85.2781C145.139 85.0424 145.749 84.9246 146.426 84.9246C146.998 84.9246 147.525 85.0159 148.008 85.1985C148.491 85.3812 148.907 85.6492 149.254 86.0027C149.602 86.3503 149.873 86.7803 150.067 87.2929C150.267 87.7995 150.368 88.3798 150.368 89.0337C150.368 89.3637 150.332 89.5875 150.262 89.7053C150.191 89.8173 150.055 89.8732 149.855 89.8732H144.244ZM154.065 86.6389C154.347 86.097 154.683 85.6728 155.072 85.3664C155.461 85.0542 155.92 84.8981 156.451 84.8981C156.869 84.8981 157.205 84.9894 157.458 85.172L157.317 86.8068C157.287 86.9129 157.243 86.9895 157.184 87.0366C157.131 87.0778 157.057 87.0985 156.963 87.0985C156.875 87.0985 156.742 87.0837 156.565 87.0543C156.395 87.0248 156.227 87.0101 156.062 87.0101C155.82 87.0101 155.605 87.0454 155.417 87.1161C155.228 87.1868 155.057 87.2899 154.904 87.4254C154.757 87.555 154.624 87.7141 154.506 87.9026C154.394 88.0911 154.288 88.3062 154.188 88.5477V94.1326H152.006V85.066H153.287C153.511 85.066 153.667 85.1072 153.755 85.1897C153.844 85.2663 153.903 85.4077 153.932 85.6139L154.065 86.6389ZM160.64 86.1794C160.823 85.9968 161.014 85.8289 161.214 85.6757C161.421 85.5167 161.636 85.3841 161.86 85.2781C162.089 85.1661 162.334 85.0807 162.593 85.0218C162.852 84.957 163.135 84.9246 163.441 84.9246C163.936 84.9246 164.375 85.01 164.758 85.1809C165.141 85.3458 165.459 85.5815 165.712 85.8878C165.972 86.1883 166.166 86.5506 166.296 86.9747C166.431 87.393 166.499 87.8555 166.499 88.3621V94.1326H164.316V88.3621C164.316 87.8084 164.19 87.3812 163.936 87.0808C163.683 86.7744 163.297 86.6213 162.779 86.6213C162.402 86.6213 162.048 86.7067 161.718 86.8775C161.388 87.0484 161.076 87.2811 160.781 87.5757V94.1326H158.599V85.066H159.933C160.216 85.066 160.401 85.1985 160.49 85.4636L160.64 86.1794ZM170.837 85.066V94.1326H168.645V85.066H170.837ZM171.137 82.4238C171.137 82.6123 171.099 82.789 171.023 82.954C170.946 83.1189 170.843 83.2633 170.713 83.387C170.59 83.5107 170.442 83.6108 170.271 83.6874C170.101 83.7581 169.918 83.7935 169.724 83.7935C169.535 83.7935 169.355 83.7581 169.184 83.6874C169.02 83.6108 168.875 83.5107 168.751 83.387C168.628 83.2633 168.528 83.1189 168.451 82.954C168.38 82.789 168.345 82.6123 168.345 82.4238C168.345 82.2293 168.38 82.0467 168.451 81.8759C168.528 81.705 168.628 81.5577 168.751 81.434C168.875 81.3103 169.02 81.2131 169.184 81.1424C169.355 81.0658 169.535 81.0275 169.724 81.0275C169.918 81.0275 170.101 81.0658 170.271 81.1424C170.442 81.2131 170.59 81.3103 170.713 81.434C170.843 81.5577 170.946 81.705 171.023 81.8759C171.099 82.0467 171.137 82.2293 171.137 82.4238ZM178.903 88.5566C178.903 88.2738 178.862 88.0087 178.78 87.7612C178.703 87.5079 178.585 87.287 178.426 87.0985C178.267 86.9099 178.064 86.7627 177.816 86.6566C177.575 86.5447 177.292 86.4887 176.968 86.4887C176.338 86.4887 175.84 86.6684 175.475 87.0278C175.115 87.3871 174.886 87.8967 174.785 88.5566H178.903ZM174.741 89.8732C174.777 90.3387 174.859 90.7422 174.989 91.0839C175.118 91.4197 175.289 91.6995 175.501 91.9234C175.713 92.1414 175.964 92.3063 176.252 92.4183C176.547 92.5243 176.871 92.5773 177.224 92.5773C177.578 92.5773 177.881 92.5361 178.135 92.4536C178.394 92.3711 178.618 92.2798 178.806 92.1797C179.001 92.0795 179.168 91.9882 179.31 91.9057C179.457 91.8233 179.599 91.782 179.734 91.782C179.917 91.782 180.052 91.8498 180.141 91.9853L180.768 92.7806C180.526 93.0634 180.255 93.302 179.955 93.4964C179.655 93.6849 179.339 93.8381 179.009 93.9559C178.685 94.0678 178.353 94.1474 178.011 94.1945C177.675 94.2416 177.348 94.2652 177.03 94.2652C176.4 94.2652 175.813 94.1621 175.271 93.9559C174.729 93.7438 174.258 93.4345 173.858 93.028C173.457 92.6156 173.142 92.109 172.912 91.5081C172.682 90.9013 172.567 90.2002 172.567 89.4049C172.567 88.7863 172.667 88.206 172.868 87.664C173.068 87.1161 173.354 86.6419 173.725 86.2413C174.102 85.8348 174.559 85.5137 175.095 85.2781C175.637 85.0424 176.246 84.9246 176.924 84.9246C177.495 84.9246 178.023 85.0159 178.506 85.1985C178.989 85.3812 179.404 85.6492 179.752 86.0027C180.099 86.3503 180.37 86.7803 180.565 87.2929C180.765 87.7995 180.865 88.3798 180.865 89.0337C180.865 89.3637 180.83 89.5875 180.759 89.7053C180.688 89.8173 180.553 89.8732 180.353 89.8732H174.741ZM184.562 86.6389C184.845 86.097 185.181 85.6728 185.57 85.3664C185.958 85.0542 186.418 84.8981 186.948 84.8981C187.366 84.8981 187.702 84.9894 187.956 85.172L187.814 86.8068C187.785 86.9129 187.741 86.9895 187.682 87.0366C187.629 87.0778 187.555 87.0985 187.461 87.0985C187.372 87.0985 187.24 87.0837 187.063 87.0543C186.892 87.0248 186.724 87.0101 186.559 87.0101C186.318 87.0101 186.103 87.0454 185.914 87.1161C185.726 87.1868 185.555 87.2899 185.402 87.4254C185.254 87.555 185.122 87.7141 185.004 87.9026C184.892 88.0911 184.786 88.3062 184.686 88.5477V94.1326H182.503V85.066H183.785C184.008 85.066 184.165 85.1072 184.253 85.1897C184.341 85.2663 184.4 85.4077 184.43 85.6139L184.562 86.6389ZM198.546 86.8334C198.487 86.9276 198.425 86.9954 198.361 87.0366C198.296 87.072 198.213 87.0896 198.113 87.0896C198.007 87.0896 197.892 87.0602 197.768 87.0013C197.651 86.9423 197.512 86.8775 197.353 86.8068C197.194 86.7303 197.011 86.6625 196.805 86.6036C196.605 86.5447 196.366 86.5152 196.089 86.5152C195.659 86.5152 195.321 86.6065 195.073 86.7892C194.832 86.9718 194.711 87.2104 194.711 87.505C194.711 87.6994 194.773 87.8643 194.897 87.9998C195.026 88.1294 195.194 88.2443 195.4 88.3445C195.612 88.4446 195.851 88.5359 196.116 88.6184C196.381 88.695 196.649 88.7804 196.92 88.8747C197.197 88.9689 197.468 89.0779 197.733 89.2016C197.998 89.3195 198.234 89.4726 198.44 89.6612C198.652 89.8438 198.82 90.0647 198.944 90.3239C199.073 90.5831 199.138 90.8954 199.138 91.2606C199.138 91.6966 199.059 92.1001 198.9 92.4713C198.746 92.8366 198.517 93.1547 198.21 93.4257C197.904 93.6908 197.524 93.8999 197.07 94.0531C196.623 94.2004 196.104 94.274 195.515 94.274C195.203 94.274 194.897 94.2446 194.596 94.1857C194.301 94.1326 194.016 94.056 193.739 93.9559C193.468 93.8557 193.215 93.7379 192.979 93.6024C192.749 93.4669 192.546 93.3196 192.369 93.1606L192.873 92.3299C192.938 92.2298 193.014 92.1532 193.103 92.1001C193.191 92.0471 193.303 92.0206 193.438 92.0206C193.574 92.0206 193.701 92.0589 193.818 92.1355C193.942 92.2121 194.084 92.2946 194.243 92.3829C194.402 92.4713 194.587 92.5538 194.799 92.6304C195.017 92.7069 195.291 92.7452 195.621 92.7452C195.88 92.7452 196.101 92.7158 196.284 92.6569C196.472 92.5921 196.626 92.5096 196.743 92.4094C196.867 92.3093 196.955 92.1944 197.009 92.0648C197.067 91.9293 197.097 91.7909 197.097 91.6495C197.097 91.4374 197.032 91.2636 196.902 91.1281C196.779 90.9926 196.611 90.8748 196.399 90.7746C196.193 90.6745 195.954 90.5861 195.683 90.5095C195.418 90.427 195.144 90.3387 194.861 90.2444C194.584 90.1501 194.31 90.0411 194.039 89.9174C193.774 89.7878 193.536 89.6258 193.324 89.4314C193.117 89.237 192.949 88.9984 192.82 88.7156C192.696 88.4328 192.634 88.0911 192.634 87.6905C192.634 87.3194 192.708 86.9659 192.855 86.6301C193.002 86.2943 193.217 86.0027 193.5 85.7553C193.789 85.5019 194.145 85.3016 194.57 85.1543C195 85.0012 195.494 84.9246 196.054 84.9246C196.679 84.9246 197.247 85.0277 197.76 85.2339C198.272 85.4401 198.699 85.7111 199.041 86.0469L198.546 86.8334ZM203.043 85.066V94.1326H200.852V85.066H203.043ZM203.344 82.4238C203.344 82.6123 203.305 82.789 203.229 82.954C203.152 83.1189 203.049 83.2633 202.92 83.387C202.796 83.5107 202.649 83.6108 202.478 83.6874C202.307 83.7581 202.124 83.7935 201.93 83.7935C201.741 83.7935 201.562 83.7581 201.391 83.6874C201.226 83.6108 201.081 83.5107 200.958 83.387C200.834 83.2633 200.734 83.1189 200.657 82.954C200.587 82.789 200.551 82.6123 200.551 82.4238C200.551 82.2293 200.587 82.0467 200.657 81.8759C200.734 81.705 200.834 81.5577 200.958 81.434C201.081 81.3103 201.226 81.2131 201.391 81.1424C201.562 81.0658 201.741 81.0275 201.93 81.0275C202.124 81.0275 202.307 81.0658 202.478 81.1424C202.649 81.2131 202.796 81.3103 202.92 81.434C203.049 81.5577 203.152 81.705 203.229 81.8759C203.305 82.0467 203.344 82.2293 203.344 82.4238ZM208.291 94.274C207.501 94.274 206.895 94.0531 206.47 93.6113C206.052 93.1635 205.843 92.5479 205.843 91.7643V86.7008H204.915C204.797 86.7008 204.697 86.6625 204.615 86.5859C204.532 86.5093 204.491 86.3945 204.491 86.2413V85.3753L205.949 85.1367L206.408 82.6623C206.438 82.5445 206.494 82.4532 206.576 82.3884C206.659 82.3236 206.765 82.2912 206.895 82.2912H208.026V85.1455H210.447V86.7008H208.026V91.6141C208.026 91.8969 208.093 92.1178 208.229 92.2769C208.37 92.4359 208.562 92.5155 208.803 92.5155C208.939 92.5155 209.051 92.5008 209.139 92.4713C209.233 92.4359 209.313 92.4006 209.378 92.3653C209.448 92.3299 209.51 92.2975 209.563 92.268C209.616 92.2327 209.669 92.215 209.722 92.215C209.787 92.215 209.84 92.2327 209.881 92.268C209.923 92.2975 209.967 92.3446 210.014 92.4094L210.668 93.4699C210.35 93.735 209.984 93.9353 209.572 94.0708C209.16 94.2063 208.733 94.274 208.291 94.274ZM217.617 88.5566C217.617 88.2738 217.575 88.0087 217.493 87.7612C217.416 87.5079 217.298 87.287 217.139 87.0985C216.98 86.9099 216.777 86.7627 216.53 86.6566C216.288 86.5447 216.005 86.4887 215.681 86.4887C215.051 86.4887 214.553 86.6684 214.188 87.0278C213.828 87.3871 213.599 87.8967 213.499 88.5566H217.617ZM213.454 89.8732C213.49 90.3387 213.572 90.7422 213.702 91.0839C213.831 91.4197 214.002 91.6995 214.214 91.9234C214.426 92.1414 214.677 92.3063 214.965 92.4183C215.26 92.5243 215.584 92.5773 215.938 92.5773C216.291 92.5773 216.594 92.5361 216.848 92.4536C217.107 92.3711 217.331 92.2798 217.519 92.1797C217.714 92.0795 217.882 91.9882 218.023 91.9057C218.17 91.8233 218.312 91.782 218.447 91.782C218.63 91.782 218.765 91.8498 218.854 91.9853L219.481 92.7806C219.24 93.0634 218.969 93.302 218.668 93.4964C218.368 93.6849 218.053 93.8381 217.723 93.9559C217.399 94.0678 217.066 94.1474 216.724 94.1945C216.388 94.2416 216.061 94.2652 215.743 94.2652C215.113 94.2652 214.527 94.1621 213.985 93.9559C213.443 93.7438 212.971 93.4345 212.571 93.028C212.17 92.6156 211.855 92.109 211.625 91.5081C211.395 90.9013 211.281 90.2002 211.281 89.4049C211.281 88.7863 211.381 88.206 211.581 87.664C211.781 87.1161 212.067 86.6419 212.438 86.2413C212.815 85.8348 213.272 85.5137 213.808 85.2781C214.35 85.0424 214.96 84.9246 215.637 84.9246C216.209 84.9246 216.736 85.0159 217.219 85.1985C217.702 85.3812 218.117 85.6492 218.465 86.0027C218.812 86.3503 219.083 86.7803 219.278 87.2929C219.478 87.7995 219.578 88.3798 219.578 89.0337C219.578 89.3637 219.543 89.5875 219.472 89.7053C219.402 89.8173 219.266 89.8732 219.066 89.8732H213.454Z" fill="black"/>
<path d="M137.129 102.72V112.237H135.718V107.949H130.754V112.237H129.335V102.72H130.754V106.922H135.718V102.72H137.129ZM140.467 105.504V112.237H139.175V105.504H140.467ZM140.712 103.422C140.712 103.542 140.688 103.657 140.64 103.767C140.591 103.873 140.525 103.968 140.441 104.052C140.361 104.132 140.266 104.196 140.156 104.244C140.045 104.288 139.93 104.311 139.811 104.311C139.692 104.311 139.579 104.288 139.473 104.244C139.367 104.196 139.272 104.132 139.188 104.052C139.109 103.968 139.044 103.873 138.996 103.767C138.952 103.657 138.93 103.542 138.93 103.422C138.93 103.299 138.952 103.184 138.996 103.078C139.044 102.967 139.109 102.872 139.188 102.793C139.272 102.709 139.367 102.645 139.473 102.601C139.579 102.552 139.692 102.528 139.811 102.528C139.93 102.528 140.045 102.552 140.156 102.601C140.266 102.645 140.361 102.709 140.441 102.793C140.525 102.872 140.591 102.967 140.64 103.078C140.688 103.184 140.712 103.299 140.712 103.422ZM146.799 108.121C146.799 107.865 146.761 107.629 146.686 107.412C146.615 107.196 146.509 107.008 146.368 106.849C146.227 106.69 146.054 106.566 145.851 106.478C145.648 106.389 145.414 106.345 145.149 106.345C144.605 106.345 144.176 106.502 143.863 106.816C143.553 107.13 143.357 107.565 143.273 108.121H146.799ZM147.866 111.276C147.707 111.462 147.523 111.623 147.316 111.76C147.108 111.893 146.887 112.001 146.653 112.085C146.419 112.169 146.176 112.231 145.924 112.27C145.677 112.31 145.431 112.33 145.188 112.33C144.724 112.33 144.294 112.253 143.896 112.098C143.503 111.939 143.16 111.709 142.869 111.409C142.581 111.104 142.356 110.728 142.193 110.282C142.034 109.831 141.954 109.314 141.954 108.731C141.954 108.263 142.027 107.828 142.173 107.426C142.318 107.019 142.526 106.666 142.796 106.365C143.07 106.065 143.403 105.828 143.796 105.656C144.19 105.484 144.632 105.397 145.122 105.397C145.533 105.397 145.911 105.466 146.255 105.603C146.604 105.736 146.905 105.93 147.157 106.186C147.409 106.442 147.605 106.758 147.747 107.134C147.892 107.51 147.965 107.938 147.965 108.42C147.965 108.619 147.943 108.753 147.899 108.824C147.855 108.89 147.773 108.923 147.654 108.923H143.24C143.253 109.325 143.31 109.677 143.412 109.977C143.514 110.273 143.653 110.521 143.83 110.72C144.011 110.918 144.225 111.066 144.472 111.164C144.72 111.261 144.996 111.309 145.301 111.309C145.588 111.309 145.836 111.276 146.043 111.21C146.255 111.144 146.436 111.073 146.587 110.998C146.741 110.918 146.869 110.845 146.971 110.779C147.077 110.713 147.17 110.68 147.249 110.68C147.356 110.68 147.437 110.72 147.495 110.799L147.866 111.276ZM150.574 106.796C150.79 106.354 151.051 106.007 151.356 105.755C151.661 105.504 152.028 105.378 152.456 105.378C152.602 105.378 152.739 105.395 152.867 105.431C153 105.462 153.114 105.51 153.212 105.576L153.126 106.551C153.095 106.67 153.022 106.73 152.907 106.73C152.845 106.73 152.752 106.719 152.628 106.697C152.505 106.67 152.372 106.657 152.231 106.657C152.023 106.657 151.84 106.688 151.681 106.75C151.522 106.807 151.378 106.895 151.25 107.015C151.126 107.13 151.016 107.273 150.919 107.445C150.821 107.613 150.731 107.806 150.647 108.022V112.237H149.354V105.504H150.097C150.238 105.504 150.333 105.53 150.382 105.583C150.435 105.632 150.472 105.72 150.494 105.848L150.574 106.796ZM154.261 112.237C154.142 112.237 154.031 112.215 153.93 112.171C153.833 112.127 153.746 112.067 153.671 111.992C153.601 111.912 153.545 111.82 153.506 111.714C153.466 111.608 153.446 111.493 153.446 111.369C153.446 111.263 153.466 111.164 153.506 111.071C153.545 110.974 153.601 110.89 153.671 110.819C153.746 110.748 153.835 110.693 153.936 110.653C154.038 110.609 154.151 110.587 154.274 110.587C154.416 110.587 154.54 110.613 154.646 110.666C154.756 110.715 154.847 110.786 154.917 110.879C154.992 110.967 155.048 111.071 155.083 111.19C155.118 111.309 155.136 111.438 155.136 111.574C155.136 111.773 155.107 111.983 155.05 112.204C154.992 112.425 154.908 112.644 154.798 112.86C154.688 113.077 154.551 113.287 154.387 113.49C154.224 113.693 154.038 113.881 153.83 114.053L153.612 113.848C153.545 113.786 153.512 113.717 153.512 113.642C153.512 113.611 153.521 113.578 153.539 113.543C153.561 113.512 153.587 113.481 153.618 113.45C153.662 113.402 153.72 113.337 153.791 113.258C153.861 113.178 153.93 113.086 153.996 112.98C154.067 112.878 154.131 112.763 154.188 112.635C154.25 112.511 154.294 112.379 154.321 112.237H154.261ZM165.925 111.25V112.237H160.782V111.25H162.797V105.013C162.797 104.814 162.803 104.609 162.817 104.397L161.2 105.769C161.138 105.817 161.076 105.848 161.014 105.861C160.952 105.875 160.893 105.877 160.835 105.868C160.782 105.859 160.733 105.842 160.689 105.815C160.649 105.784 160.616 105.753 160.59 105.722L160.186 105.159L163.035 102.7H164.089V111.25H165.925ZM173.614 111.25V112.237H168.471V111.25H170.486V105.013C170.486 104.814 170.493 104.609 170.506 104.397L168.889 105.769C168.827 105.817 168.765 105.848 168.703 105.861C168.641 105.875 168.582 105.877 168.524 105.868C168.471 105.859 168.423 105.842 168.378 105.815C168.339 105.784 168.305 105.753 168.279 105.722L167.875 105.159L170.725 102.7H171.778V111.25H173.614ZM175.332 111.462C175.332 111.343 175.354 111.23 175.398 111.124C175.442 111.018 175.502 110.925 175.577 110.845C175.657 110.766 175.749 110.704 175.855 110.66C175.961 110.611 176.076 110.587 176.2 110.587C176.319 110.587 176.432 110.611 176.538 110.66C176.644 110.704 176.737 110.766 176.816 110.845C176.896 110.925 176.958 111.018 177.002 111.124C177.051 111.23 177.075 111.343 177.075 111.462C177.075 111.586 177.051 111.7 177.002 111.806C176.958 111.912 176.896 112.005 176.816 112.085C176.737 112.164 176.644 112.226 176.538 112.27C176.432 112.315 176.319 112.337 176.2 112.337C176.076 112.337 175.961 112.315 175.855 112.27C175.749 112.226 175.657 112.164 175.577 112.085C175.502 112.005 175.442 111.912 175.398 111.806C175.354 111.7 175.332 111.586 175.332 111.462ZM175.332 106.557C175.332 106.438 175.354 106.325 175.398 106.219C175.442 106.113 175.502 106.02 175.577 105.941C175.657 105.861 175.749 105.8 175.855 105.755C175.961 105.707 176.076 105.682 176.2 105.682C176.319 105.682 176.432 105.707 176.538 105.755C176.644 105.8 176.737 105.861 176.816 105.941C176.896 106.02 176.958 106.113 177.002 106.219C177.051 106.325 177.075 106.438 177.075 106.557C177.075 106.681 177.051 106.796 177.002 106.902C176.958 107.008 176.896 107.101 176.816 107.18C176.737 107.26 176.644 107.322 176.538 107.366C176.432 107.41 176.319 107.432 176.2 107.432C176.076 107.432 175.961 107.41 175.855 107.366C175.749 107.322 175.657 107.26 175.577 107.18C175.502 107.101 175.442 107.008 175.398 106.902C175.354 106.796 175.332 106.681 175.332 106.557ZM180.342 106.272C180.828 106.171 181.267 106.12 181.661 106.12C182.156 106.12 182.593 106.195 182.973 106.345C183.353 106.491 183.671 106.694 183.927 106.955C184.188 107.211 184.382 107.516 184.511 107.87C184.643 108.219 184.709 108.599 184.709 109.01C184.709 109.513 184.621 109.971 184.444 110.381C184.268 110.792 184.025 111.144 183.715 111.435C183.406 111.727 183.039 111.952 182.615 112.111C182.195 112.266 181.742 112.343 181.256 112.343C180.969 112.343 180.695 112.315 180.435 112.257C180.178 112.2 179.937 112.125 179.712 112.032C179.487 111.935 179.277 111.824 179.082 111.7C178.892 111.577 178.722 111.446 178.572 111.309L178.97 110.753C179.054 110.629 179.166 110.567 179.308 110.567C179.401 110.567 179.502 110.602 179.613 110.673C179.728 110.739 179.862 110.815 180.017 110.898C180.172 110.982 180.355 111.06 180.567 111.13C180.779 111.197 181.031 111.23 181.323 111.23C181.645 111.23 181.935 111.179 182.191 111.077C182.452 110.971 182.67 110.823 182.847 110.633C183.028 110.443 183.165 110.216 183.258 109.951C183.355 109.686 183.404 109.392 183.404 109.069C183.404 108.782 183.362 108.524 183.278 108.294C183.194 108.064 183.068 107.867 182.9 107.704C182.732 107.54 182.522 107.417 182.27 107.333C182.019 107.244 181.725 107.2 181.389 107.2C180.921 107.2 180.421 107.284 179.891 107.452L179.076 107.213L179.851 102.72H184.411V103.283C184.411 103.469 184.351 103.621 184.232 103.741C184.117 103.855 183.923 103.913 183.649 103.913H180.753L180.342 106.272ZM192.862 107.479C192.862 108.309 192.772 109.029 192.591 109.639C192.414 110.249 192.169 110.755 191.855 111.157C191.546 111.555 191.179 111.851 190.755 112.045C190.335 112.239 189.882 112.337 189.396 112.337C188.91 112.337 188.455 112.239 188.031 112.045C187.611 111.851 187.247 111.555 186.937 111.157C186.628 110.755 186.385 110.249 186.208 109.639C186.032 109.029 185.943 108.309 185.943 107.479C185.943 106.648 186.032 105.928 186.208 105.318C186.385 104.704 186.628 104.198 186.937 103.8C187.247 103.398 187.611 103.1 188.031 102.905C188.455 102.711 188.91 102.614 189.396 102.614C189.882 102.614 190.335 102.711 190.755 102.905C191.179 103.1 191.546 103.398 191.855 103.8C192.169 104.198 192.414 104.704 192.591 105.318C192.772 105.928 192.862 106.648 192.862 107.479ZM191.524 107.479C191.524 106.763 191.464 106.164 191.345 105.682C191.23 105.201 191.073 104.814 190.874 104.523C190.68 104.227 190.454 104.017 190.198 103.893C189.942 103.769 189.675 103.707 189.396 103.707C189.118 103.707 188.85 103.769 188.594 103.893C188.338 104.017 188.11 104.227 187.912 104.523C187.717 104.814 187.563 105.201 187.448 105.682C187.333 106.164 187.275 106.763 187.275 107.479C187.275 108.194 187.333 108.793 187.448 109.275C187.563 109.756 187.717 110.143 187.912 110.435C188.11 110.726 188.338 110.934 188.594 111.058C188.85 111.181 189.118 111.243 189.396 111.243C189.675 111.243 189.942 111.181 190.198 111.058C190.454 110.934 190.68 110.726 190.874 110.435C191.073 110.143 191.23 109.756 191.345 109.275C191.464 108.793 191.524 108.194 191.524 107.479Z" fill="#A8A8A8"/>
<defs>
<linearGradient id="paint0_linear_709_328" x1="69.3541" y1="78.7758" x2="69.3541" y2="100.489" gradientUnits="userSpaceOnUse">
<stop stop-color="#F37D06"/>
<stop offset="1" stop-color="#FF7E7E"/>
</linearGradient>
</defs>
</svg>
