<svg width="45" height="46" viewBox="0 0 45 46" fill="none" xmlns="http://www.w3.org/2000/svg">
<rect y="0.18396" width="45" height="45" rx="8" fill="#FF840A"/>
<path d="M26.3522 19.665H21.7642V10.684H26.3522C28.8282 10.684 30.8422 12.698 30.8422 15.174C30.8422 17.65 28.8282 19.665 26.3522 19.665ZM23.2352 18.194H26.3522C28.0172 18.194 29.3712 16.839 29.3712 15.175C29.3712 13.511 28.0162 12.156 26.3522 12.156H23.2352V18.194ZM23.2352 19.665H18.6482C16.1722 19.665 14.1582 17.651 14.1582 15.175C14.1582 12.699 16.1722 10.684 18.6482 10.684H23.2362V19.665H23.2352ZM18.6482 12.155C16.9832 12.155 15.6292 13.51 15.6292 15.174C15.6292 16.838 16.9832 18.194 18.6482 18.194H21.7652V12.155H18.6482ZM23.2352 27.174H18.6482C16.1722 27.174 14.1582 25.16 14.1582 22.684C14.1582 20.208 16.1722 18.194 18.6482 18.194H23.2362V27.174H23.2352ZM18.6482 19.665C16.9832 19.665 15.6292 21.02 15.6292 22.684C15.6292 24.348 16.9842 25.703 18.6482 25.703H21.7652V19.665H18.6482ZM18.6722 34.684C16.1832 34.684 14.1572 32.67 14.1572 30.194C14.1572 27.718 16.1712 25.704 18.6472 25.704H23.2352V30.145C23.2352 32.648 21.1882 34.684 18.6722 34.684ZM18.6482 27.174C17.8479 27.175 17.0806 27.4934 16.5146 28.0594C15.9487 28.6253 15.6303 29.3926 15.6292 30.193C15.6292 31.858 16.9942 33.212 18.6732 33.212C20.3782 33.212 21.7662 31.836 21.7662 30.144V27.174H18.6482ZM26.3522 27.174H26.2542C23.7782 27.174 21.7642 25.16 21.7642 22.684C21.7642 20.208 23.7782 18.194 26.2542 18.194H26.3522C28.8282 18.194 30.8422 20.208 30.8422 22.684C30.8422 25.16 28.8282 27.174 26.3522 27.174ZM26.2552 19.665C24.5902 19.665 23.2362 21.02 23.2362 22.684C23.2362 24.348 24.5912 25.703 26.2552 25.703H26.3532C28.0182 25.703 29.3722 24.348 29.3722 22.684C29.3722 21.02 28.0162 19.665 26.3522 19.665H26.2552Z" fill="white"/>
</svg>
