<svg width="39" height="39" viewBox="0 0 39 39" fill="none" xmlns="http://www.w3.org/2000/svg">
<rect x="0.548828" y="0.818848" width="37.9419" height="37.9407" rx="5.3871" fill="#FAEEE2"/>
<path d="M22.2985 13.552C22.4015 13.6551 22.5302 13.7289 22.6712 13.7657C22.8123 13.8025 22.9606 13.8011 23.1009 13.7615C23.2412 13.7219 23.3684 13.6456 23.4694 13.5405C23.5704 13.4354 23.6415 13.3052 23.6754 13.1635C23.7605 12.8093 23.9385 12.4842 24.1909 12.2217C24.4434 11.9592 24.7613 11.7687 25.1119 11.6699C25.4625 11.5711 25.833 11.5675 26.1855 11.6595C26.5379 11.7516 26.8594 11.9359 27.1169 12.1934C27.3744 12.451 27.5586 12.7726 27.6505 13.1251C27.7424 13.4775 27.7387 13.8481 27.6398 14.1986C27.5408 14.5492 27.3503 14.867 27.0877 15.1194C26.8251 15.3718 26.4999 15.5496 26.1457 15.6346C26.004 15.6685 25.8738 15.7396 25.7687 15.8406C25.6636 15.9416 25.5873 16.0688 25.5477 16.2091C25.5081 16.3494 25.5067 16.4977 25.5435 16.6388C25.5803 16.7798 25.6541 16.9085 25.7572 17.0115L27.1366 18.3901C27.3204 18.5738 27.4661 18.7919 27.5656 19.032C27.665 19.2721 27.7162 19.5293 27.7162 19.7892C27.7162 20.049 27.665 20.3063 27.5656 20.5464C27.4661 20.7864 27.3204 21.0045 27.1366 21.1883L25.7572 22.5677C25.6542 22.6708 25.5255 22.7446 25.3845 22.7814C25.2435 22.8182 25.0951 22.8168 24.9548 22.7772C24.8145 22.7376 24.6873 22.6613 24.5863 22.5562C24.4854 22.4511 24.4142 22.3209 24.3803 22.1792C24.2952 21.825 24.1173 21.4999 23.8648 21.2374C23.6123 20.9749 23.2944 20.7844 22.9438 20.6856C22.5933 20.5868 22.2227 20.5832 21.8703 20.6752C21.5179 20.7673 21.1964 20.9516 20.9388 21.2091C20.6813 21.4667 20.4971 21.7883 20.4052 22.1408C20.3133 22.4932 20.317 22.8638 20.416 23.2143C20.5149 23.5649 20.7055 23.8827 20.9681 24.1351C21.2307 24.3875 21.5558 24.5653 21.91 24.6503C22.0518 24.6842 22.1819 24.7553 22.2871 24.8563C22.3922 24.9573 22.4685 25.0845 22.508 25.2248C22.5476 25.3651 22.5491 25.5134 22.5122 25.6545C22.4754 25.7955 22.4016 25.9242 22.2985 26.0272L20.9191 27.4058C20.7354 27.5895 20.5173 27.7353 20.2772 27.8347C20.0371 27.9342 19.7799 27.9853 19.52 27.9853C19.2602 27.9853 19.0029 27.9342 18.7628 27.8347C18.5228 27.7353 18.3047 27.5895 18.1209 27.4058L16.7415 26.0264C16.6385 25.9233 16.5098 25.8495 16.3688 25.8126C16.2278 25.7758 16.0794 25.7773 15.9391 25.8168C15.7988 25.8564 15.6716 25.9327 15.5707 26.0378C15.4697 26.143 15.3985 26.2731 15.3646 26.4149C15.2795 26.7691 15.1016 27.0941 14.8491 27.3566C14.5966 27.6192 14.2787 27.8096 13.9281 27.9085C13.5776 28.0073 13.207 28.0108 12.8546 27.9188C12.5022 27.8268 12.1807 27.6425 11.9231 27.3849C11.6656 27.1273 11.4814 26.8057 11.3895 26.4533C11.2976 26.1008 11.3013 25.7303 11.4003 25.3797C11.4992 25.0292 11.6898 24.7114 11.9524 24.459C12.215 24.2066 12.5401 24.0287 12.8943 23.9438C13.0361 23.9098 13.1662 23.8387 13.2714 23.7377C13.3765 23.6367 13.4528 23.5095 13.4924 23.3692C13.5319 23.2289 13.5334 23.0806 13.4965 22.9396C13.4597 22.7985 13.3859 22.6699 13.2828 22.5668L11.9034 21.1883C11.7197 21.0045 11.5739 20.7864 11.4745 20.5464C11.375 20.3063 11.3239 20.049 11.3239 19.7892C11.3239 19.5293 11.375 19.2721 11.4745 19.032C11.5739 18.7919 11.7197 18.5738 11.9034 18.3901L13.2828 17.0107C13.3858 16.9076 13.5145 16.8338 13.6555 16.797C13.7966 16.7601 13.9449 16.7616 14.0852 16.8012C14.2255 16.8407 14.3527 16.917 14.4537 17.0221C14.5547 17.1273 14.6258 17.2574 14.6597 17.3992C14.7448 17.7534 14.9228 18.0784 15.1752 18.3409C15.4277 18.6035 15.7456 18.7939 16.0962 18.8928C16.4468 18.9916 16.8173 18.9951 17.1698 18.9031C17.5222 18.8111 17.8437 18.6268 18.1012 18.3692C18.3587 18.1116 18.5429 17.79 18.6348 17.4376C18.7267 17.0852 18.723 16.7146 18.6241 16.364C18.5251 16.0135 18.3346 15.6957 18.072 15.4433C17.8094 15.1909 17.4842 15.013 17.13 14.9281C16.9883 14.8941 16.8581 14.823 16.753 14.722C16.6479 14.621 16.5716 14.4938 16.532 14.3535C16.4924 14.2132 16.491 14.0649 16.5278 13.9239C16.5646 13.7828 16.6384 13.6542 16.7415 13.5511L18.1209 12.1726C18.3047 11.9888 18.5228 11.8431 18.7628 11.7436C19.0029 11.6442 19.2602 11.593 19.52 11.593C19.7799 11.593 20.0371 11.6442 20.2772 11.7436C20.5173 11.8431 20.7354 11.9888 20.9191 12.1726L22.2985 13.552Z" stroke="#FF840A" stroke-width="2" stroke-linecap="round" stroke-linejoin="round"/>
</svg>
