<svg width="40" height="41" viewBox="0 0 40 41" fill="none" xmlns="http://www.w3.org/2000/svg">
<circle cx="20" cy="20.1025" r="20" fill="#FAEEE2"/>
<path d="M15.8 10.1025H24.2C27.4 10.1025 30 12.7025 30 15.9025V24.3025C30 25.8408 29.3889 27.316 28.3012 28.4038C27.2135 29.4915 25.7383 30.1025 24.2 30.1025H15.8C12.6 30.1025 10 27.5025 10 24.3025V15.9025C10 14.3643 10.6111 12.889 11.6988 11.8013C12.7865 10.7136 14.2617 10.1025 15.8 10.1025ZM15.6 12.1025C14.6452 12.1025 13.7295 12.4818 13.0544 13.157C12.3793 13.8321 12 14.7478 12 15.7025V24.5025C12 26.4925 13.61 28.1025 15.6 28.1025H24.4C25.3548 28.1025 26.2705 27.7233 26.9456 27.0481C27.6207 26.373 28 25.4573 28 24.5025V15.7025C28 13.7125 26.39 12.1025 24.4 12.1025H15.6ZM25.25 13.6025C25.5815 13.6025 25.8995 13.7342 26.1339 13.9687C26.3683 14.2031 26.5 14.521 26.5 14.8525C26.5 15.1841 26.3683 15.502 26.1339 15.7364C25.8995 15.9708 25.5815 16.1025 25.25 16.1025C24.9185 16.1025 24.6005 15.9708 24.3661 15.7364C24.1317 15.502 24 15.1841 24 14.8525C24 14.521 24.1317 14.2031 24.3661 13.9687C24.6005 13.7342 24.9185 13.6025 25.25 13.6025ZM20 15.1025C21.3261 15.1025 22.5979 15.6293 23.5355 16.567C24.4732 17.5047 25 18.7765 25 20.1025C25 21.4286 24.4732 22.7004 23.5355 23.6381C22.5979 24.5758 21.3261 25.1025 20 25.1025C18.6739 25.1025 17.4021 24.5758 16.4645 23.6381C15.5268 22.7004 15 21.4286 15 20.1025C15 18.7765 15.5268 17.5047 16.4645 16.567C17.4021 15.6293 18.6739 15.1025 20 15.1025ZM20 17.1025C19.2044 17.1025 18.4413 17.4186 17.8787 17.9812C17.3161 18.5438 17 19.3069 17 20.1025C17 20.8982 17.3161 21.6613 17.8787 22.2239C18.4413 22.7865 19.2044 23.1025 20 23.1025C20.7956 23.1025 21.5587 22.7865 22.1213 22.2239C22.6839 21.6613 23 20.8982 23 20.1025C23 19.3069 22.6839 18.5438 22.1213 17.9812C21.5587 17.4186 20.7956 17.1025 20 17.1025Z" fill="#FF840A"/>
</svg>
