<svg width="45" height="46" viewBox="0 0 45 46" fill="none" xmlns="http://www.w3.org/2000/svg">
<g clip-path="url(#clip0_700_771)">
<rect y="0.18396" width="45" height="45" rx="8" fill="#FF840A"/>
<path d="M24.7298 23.405H28.1292V32.9333C28.1292 37.2271 26.0711 38.726 22.7832 38.726C21.9784 38.726 20.9489 38.5919 20.2783 38.3681L20.6589 35.6167C21.1284 35.7735 21.7329 35.8849 22.4035 35.8849C23.8354 35.8849 24.7298 35.2361 24.7298 32.9106V23.405ZM31.0808 34.9914C31.9753 35.4608 33.4072 35.9312 34.8608 35.9312C36.4268 35.9312 37.2542 35.2823 37.2542 34.2763C37.2542 33.3592 36.5383 32.8001 34.7267 32.1738C32.2218 31.2794 30.567 29.8928 30.567 27.6779C30.567 25.106 32.7365 23.1603 36.27 23.1603C37.9919 23.1603 39.2226 23.4956 40.117 23.9206L39.3567 26.6493C38.7749 26.3584 37.6792 25.9334 36.2256 25.9334C34.7493 25.9334 34.0334 26.6267 34.0334 27.387C34.0334 28.3486 34.8608 28.7736 36.8292 29.5339C39.4908 30.5181 40.7206 31.9047 40.7206 34.0516C40.7206 36.5791 38.7975 38.726 34.6596 38.726C32.9377 38.726 31.2376 38.2566 30.3875 37.7862L31.0808 34.9914Z" fill="white"/>
</g>
<defs>
<clipPath id="clip0_700_771">
<rect y="0.18396" width="45" height="45" rx="8" fill="white"/>
</clipPath>
</defs>
</svg>
