<svg width="45" height="46" viewBox="0 0 45 46" fill="none" xmlns="http://www.w3.org/2000/svg">
<rect y="0.18396" width="45" height="45" rx="8" fill="#FF840A"/>
<g clip-path="url(#clip0_700_762)">
<path d="M33.987 16.1039C33.9956 16.1359 34 16.1688 34 16.2019V21.3444C34 21.4788 33.929 21.6029 33.8138 21.6697L29.5481 24.1547V29.0803C29.5481 29.2143 29.4777 29.3381 29.3629 29.4056L20.4587 34.5922C20.4383 34.6039 20.416 34.6114 20.3938 34.6194C20.3855 34.6222 20.3776 34.6273 20.3688 34.6297C20.3065 34.6463 20.2411 34.6463 20.1789 34.6297C20.1687 34.6269 20.1594 34.6212 20.1497 34.6175C20.1293 34.61 20.108 34.6034 20.0886 34.5922L11.1862 29.4056C11.0711 29.3387 11 29.2146 11 29.0803V13.6526C11 13.6189 11.0046 13.5861 11.013 13.5542C11.0157 13.5434 11.0222 13.5336 11.0259 13.5228C11.0329 13.5031 11.0394 13.483 11.0496 13.4647C11.0565 13.4525 11.0667 13.4427 11.075 13.4314C11.0857 13.4164 11.0954 13.4009 11.1079 13.3878C11.1186 13.377 11.1325 13.3691 11.1445 13.3597C11.158 13.3484 11.17 13.3363 11.1853 13.3274H11.1857L15.6371 10.7341C15.7519 10.6673 15.893 10.6673 16.0077 10.7341L20.4591 13.3274H20.46C20.4749 13.3367 20.4874 13.3484 20.5008 13.3592C20.5128 13.3686 20.5263 13.377 20.5369 13.3873C20.5499 13.4009 20.5592 13.4164 20.5703 13.4314C20.5782 13.4427 20.5888 13.4525 20.5953 13.4647C20.606 13.4834 20.612 13.5031 20.6194 13.5228C20.6231 13.5336 20.6296 13.5434 20.6324 13.5547C20.6409 13.5866 20.6452 13.6195 20.6453 13.6526V23.2886L24.3547 21.1274V16.2014C24.3547 16.1686 24.3593 16.1353 24.3676 16.1039C24.3709 16.0927 24.3769 16.0828 24.3806 16.0721C24.388 16.0524 24.3945 16.0322 24.4047 16.0139C24.4116 16.0017 24.4218 15.9919 24.4297 15.9807C24.4408 15.9657 24.4501 15.9502 24.4631 15.9371C24.4737 15.9263 24.4872 15.9183 24.4992 15.9089C24.5131 15.8977 24.5251 15.8855 24.54 15.8766H24.5404L28.9923 13.2833C29.107 13.2164 29.2482 13.2164 29.3629 13.2833L33.8143 15.8766C33.83 15.886 33.842 15.8977 33.8559 15.9085C33.8675 15.9178 33.881 15.9263 33.8916 15.9366C33.9046 15.9502 33.9138 15.9657 33.925 15.9807C33.9333 15.9919 33.9435 16.0017 33.95 16.0139C33.9606 16.0322 33.9667 16.0524 33.9741 16.0721C33.9782 16.0828 33.9843 16.0927 33.987 16.1039ZM33.2579 21.1274V16.851L31.7002 17.7584L29.5481 19.0122V23.2886L33.2584 21.1274H33.2579ZM28.8065 28.8633V24.5841L26.6897 25.8074L20.6449 29.2982V33.6178L28.8065 28.8633ZM11.7421 14.3018V28.8633L19.9028 33.6173V29.2987L15.6395 26.8573L15.6381 26.8563L15.6362 26.8554C15.6219 26.8469 15.6098 26.8348 15.5964 26.8245C15.5848 26.8151 15.5714 26.8076 15.5612 26.7973L15.5603 26.7959C15.5482 26.7841 15.5399 26.7696 15.5297 26.7565C15.5204 26.7438 15.5093 26.7331 15.5019 26.7199L15.5014 26.7185C15.4931 26.7045 15.488 26.6876 15.482 26.6717C15.476 26.6576 15.4681 26.6445 15.4644 26.6295V26.629C15.4597 26.6112 15.4588 26.5924 15.457 26.5742C15.4551 26.5601 15.4514 26.546 15.4514 26.532V26.531V16.4629L13.2998 15.2087L11.7421 14.3022V14.3018ZM15.8229 11.4924L12.114 13.6526L15.822 15.8129L19.5304 13.6522L15.822 11.4924H15.8229ZM17.7517 24.974L19.9033 23.7207V14.3018L18.3455 15.2092L16.1935 16.4629V25.8819L17.7517 24.974ZM29.1776 14.0417L25.4691 16.2019L29.1776 18.3621L32.8855 16.2014L29.1776 14.0417ZM28.8065 19.0122L26.6545 17.7584L25.0967 16.851V21.1274L27.2483 22.3807L28.8065 23.2886V19.0122ZM20.2734 28.6491L25.7128 25.5069L28.4318 23.9368L24.7262 21.778L20.4596 24.2635L16.571 26.5287L20.2734 28.6491Z" fill="white"/>
</g>
<defs>
<clipPath id="clip0_700_762">
<rect width="23" height="24" fill="white" transform="translate(11 10.684)"/>
</clipPath>
</defs>
</svg>
