<svg width="40" height="41" viewBox="0 0 40 41" fill="none" xmlns="http://www.w3.org/2000/svg">
<circle cx="20" cy="20.1025" r="20" fill="#FAEEE2"/>
<path fill-rule="evenodd" clip-rule="evenodd" d="M17.6861 17.3746H21.0287V19.0396C21.5102 18.082 22.745 17.2216 24.5999 17.2216C28.1558 17.2216 29 19.1278 29 22.6252V29.1025H25.4V23.4217C25.4 21.43 24.9185 20.3068 23.6927 20.3068C21.9926 20.3068 21.2861 21.5173 21.2861 23.4208V29.1025H17.6861V17.3746ZM11.513 28.9495H15.113V17.2216H11.513V28.9495ZM15.6287 13.3975C15.6288 13.6993 15.569 13.9981 15.4526 14.2765C15.3363 14.5549 15.1658 14.8074 14.951 15.0193C14.7356 15.2336 14.48 15.4034 14.199 15.5189C13.9179 15.6344 13.6169 15.6934 13.313 15.6925C12.7006 15.6912 12.1132 15.4498 11.6768 15.0202C11.4629 14.8075 11.293 14.5547 11.1768 14.2763C11.0607 13.9978 11.0006 13.6992 11 13.3975C11 12.7882 11.243 12.205 11.6777 11.7748C12.113 11.3436 12.7012 11.102 13.3139 11.1025C13.9277 11.1025 14.5163 11.3446 14.951 11.7748C15.3857 12.205 15.6287 12.7882 15.6287 13.3975Z" fill="#FF840A"/>
</svg>
