<svg width="251" height="182" viewBox="0 0 251 182" fill="none" xmlns="http://www.w3.org/2000/svg">
<line x1="7.67709" y1="12.4419" x2="7.67708" y2="169.876" stroke="#D4D4D4" stroke-width="0.869804" stroke-dasharray="5.22 5.22"/>
<line x1="44.2083" y1="12.4419" x2="44.2083" y2="169.876" stroke="#D4D4D4" stroke-width="0.869804" stroke-dasharray="5.22 5.22"/>
<line x1="80.7396" y1="12.4419" x2="80.7396" y2="169.876" stroke="#D4D4D4" stroke-width="0.869804" stroke-dasharray="5.22 5.22"/>
<line x1="117.273" y1="12.4419" x2="117.273" y2="169.876" stroke="#D4D4D4" stroke-width="0.869804" stroke-dasharray="5.22 5.22"/>
<line x1="153.804" y1="12.4419" x2="153.804" y2="169.876" stroke="#D4D4D4" stroke-width="0.869804" stroke-dasharray="5.22 5.22"/>
<line x1="190.335" y1="12.4419" x2="190.335" y2="169.876" stroke="#D4D4D4" stroke-width="0.869804" stroke-dasharray="5.22 5.22"/>
<line x1="226.868" y1="12.4419" x2="226.868" y2="169.876" stroke="#D4D4D4" stroke-width="0.869804" stroke-dasharray="5.22 5.22"/>
<path d="M17.1761 117.46C17.0103 117.46 16.8822 117.415 16.7917 117.324C16.7012 117.234 16.656 117.102 16.656 116.929V115.719H13.5125C13.3467 115.719 13.211 115.681 13.1055 115.606C13.0075 115.53 12.9585 115.413 12.9585 115.255C12.9585 115.165 12.9811 115.07 13.0263 114.972C13.0715 114.874 13.1507 114.742 13.2638 114.577L16.6221 109.68C16.705 109.567 16.7917 109.481 16.8822 109.42C16.9801 109.36 17.0895 109.33 17.2101 109.33C17.3458 109.33 17.4588 109.375 17.5493 109.466C17.6473 109.549 17.6963 109.68 17.6963 109.861V114.825H18.4652C18.631 114.825 18.7554 114.863 18.8383 114.938C18.9213 115.014 18.9627 115.123 18.9627 115.266C18.9627 115.417 18.9213 115.53 18.8383 115.606C18.7554 115.681 18.631 115.719 18.4652 115.719H17.6963V116.929C17.6963 117.102 17.6511 117.234 17.5606 117.324C17.4701 117.415 17.342 117.46 17.1761 117.46ZM16.656 114.825V110.642H16.9387L13.8857 115.108V114.825H16.656ZM22.7802 117.483C22.3581 117.483 21.9322 117.422 21.5025 117.302C21.0803 117.174 20.6959 116.981 20.3491 116.725C20.2511 116.657 20.1833 116.578 20.1456 116.488C20.1154 116.39 20.1117 116.295 20.1343 116.205C20.1569 116.114 20.2021 116.039 20.27 115.979C20.3378 115.911 20.417 115.873 20.5074 115.866C20.6054 115.858 20.7072 115.888 20.8127 115.956C21.1143 116.167 21.4271 116.325 21.7512 116.431C22.0754 116.529 22.4146 116.578 22.7689 116.578C23.1232 116.578 23.4285 116.51 23.6848 116.374C23.9411 116.239 24.1371 116.05 24.2728 115.809C24.416 115.568 24.4877 115.285 24.4877 114.961C24.4877 114.464 24.3407 114.056 24.0467 113.74C23.7527 113.423 23.3531 113.265 22.8481 113.265C22.539 113.265 22.2525 113.321 21.9887 113.435C21.7324 113.54 21.4912 113.721 21.265 113.977C21.2123 114.038 21.1444 114.09 21.0615 114.136C20.9861 114.181 20.8994 114.203 20.8014 114.203C20.6582 114.203 20.5489 114.166 20.4735 114.09C20.3981 114.007 20.3604 113.898 20.3604 113.762V109.884C20.3604 109.733 20.4019 109.616 20.4848 109.533C20.5677 109.451 20.6846 109.409 20.8353 109.409H24.646C24.7967 109.409 24.9136 109.447 24.9965 109.522C25.0794 109.598 25.1209 109.707 25.1209 109.85C25.1209 109.993 25.0794 110.106 24.9965 110.189C24.9136 110.265 24.7967 110.302 24.646 110.302H21.3894V113.321H21.0954C21.2989 113.02 21.5703 112.786 21.9096 112.62C22.2563 112.455 22.637 112.372 23.0516 112.372C23.5567 112.372 23.9901 112.481 24.352 112.7C24.7213 112.911 25.0078 113.208 25.2113 113.593C25.4149 113.97 25.5166 114.411 25.5166 114.916C25.5166 115.413 25.4036 115.858 25.1774 116.25C24.9588 116.635 24.646 116.936 24.2389 117.155C23.8318 117.373 23.3456 117.483 22.7802 117.483Z" fill="#D4D4D4"/>
<path d="M52.2846 117.483C51.8474 117.483 51.4102 117.422 50.9729 117.302C50.5357 117.181 50.155 117 49.8309 116.759C49.7254 116.684 49.6537 116.597 49.6161 116.499C49.5784 116.401 49.5671 116.31 49.5821 116.227C49.6047 116.137 49.65 116.062 49.7178 116.001C49.7857 115.941 49.8686 115.907 49.9666 115.9C50.0646 115.885 50.1701 115.911 50.2832 115.979C50.6073 116.19 50.9277 116.344 51.2443 116.442C51.5685 116.533 51.9039 116.578 52.2507 116.578C52.6201 116.578 52.9329 116.525 53.1892 116.42C53.4455 116.307 53.6377 116.145 53.7659 115.934C53.9016 115.715 53.9694 115.455 53.9694 115.153C53.9694 114.701 53.8224 114.362 53.5284 114.136C53.2344 113.902 52.8048 113.785 52.2394 113.785H51.4479C51.2896 113.785 51.1689 113.747 51.086 113.672C51.0031 113.589 50.9616 113.48 50.9616 113.344C50.9616 113.201 51.0031 113.092 51.086 113.016C51.1689 112.941 51.2896 112.903 51.4479 112.903H52.1489C52.4806 112.903 52.7633 112.847 52.997 112.733C53.2307 112.613 53.4116 112.447 53.5397 112.236C53.6754 112.025 53.7433 111.769 53.7433 111.467C53.7433 111.06 53.6114 110.751 53.3475 110.54C53.0837 110.321 52.703 110.212 52.2055 110.212C51.8813 110.212 51.576 110.261 51.2896 110.359C51.0031 110.449 50.7129 110.604 50.4189 110.823C50.3209 110.89 50.2229 110.924 50.1249 110.924C50.0269 110.917 49.944 110.883 49.8761 110.823C49.8158 110.762 49.7744 110.691 49.7517 110.608C49.7291 110.517 49.7329 110.423 49.763 110.325C49.7932 110.227 49.861 110.14 49.9666 110.065C50.2757 109.824 50.63 109.639 51.0295 109.511C51.4366 109.375 51.8549 109.307 52.2846 109.307C52.8048 109.307 53.2495 109.39 53.6189 109.556C53.9958 109.722 54.2823 109.959 54.4783 110.268C54.6743 110.57 54.7722 110.936 54.7722 111.365C54.7722 111.689 54.7119 111.987 54.5913 112.259C54.4707 112.522 54.2973 112.749 54.0712 112.937C53.8526 113.118 53.585 113.246 53.2684 113.321V113.197C53.8187 113.295 54.2446 113.525 54.5461 113.887C54.8552 114.241 55.0097 114.686 55.0097 115.221C55.0097 115.681 54.8966 116.084 54.6705 116.431C54.4519 116.77 54.139 117.03 53.732 117.211C53.3249 117.392 52.8424 117.483 52.2846 117.483ZM59.3134 117.483C58.8913 117.483 58.4654 117.422 58.0357 117.302C57.6135 117.174 57.2291 116.981 56.8823 116.725C56.7843 116.657 56.7165 116.578 56.6788 116.488C56.6486 116.39 56.6449 116.295 56.6675 116.205C56.6901 116.114 56.7353 116.039 56.8032 115.979C56.871 115.911 56.9502 115.873 57.0406 115.866C57.1386 115.858 57.2404 115.888 57.3459 115.956C57.6475 116.167 57.9603 116.325 58.2844 116.431C58.6086 116.529 58.9478 116.578 59.3021 116.578C59.6564 116.578 59.9617 116.51 60.218 116.374C60.4743 116.239 60.6703 116.05 60.806 115.809C60.9492 115.568 61.0209 115.285 61.0209 114.961C61.0209 114.464 60.8739 114.056 60.5799 113.74C60.2859 113.423 59.8863 113.265 59.3813 113.265C59.0722 113.265 58.7857 113.321 58.5219 113.435C58.2656 113.54 58.0244 113.721 57.7982 113.977C57.7455 114.038 57.6776 114.09 57.5947 114.136C57.5193 114.181 57.4326 114.203 57.3346 114.203C57.1914 114.203 57.0821 114.166 57.0067 114.09C56.9313 114.007 56.8936 113.898 56.8936 113.762V109.884C56.8936 109.733 56.9351 109.616 57.018 109.533C57.1009 109.451 57.2178 109.409 57.3685 109.409H61.1792C61.3299 109.409 61.4468 109.447 61.5297 109.522C61.6126 109.598 61.6541 109.707 61.6541 109.85C61.6541 109.993 61.6126 110.106 61.5297 110.189C61.4468 110.265 61.3299 110.302 61.1792 110.302H57.9226V113.321H57.6286C57.8322 113.02 58.1035 112.786 58.4428 112.62C58.7895 112.455 59.1702 112.372 59.5848 112.372C60.0899 112.372 60.5233 112.481 60.8852 112.7C61.2545 112.911 61.541 113.208 61.7445 113.593C61.9481 113.97 62.0498 114.411 62.0498 114.916C62.0498 115.413 61.9368 115.858 61.7106 116.25C61.492 116.635 61.1792 116.936 60.7721 117.155C60.365 117.373 59.8788 117.483 59.3134 117.483Z" fill="#D4D4D4"/>
<path d="M86.9934 117.381C86.8125 117.381 86.6768 117.339 86.5863 117.256C86.5034 117.166 86.462 117.045 86.462 116.895C86.462 116.804 86.4846 116.714 86.5298 116.623C86.575 116.533 86.6429 116.442 86.7333 116.352L89.2097 113.695C89.5866 113.295 89.858 112.926 90.0238 112.586C90.1896 112.247 90.2726 111.904 90.2726 111.558C90.2726 111.12 90.1369 110.789 89.8655 110.562C89.6017 110.329 89.2134 110.212 88.7008 110.212C88.3842 110.212 88.0789 110.265 87.7849 110.37C87.4985 110.468 87.2158 110.623 86.9369 110.834C86.8313 110.909 86.7333 110.943 86.6429 110.936C86.5524 110.928 86.4733 110.894 86.4054 110.834C86.3451 110.766 86.2999 110.691 86.2697 110.608C86.2471 110.517 86.2509 110.423 86.281 110.325C86.3112 110.227 86.3753 110.144 86.4733 110.076C86.7823 109.835 87.1404 109.647 87.5475 109.511C87.9545 109.375 88.3729 109.307 88.8026 109.307C89.3454 109.307 89.8014 109.394 90.1708 109.567C90.5477 109.733 90.8342 109.978 91.0302 110.302C91.2262 110.619 91.3242 111.007 91.3242 111.467C91.3242 111.784 91.2714 112.097 91.1659 112.406C91.0603 112.707 90.902 113.016 90.6909 113.333C90.4874 113.649 90.2236 113.977 89.8994 114.317L87.5475 116.793V116.488H91.2563C91.4071 116.488 91.5202 116.525 91.5955 116.601C91.6785 116.676 91.7199 116.785 91.7199 116.929C91.7199 117.072 91.6785 117.185 91.5955 117.268C91.5202 117.343 91.4071 117.381 91.2563 117.381H86.9934ZM95.8427 117.483C95.4206 117.483 94.9947 117.422 94.565 117.302C94.1428 117.174 93.7584 116.981 93.4116 116.725C93.3136 116.657 93.2458 116.578 93.2081 116.488C93.1779 116.39 93.1742 116.295 93.1968 116.205C93.2194 116.114 93.2646 116.039 93.3325 115.979C93.4003 115.911 93.4795 115.873 93.5699 115.866C93.6679 115.858 93.7697 115.888 93.8752 115.956C94.1768 116.167 94.4896 116.325 94.8137 116.431C95.1379 116.529 95.4771 116.578 95.8314 116.578C96.1857 116.578 96.491 116.51 96.7473 116.374C97.0036 116.239 97.1996 116.05 97.3353 115.809C97.4785 115.568 97.5502 115.285 97.5502 114.961C97.5502 114.464 97.4032 114.056 97.1092 113.74C96.8152 113.423 96.4156 113.265 95.9106 113.265C95.6015 113.265 95.315 113.321 95.0512 113.435C94.7949 113.54 94.5537 113.721 94.3275 113.977C94.2748 114.038 94.2069 114.09 94.124 114.136C94.0486 114.181 93.9619 114.203 93.8639 114.203C93.7207 114.203 93.6114 114.166 93.536 114.09C93.4606 114.007 93.4229 113.898 93.4229 113.762V109.884C93.4229 109.733 93.4644 109.616 93.5473 109.533C93.6302 109.451 93.7471 109.409 93.8978 109.409H97.7085C97.8592 109.409 97.9761 109.447 98.059 109.522C98.1419 109.598 98.1834 109.707 98.1834 109.85C98.1834 109.993 98.1419 110.106 98.059 110.189C97.9761 110.265 97.8592 110.302 97.7085 110.302H94.4519V113.321H94.1579C94.3614 113.02 94.6328 112.786 94.9721 112.62C95.3188 112.455 95.6995 112.372 96.1141 112.372C96.6192 112.372 97.0526 112.481 97.4145 112.7C97.7838 112.911 98.0703 113.208 98.2738 113.593C98.4774 113.97 98.5791 114.411 98.5791 114.916C98.5791 115.413 98.4661 115.858 98.2399 116.25C98.0213 116.635 97.7085 116.936 97.3014 117.155C96.8943 117.373 96.4081 117.483 95.8427 117.483Z" fill="#D4D4D4"/>
<path d="M123.809 117.381C123.666 117.381 123.553 117.339 123.47 117.256C123.387 117.174 123.346 117.064 123.346 116.929C123.346 116.785 123.387 116.676 123.47 116.601C123.553 116.525 123.666 116.488 123.809 116.488H125.234V110.28H125.777L124.126 111.343C124.02 111.411 123.919 111.441 123.821 111.433C123.73 111.418 123.651 111.38 123.583 111.32C123.515 111.252 123.47 111.173 123.447 111.083C123.425 110.992 123.429 110.902 123.459 110.811C123.496 110.713 123.572 110.634 123.685 110.574L125.245 109.556C125.358 109.488 125.464 109.435 125.562 109.398C125.667 109.353 125.769 109.33 125.867 109.33C125.98 109.33 126.078 109.364 126.161 109.432C126.244 109.5 126.286 109.609 126.286 109.76V116.488H127.597C127.748 116.488 127.861 116.525 127.937 116.601C128.019 116.676 128.061 116.785 128.061 116.929C128.061 117.072 128.019 117.185 127.937 117.268C127.861 117.343 127.748 117.381 127.597 117.381H123.809ZM132.376 117.483C131.954 117.483 131.528 117.422 131.098 117.302C130.676 117.174 130.292 116.981 129.945 116.725C129.847 116.657 129.779 116.578 129.741 116.488C129.711 116.39 129.707 116.295 129.73 116.205C129.753 116.114 129.798 116.039 129.866 115.979C129.934 115.911 130.013 115.873 130.103 115.866C130.201 115.858 130.303 115.888 130.408 115.956C130.71 116.167 131.023 116.325 131.347 116.431C131.671 116.529 132.01 116.578 132.365 116.578C132.719 116.578 133.024 116.51 133.281 116.374C133.537 116.239 133.733 116.05 133.869 115.809C134.012 115.568 134.083 115.285 134.083 114.961C134.083 114.464 133.936 114.056 133.642 113.74C133.348 113.423 132.949 113.265 132.444 113.265C132.135 113.265 131.848 113.321 131.584 113.435C131.328 113.54 131.087 113.721 130.861 113.977C130.808 114.038 130.74 114.09 130.657 114.136C130.582 114.181 130.495 114.203 130.397 114.203C130.254 114.203 130.145 114.166 130.069 114.09C129.994 114.007 129.956 113.898 129.956 113.762V109.884C129.956 109.733 129.998 109.616 130.081 109.533C130.163 109.451 130.28 109.409 130.431 109.409H134.242C134.392 109.409 134.509 109.447 134.592 109.522C134.675 109.598 134.717 109.707 134.717 109.85C134.717 109.993 134.675 110.106 134.592 110.189C134.509 110.265 134.392 110.302 134.242 110.302H130.985V113.321H130.691C130.895 113.02 131.166 112.786 131.505 112.62C131.852 112.455 132.233 112.372 132.647 112.372C133.152 112.372 133.586 112.481 133.948 112.7C134.317 112.911 134.603 113.208 134.807 113.593C135.011 113.97 135.112 114.411 135.112 114.916C135.112 115.413 134.999 115.858 134.773 116.25C134.554 116.635 134.242 116.936 133.835 117.155C133.428 117.373 132.941 117.483 132.376 117.483Z" fill="#D4D4D4"/>
<path d="M162.127 117.483C161.705 117.483 161.279 117.422 160.849 117.302C160.427 117.174 160.043 116.981 159.696 116.725C159.598 116.657 159.53 116.578 159.492 116.488C159.462 116.39 159.459 116.295 159.481 116.205C159.504 116.114 159.549 116.039 159.617 115.979C159.685 115.911 159.764 115.873 159.854 115.866C159.952 115.858 160.054 115.888 160.16 115.956C160.461 116.167 160.774 116.325 161.098 116.431C161.422 116.529 161.762 116.578 162.116 116.578C162.47 116.578 162.775 116.51 163.032 116.374C163.288 116.239 163.484 116.05 163.62 115.809C163.763 115.568 163.835 115.285 163.835 114.961C163.835 114.464 163.688 114.056 163.394 113.74C163.1 113.423 162.7 113.265 162.195 113.265C161.886 113.265 161.599 113.321 161.336 113.435C161.079 113.54 160.838 113.721 160.612 113.977C160.559 114.038 160.491 114.09 160.408 114.136C160.333 114.181 160.246 114.203 160.148 114.203C160.005 114.203 159.896 114.166 159.82 114.09C159.745 114.007 159.707 113.898 159.707 113.762V109.884C159.707 109.733 159.749 109.616 159.832 109.533C159.915 109.451 160.031 109.409 160.182 109.409H163.993C164.144 109.409 164.26 109.447 164.343 109.522C164.426 109.598 164.468 109.707 164.468 109.85C164.468 109.993 164.426 110.106 164.343 110.189C164.26 110.265 164.144 110.302 163.993 110.302H160.736V113.321H160.442C160.646 113.02 160.917 112.786 161.256 112.62C161.603 112.455 161.984 112.372 162.399 112.372C162.904 112.372 163.337 112.481 163.699 112.7C164.068 112.911 164.355 113.208 164.558 113.593C164.762 113.97 164.864 114.411 164.864 114.916C164.864 115.413 164.75 115.858 164.524 116.25C164.306 116.635 163.993 116.936 163.586 117.155C163.179 117.373 162.692 117.483 162.127 117.483Z" fill="#D4D4D4"/>
<path d="M198.511 117.483C197.592 117.483 196.891 117.132 196.408 116.431C195.933 115.722 195.696 114.709 195.696 113.389C195.696 112.492 195.801 111.742 196.012 111.139C196.231 110.536 196.548 110.08 196.962 109.771C197.384 109.462 197.901 109.307 198.511 109.307C199.439 109.307 200.14 109.654 200.615 110.348C201.089 111.034 201.327 112.044 201.327 113.378C201.327 114.26 201.218 115.006 200.999 115.617C200.788 116.227 200.475 116.691 200.06 117.008C199.646 117.324 199.13 117.483 198.511 117.483ZM198.511 116.589C199.114 116.589 199.563 116.329 199.857 115.809C200.151 115.289 200.298 114.479 200.298 113.378C200.298 112.277 200.151 111.475 199.857 110.97C199.571 110.457 199.122 110.201 198.511 110.201C197.908 110.201 197.46 110.457 197.166 110.97C196.872 111.475 196.725 112.277 196.725 113.378C196.725 114.479 196.872 115.289 197.166 115.809C197.46 116.329 197.908 116.589 198.511 116.589Z" fill="#D4D4D4"/>
<path d="M232.806 114.791C232.685 114.791 232.583 114.75 232.5 114.667C232.417 114.584 232.376 114.482 232.376 114.362C232.376 114.241 232.417 114.143 232.5 114.068C232.583 113.985 232.685 113.943 232.806 113.943H235.327C235.44 113.943 235.538 113.985 235.621 114.068C235.712 114.143 235.757 114.241 235.757 114.362C235.757 114.482 235.712 114.584 235.621 114.667C235.538 114.75 235.44 114.791 235.327 114.791H232.806ZM240.017 117.483C239.595 117.483 239.169 117.422 238.739 117.302C238.317 117.174 237.933 116.981 237.586 116.725C237.488 116.657 237.42 116.578 237.382 116.488C237.352 116.39 237.349 116.295 237.371 116.205C237.394 116.114 237.439 116.039 237.507 115.979C237.575 115.911 237.654 115.873 237.744 115.866C237.842 115.858 237.944 115.888 238.05 115.956C238.351 116.167 238.664 116.325 238.988 116.431C239.312 116.529 239.652 116.578 240.006 116.578C240.36 116.578 240.665 116.51 240.922 116.374C241.178 116.239 241.374 116.05 241.51 115.809C241.653 115.568 241.725 115.285 241.725 114.961C241.725 114.464 241.578 114.056 241.284 113.74C240.99 113.423 240.59 113.265 240.085 113.265C239.776 113.265 239.489 113.321 239.226 113.435C238.969 113.54 238.728 113.721 238.502 113.977C238.449 114.038 238.381 114.09 238.298 114.136C238.223 114.181 238.136 114.203 238.038 114.203C237.895 114.203 237.786 114.166 237.71 114.09C237.635 114.007 237.597 113.898 237.597 113.762V109.884C237.597 109.733 237.639 109.616 237.722 109.533C237.805 109.451 237.921 109.409 238.072 109.409H241.883C242.034 109.409 242.15 109.447 242.233 109.522C242.316 109.598 242.358 109.707 242.358 109.85C242.358 109.993 242.316 110.106 242.233 110.189C242.15 110.265 242.034 110.302 241.883 110.302H238.626V113.321H238.332C238.536 113.02 238.807 112.786 239.146 112.62C239.493 112.455 239.874 112.372 240.288 112.372C240.794 112.372 241.227 112.481 241.589 112.7C241.958 112.911 242.245 113.208 242.448 113.593C242.652 113.97 242.754 114.411 242.754 114.916C242.754 115.413 242.64 115.858 242.414 116.25C242.196 116.635 241.883 116.936 241.476 117.155C241.069 117.373 240.582 117.483 240.017 117.483Z" fill="#D4D4D4"/>
<path d="M8.98242 172.051L34.1637 144.557C45.2754 132.425 60.971 125.516 77.4228 125.516H95.3935C102.067 125.516 108.371 122.449 112.49 117.198L115.874 112.883C120.239 107.318 127.903 105.569 134.25 108.688V108.688C142.17 112.581 151.722 108.809 154.846 100.554L171.974 55.286C176.114 44.3445 188.327 38.8152 199.28 42.9228V42.9228C208.147 46.2477 218.143 43.2976 223.783 35.6916L242.96 9.83252" stroke="url(#paint0_linear_709_361)" stroke-width="2.60941"/>
<path d="M8.98242 172.051L34.1637 144.557C45.2754 132.425 60.971 125.517 77.4228 125.517H95.3304C102.044 125.517 108.386 122.431 112.529 117.148L115.919 112.826C120.267 107.283 127.883 105.507 134.234 108.555V108.555" stroke="url(#paint1_linear_709_361)" stroke-width="2.60941"/>
<circle cx="133.363" cy="108.12" r="4.34902" fill="#F37D0C"/>
<circle cx="133.363" cy="108.12" r="10.4376" fill="#F37D0C" fill-opacity="0.24"/>
<defs>
<linearGradient id="paint0_linear_709_361" x1="157.445" y1="95.3294" x2="259.228" y2="-6.45261" gradientUnits="userSpaceOnUse">
<stop stop-color="#C9C9C9"/>
<stop offset="1" stop-color="#EDEDED"/>
</linearGradient>
<linearGradient id="paint1_linear_709_361" x1="132.113" y1="105.282" x2="12.6888" y2="171.779" gradientUnits="userSpaceOnUse">
<stop stop-color="#F37D06"/>
<stop offset="0.736563" stop-color="#FF7E7E"/>
<stop offset="1" stop-color="#EDEDED"/>
</linearGradient>
</defs>
</svg>
