<svg width="45" height="46" viewBox="0 0 45 46" fill="none" xmlns="http://www.w3.org/2000/svg">
<rect y="0.18396" width="45" height="45" rx="8" fill="#FF840A"/>
<path d="M21.6486 9.689C21.5927 9.69409 21.4148 9.71188 21.2546 9.72459C17.5618 10.0575 14.1027 12.0501 11.9119 15.1127C10.692 16.8155 9.91173 18.7471 9.61691 20.793C9.51271 21.5072 9.5 21.7181 9.5 22.6865C9.5 23.6548 9.51271 23.8657 9.61691 24.5799C10.3235 29.4622 13.7978 33.5643 18.5098 35.0841C19.3536 35.3561 20.2431 35.5416 21.2546 35.6534C21.6486 35.6966 23.3514 35.6966 23.7454 35.6534C25.4914 35.4603 26.9706 35.0282 28.4294 34.2835C28.6531 34.1692 28.6963 34.1387 28.6658 34.1132C28.6455 34.098 27.6924 32.8196 26.5487 31.2743L24.4697 28.4659L21.8646 24.6104C20.4312 22.4908 19.2519 20.7574 19.2417 20.7574C19.2316 20.7549 19.2214 22.4679 19.2163 24.5596C19.2087 28.2219 19.2062 28.3694 19.1604 28.4558C19.0943 28.5803 19.0435 28.6311 18.9368 28.687C18.8554 28.7277 18.7843 28.7353 18.4005 28.7353H17.9608L17.8439 28.6616C17.7676 28.6133 17.7117 28.5498 17.6736 28.4761L17.6202 28.3617L17.6253 23.2659L17.6329 18.1676L17.7117 18.0685C17.7524 18.0151 17.8388 17.9465 17.8998 17.9134C18.004 17.8626 18.0447 17.8575 18.4844 17.8575C19.0028 17.8575 19.0892 17.8779 19.2239 18.0253C19.2621 18.0659 20.6726 20.1907 22.3602 22.75C24.0478 25.3093 26.3555 28.804 27.4891 30.5195L29.5477 33.638L29.6519 33.5694C30.5745 32.9696 31.5504 32.1156 32.3231 31.2261C33.9674 29.3377 35.0273 27.035 35.3831 24.5799C35.4873 23.8657 35.5 23.6548 35.5 22.6865C35.5 21.7181 35.4873 21.5072 35.3831 20.793C34.6765 15.9107 31.2022 11.8087 26.4902 10.2888C25.6591 10.0194 24.7747 9.83387 23.7835 9.72204C23.5395 9.69663 21.8595 9.66867 21.6486 9.689ZM26.9706 17.5525C27.0926 17.6135 27.1917 17.7305 27.2273 17.8524C27.2476 17.9185 27.2527 19.3316 27.2476 22.5162L27.24 27.0859L26.4343 25.8507L25.6261 24.6155V21.2937C25.6261 19.1461 25.6363 17.9389 25.6515 17.8804C25.6922 17.7381 25.7811 17.6262 25.9031 17.5602C26.0073 17.5068 26.0455 17.5017 26.4445 17.5017C26.8206 17.5017 26.8867 17.5068 26.9706 17.5525Z" fill="white"/>
</svg>
