<svg width="45" height="46" viewBox="0 0 45 46" fill="none" xmlns="http://www.w3.org/2000/svg">
<rect y="0.18396" width="45" height="45" rx="8" fill="#FF840A"/>
<path d="M17.2075 32.0289C17.1875 31.9935 17.1696 31.9569 17.154 31.9192C17.0461 31.6696 17.0129 31.3941 17.0584 31.1259H10.6755L20.1613 14.4329L23.2754 19.9072L24.1784 18.3094L21.4638 13.5271C21.3337 13.2821 21.1442 13.0737 20.9127 12.9209C20.6813 12.768 20.4152 12.6757 20.1388 12.6522C19.863 12.6648 19.5964 12.7546 19.3691 12.9112C19.1418 13.0679 18.9631 13.2852 18.8532 13.5384L9.24359 30.4339C9.09993 30.6725 9.01709 30.9427 9.00237 31.2208C8.98766 31.4989 9.04151 31.7763 9.15919 32.0287C9.30701 32.2618 9.51709 32.4488 9.76566 32.5686C10.0142 32.6885 10.2914 32.7364 10.5657 32.7069H18.6141C18.3397 32.7368 18.0624 32.6892 17.8137 32.5693C17.5651 32.4495 17.355 32.2622 17.2075 32.0289Z" fill="white"/>
<path d="M35.7125 30.4338L27.8161 16.5229C27.6866 16.2754 27.4968 16.0644 27.2642 15.9095C27.0317 15.7547 26.7639 15.6609 26.4855 15.6368C26.2099 15.6487 25.9433 15.7378 25.7159 15.894C25.4886 16.0502 25.3098 16.2672 25.1999 16.5201L24.1787 18.3093L25.0873 19.9071L26.4937 17.4175L34.3059 31.1258H31.3353C31.3733 31.3524 31.352 31.585 31.2734 31.801C31.2569 31.8486 31.2361 31.8948 31.2115 31.9388L31.1862 31.9894C31.0247 32.2174 30.8097 32.402 30.5599 32.5271C30.3102 32.6522 30.0335 32.7138 29.7543 32.7066H34.4016C34.6808 32.7141 34.9576 32.6526 35.2074 32.5275C35.4571 32.4024 35.6722 32.2176 35.8334 31.9894C35.9607 31.7448 36.0168 31.4693 35.9954 31.1943C35.9741 30.9193 35.876 30.6559 35.7125 30.4338Z" fill="white"/>
<path d="M31.1856 31.9896L31.2109 31.939C31.2356 31.8949 31.2563 31.8488 31.2728 31.8011C31.3514 31.5852 31.3727 31.3526 31.3347 31.126C31.2909 30.8816 31.2033 30.6471 31.0759 30.4339L25.0926 19.9073L24.1784 18.3094L23.2698 19.9073L17.289 30.4342C17.173 30.6499 17.0949 30.884 17.0584 31.1262C17.0103 31.3935 17.0406 31.6691 17.1456 31.9195C17.1612 31.9572 17.1791 31.9938 17.1991 32.0292C17.347 32.2622 17.5571 32.4492 17.8057 32.569C18.0542 32.6888 18.3314 32.7367 18.6057 32.7072H29.7453C30.0259 32.7154 30.3042 32.6542 30.5555 32.5291C30.8068 32.4039 31.0232 32.2186 31.1856 31.9896ZM24.1782 21.5051L29.6469 31.126H18.7123L24.1782 21.5051Z" fill="white"/>
</svg>
