<svg width="45" height="46" viewBox="0 0 45 46" fill="none" xmlns="http://www.w3.org/2000/svg">
<rect y="0.18396" width="45" height="45" rx="8" fill="#FF840A"/>
<path d="M15.6388 20.2689H14.3407L13.6326 23.8346H14.7849C15.5494 23.8346 16.1186 23.6932 16.4926 23.4118C16.8666 23.129 17.1182 22.659 17.2489 21.9992C17.3754 21.3664 17.3176 20.9193 17.0784 20.6594C16.8378 20.3996 16.3593 20.2689 15.6388 20.2689ZM22.5 14.184C13.3879 14.184 6 17.9893 6 22.6833C6 27.3773 13.3879 31.184 22.5 31.184C31.6121 31.184 39 27.3773 39 22.6833C39 17.9893 31.6121 14.184 22.5 14.184ZM18.0175 24.217C17.6586 24.5536 17.2269 24.8068 16.7566 24.9589C16.2946 25.1044 15.7048 25.1798 14.9897 25.1798H13.3659L12.9163 27.4433H11.0215L12.7127 18.9251H16.3565C17.4524 18.9251 18.2513 19.2065 18.7545 19.7707C19.2577 20.3336 19.409 21.12 19.2083 22.1299C19.1314 22.5295 18.9898 22.9145 18.7889 23.2704C18.5922 23.6137 18.3351 23.9302 18.0175 24.217ZM23.5505 25.1798L24.2971 21.4108C24.3838 20.9826 24.3507 20.6891 24.2036 20.5342C24.0565 20.378 23.7416 20.2999 23.259 20.2999H21.7575L20.7895 25.1811H18.9085L20.5998 16.6616H22.4794L22.0298 18.9265H23.7045C24.7591 18.9265 25.4851 19.1069 25.8853 19.4664C26.2854 19.8259 26.405 20.409 26.2469 21.2156L25.4604 25.1798H23.5505ZM33.9964 22.1299C33.9207 22.5298 33.7791 22.915 33.577 23.2704C33.3804 23.6137 33.1233 23.9302 32.8056 24.217C32.4466 24.5526 32.0159 24.806 31.5447 24.9589C31.0827 25.1044 30.4929 25.1798 29.7765 25.1798H28.154L27.7044 27.4446H25.8096L27.5009 18.9265H31.1432C32.2391 18.9265 33.038 19.2079 33.5413 19.7721C34.0445 20.3336 34.1971 21.12 33.9964 22.1299ZM30.4283 20.2689H29.1316L28.4221 23.8346H29.5744C30.3403 23.8346 30.9095 23.6932 31.2821 23.4118C31.6561 23.129 31.9077 22.659 32.0397 21.9992C32.1663 21.3664 32.1071 20.9193 31.8679 20.6594C31.6286 20.3996 31.1474 20.2689 30.4283 20.2689Z" fill="white"/>
</svg>
