<svg width="45" height="46" viewBox="0 0 45 46" fill="none" xmlns="http://www.w3.org/2000/svg">
<rect y="0.18396" width="45" height="45" rx="8" fill="#FF840A"/>
<g clip-path="url(#clip0_700_766)">
<path d="M20.0922 22.6573C20.0922 21.3274 21.1735 20.2471 22.5048 20.2471C23.8361 20.2471 24.9174 21.3274 24.9174 22.6573C24.9174 23.9872 23.8361 25.0674 22.5048 25.0674C21.1735 25.0674 20.0922 23.9872 20.0922 22.6573ZM36 22.6573C36 24.3136 34.044 25.9892 30.8912 27.031C30.7278 27.0839 30.5596 27.1367 30.3866 27.1895C30.4491 27.4343 30.502 27.6744 30.55 27.9096C30.8432 29.398 30.8912 30.7807 30.6846 31.9041C30.4635 33.0996 29.9637 33.9494 29.2428 34.3671C28.8823 34.5783 28.4546 34.684 27.9788 34.684C26.6716 34.684 25.0135 33.8966 23.2834 32.4082C23.0383 32.197 22.798 31.9762 22.5529 31.7409C22.3654 31.9233 22.178 32.0962 21.9906 32.2594C20.8467 33.258 19.6693 33.9878 18.5927 34.3671C18.0304 34.5687 17.5018 34.6696 17.0308 34.6696C16.5406 34.6696 16.108 34.5639 15.7428 34.3527C14.3635 33.5557 13.8829 31.2608 14.4644 28.2121C14.5221 27.9 14.5942 27.5784 14.6759 27.2519C14.4211 27.1799 14.176 27.1031 13.9405 27.0214C12.5036 26.5317 11.2828 25.8788 10.413 25.1346C9.49021 24.3472 9 23.4878 9 22.6573C9 21.0633 10.7494 19.5029 13.6858 18.4851C14.0078 18.3747 14.3443 18.2691 14.6903 18.1682C14.6134 17.8658 14.5461 17.5681 14.4884 17.2752C14.2049 15.8253 14.152 14.4954 14.3346 13.4248C14.5365 12.2581 15.0123 11.4275 15.7188 11.0194C17.1509 10.1889 19.5876 11.0434 22.0675 13.2471C22.2164 13.3816 22.3654 13.5208 22.5192 13.6648C22.7451 13.4488 22.971 13.2423 23.1921 13.0455C24.307 12.0757 25.4365 11.3651 26.4553 10.9906C27.5655 10.5825 28.5267 10.5825 29.2284 10.9858C30.6654 11.8116 31.1412 14.3466 30.4683 17.5921C30.4299 17.789 30.3818 17.9858 30.3337 18.1875C30.6317 18.2739 30.9201 18.3651 31.1988 18.4611C32.5974 18.9412 33.7748 19.5654 34.6111 20.2567C35.5194 21.0153 36 21.8459 36 22.6573ZM23.3266 14.4858C24.0956 15.3116 24.8645 16.2718 25.6047 17.3281C26.8783 17.4481 28.0942 17.6401 29.2188 17.8994C29.262 17.7169 29.3053 17.5393 29.3389 17.3617C29.9685 14.3034 29.4254 12.431 28.6517 11.9845C28.2576 11.7588 27.6184 11.7876 26.8494 12.0709C25.9603 12.3973 24.9559 13.0359 23.9466 13.9145C23.7399 14.0921 23.5333 14.2842 23.3266 14.4858ZM16.1032 26.4213C16.8722 26.5893 17.7036 26.7238 18.5879 26.8198C18.2996 26.3685 18.016 25.9076 17.7421 25.4371C17.4729 24.9762 17.2182 24.5105 16.9779 24.0448C16.6367 24.8513 16.3387 25.6531 16.1032 26.4213ZM17.7421 19.935C18.0112 19.4741 18.2852 19.018 18.5687 18.5763C17.7132 18.682 16.8914 18.826 16.1177 18.994C16.3532 19.7526 16.6415 20.5352 16.9779 21.3322C17.2182 20.8665 17.4729 20.4007 17.7421 19.935ZM18.7417 24.861C19.1598 25.5811 19.602 26.2821 20.0634 26.9494C20.8467 26.9974 21.6638 27.0262 22.5048 27.0262C23.3507 27.0262 24.1773 26.9974 24.9751 26.9398C25.4124 26.2821 25.845 25.5859 26.2727 24.8513C26.6956 24.1216 27.0849 23.387 27.4357 22.6669C27.0849 21.9611 26.7004 21.2409 26.2727 20.5064C25.8546 19.7814 25.4172 19.0901 24.9703 18.4275C24.1677 18.3651 23.341 18.3363 22.5048 18.3363C21.6782 18.3363 20.8515 18.3699 20.0441 18.4323C19.5924 19.0949 19.1502 19.791 18.7369 20.5112C18.3236 21.2265 17.9391 21.9563 17.5883 22.6861C17.9391 23.411 18.3236 24.1408 18.7417 24.861ZM26.4457 26.8006C27.3348 26.695 28.1807 26.5509 28.964 26.3733C28.7237 25.6195 28.421 24.8225 28.0557 23.9968C27.8106 24.4721 27.5463 24.9522 27.2723 25.4275C26.9984 25.898 26.7245 26.3589 26.4457 26.8006ZM28.9064 19.0084C28.1278 18.8308 27.3012 18.6868 26.4409 18.5763C26.7197 19.0132 26.9936 19.4645 27.2627 19.9254C27.5367 20.4007 27.7962 20.8713 28.0413 21.3322C28.3825 20.5352 28.6757 19.7526 28.9064 19.0084ZM20.914 17.2224C21.4379 17.1984 21.9665 17.184 22.5 17.184C23.0431 17.184 23.5765 17.1984 24.11 17.2224C23.5862 16.5263 23.0527 15.8829 22.5192 15.3068C21.9761 15.8877 21.4379 16.5311 20.914 17.2224ZM15.6226 17.0544C15.6755 17.3281 15.738 17.6017 15.8101 17.885C16.9299 17.6305 18.1458 17.4433 19.4194 17.3233C20.1595 16.2814 20.9333 15.326 21.7166 14.481C21.5821 14.3514 21.4475 14.2266 21.3129 14.1113C18.9676 12.0373 17.074 11.5716 16.3003 12.0181C15.9062 12.2437 15.613 12.815 15.4737 13.6216C15.3151 14.553 15.3631 15.7437 15.6226 17.0544ZM16.3147 22.6909C15.7812 21.529 15.3343 20.3815 14.9979 19.2821C14.6759 19.3733 14.3683 19.4693 14.0703 19.575C11.3693 20.516 10.1582 21.8027 10.1582 22.6621C10.1582 23.5551 11.4607 24.9618 14.3154 25.9364C14.5317 26.0084 14.7528 26.0804 14.9834 26.1476C15.3247 25.029 15.7716 23.8671 16.3147 22.6909ZM21.7455 30.9199C20.9525 30.0749 20.1739 29.1099 19.429 28.0585C18.1121 27.9528 16.8914 27.7752 15.7957 27.5304C15.7188 27.8376 15.6563 28.1353 15.5986 28.4234C15.0651 31.232 15.5794 32.922 16.3195 33.3493C17.0933 33.7958 18.9628 33.3733 21.236 31.3856C21.3994 31.2416 21.5724 31.0831 21.7455 30.9199ZM24.134 28.1401C23.6006 28.1641 23.0527 28.1785 22.5048 28.1785C21.9665 28.1785 21.4427 28.1689 20.9284 28.1497C21.4619 28.8506 22.005 29.4988 22.5529 30.0893C23.0767 29.5084 23.6102 28.8603 24.134 28.1401ZM29.4254 28.1353C29.3822 27.9192 29.3341 27.7032 29.2764 27.4775C28.1614 27.7368 26.9311 27.924 25.6239 28.0393C24.879 29.1195 24.1148 30.0845 23.3603 30.9103C23.5862 31.1312 23.8168 31.3376 24.0379 31.5296C26.2054 33.3925 27.926 33.7958 28.6709 33.3637C29.4446 32.922 30.0117 31.0928 29.4254 28.1353ZM34.8514 22.6573C34.8514 22.2012 34.5053 21.6634 33.8758 21.1401C33.1501 20.5352 32.0927 19.9831 30.8288 19.5462C30.5692 19.4597 30.3001 19.3733 30.0262 19.2917C29.6946 20.3623 29.2524 21.5002 28.7093 22.6621C29.2764 23.8575 29.7378 25.005 30.0742 26.0756C30.228 26.0276 30.3818 25.9796 30.5308 25.9316C33.4961 24.9522 34.8514 23.5455 34.8514 22.6573Z" fill="white"/>
</g>
<defs>
<clipPath id="clip0_700_766">
<rect width="27" height="24" fill="white" transform="translate(9 10.684)"/>
</clipPath>
</defs>
</svg>
