<svg width="41" height="42" viewBox="0 0 41 42" fill="none" xmlns="http://www.w3.org/2000/svg">
<rect x="0.548828" y="0.0151367" width="39.5484" height="41.5484" rx="5.3871" fill="#FAEEE2"/>
<path d="M15.3232 19.7893V15.7893C15.3232 14.4632 15.85 13.1915 16.7877 12.2538C17.7254 11.3161 18.9972 10.7893 20.3232 10.7893C21.6493 10.7893 22.9211 11.3161 23.8588 12.2538C24.7965 13.1915 25.3232 14.4632 25.3232 15.7893V19.7893M13.3232 19.7893H27.3232C28.4278 19.7893 29.3232 20.6847 29.3232 21.7893V28.7893C29.3232 29.8939 28.4278 30.7893 27.3232 30.7893H13.3232C12.2187 30.7893 11.3232 29.8939 11.3232 28.7893V21.7893C11.3232 20.6847 12.2187 19.7893 13.3232 19.7893Z" stroke="#FF840A" stroke-width="2" stroke-linecap="round" stroke-linejoin="round"/>
</svg>
