<svg width="42" height="42" viewBox="0 0 42 42" fill="none" xmlns="http://www.w3.org/2000/svg">
<rect x="0.548828" y="0.756958" width="40.9419" height="40.9419" rx="5.3871" fill="#FAEEE2"/>
<path d="M15.6329 30.9247C16.7759 30.9247 17.8721 30.4706 18.6803 29.6624C19.4885 28.8542 19.9426 27.758 19.9426 26.615V13.686C19.9426 13.1145 19.7156 12.5664 19.3115 12.1623C18.9073 11.7582 18.3593 11.5311 17.7878 11.5311H13.4781C12.9066 11.5311 12.3585 11.7582 11.9544 12.1623C11.5503 12.5664 11.3232 13.1145 11.3232 13.686V26.615C11.3232 27.758 11.7773 28.8542 12.5855 29.6624C13.3937 30.4706 14.4899 30.9247 15.6329 30.9247ZM15.6329 30.9247H28.562C29.1335 30.9247 29.6815 30.6976 30.0857 30.2935C30.4898 29.8894 30.7168 29.3413 30.7168 28.7698V24.4602C30.7168 23.8887 30.4898 23.3406 30.0857 22.9365C29.6815 22.5323 29.1335 22.3053 28.562 22.3053H26.0839M15.6329 26.615H15.6437M19.9426 16.9182L22.4207 14.4402C22.6613 14.1987 22.9472 14.0072 23.2621 13.8767C23.5769 13.7462 23.9145 13.6792 24.2553 13.6796C24.5962 13.68 24.9336 13.7478 25.2481 13.8791C25.5627 14.0103 25.8482 14.2025 26.0882 14.4445L28.131 16.4873C28.3794 16.7262 28.5776 17.0125 28.7138 17.3292C28.85 17.6458 28.9215 17.9866 28.9241 18.3313C28.9267 18.676 28.8604 19.0178 28.729 19.3365C28.5976 19.6552 28.4038 19.9444 28.159 20.1871L18.7574 29.6318" stroke="#FF840A" stroke-width="2.15484" stroke-linecap="round" stroke-linejoin="round"/>
</svg>
