<svg width="251" height="156" viewBox="0 0 251 156" fill="none" xmlns="http://www.w3.org/2000/svg">
<rect x="6.37891" y="9.92389" width="238.137" height="136.853" rx="7.6902" fill="#D9D9D9"/>
<rect x="33.9738" y="28.4709" width="182.949" height="99.7589" rx="8.59493" stroke="#9E9E9E" stroke-width="0.904729"/>
<path d="M68.8068 96.8972C65.314 96.8972 62.3302 95.6801 59.8553 93.2458C57.3804 90.8115 56.1422 87.8363 56.1406 84.3201C56.1406 81.3062 57.0426 78.6208 58.8466 76.2638C60.6506 73.9068 63.0111 72.3998 65.9281 71.7429C66.8877 68.1881 68.8068 65.3095 71.6855 63.107C74.5642 60.9046 77.8267 59.8033 81.473 59.8033C85.9638 59.8033 89.7736 61.3783 92.9026 64.5282C96.0315 67.6781 97.5952 71.5127 97.5937 76.0319C100.242 76.341 102.44 77.491 104.187 79.4817C105.934 81.4724 106.807 83.8 106.805 86.4646C106.805 89.3625 105.798 91.8262 103.784 93.8555C101.77 95.8849 99.3224 96.8988 96.4422 96.8972H68.8068ZM68.8068 92.2605H96.4422C98.0543 92.2605 99.4168 91.7002 100.53 90.5797C101.643 89.4591 102.2 88.0874 102.2 86.4646C102.2 84.8417 101.643 83.47 100.53 82.3495C99.4168 81.2289 98.0543 80.6687 96.4422 80.6687H92.9878V76.0319C92.9878 72.8248 91.8647 70.0907 89.6186 67.8295C87.3724 65.5684 84.6573 64.4385 81.473 64.4401C78.2888 64.4416 75.5737 65.5722 73.3275 67.8319C71.0814 70.0915 69.9583 72.8248 69.9583 76.0319H68.8068C66.5807 76.0319 64.6807 76.824 63.107 78.4083C61.5334 79.9925 60.7465 81.9051 60.7465 84.1462C60.7465 86.3873 61.5334 88.3 63.107 89.8842C64.6807 91.4684 66.5807 92.2605 68.8068 92.2605Z" fill="url(#paint0_linear_709_342)"/>
<path d="M142.357 110.629V117.635H141.318V114.478H137.663V117.635H136.619V110.629H137.663V113.722H141.318V110.629H142.357ZM147.026 114.605C147.026 114.416 146.998 114.242 146.943 114.083C146.891 113.924 146.813 113.785 146.709 113.668C146.604 113.551 146.478 113.46 146.328 113.395C146.178 113.33 146.006 113.298 145.811 113.298C145.411 113.298 145.095 113.413 144.864 113.644C144.637 113.875 144.492 114.195 144.43 114.605H147.026ZM147.811 116.927C147.694 117.064 147.559 117.183 147.406 117.283C147.253 117.381 147.091 117.461 146.918 117.523C146.746 117.584 146.567 117.63 146.382 117.659C146.2 117.688 146.019 117.703 145.84 117.703C145.499 117.703 145.182 117.646 144.889 117.532C144.599 117.415 144.347 117.246 144.133 117.025C143.921 116.801 143.755 116.524 143.635 116.196C143.518 115.864 143.459 115.483 143.459 115.054C143.459 114.709 143.513 114.389 143.62 114.093C143.728 113.794 143.881 113.533 144.079 113.312C144.281 113.091 144.526 112.917 144.816 112.79C145.105 112.663 145.43 112.6 145.791 112.6C146.094 112.6 146.372 112.65 146.626 112.751C146.883 112.849 147.104 112.992 147.289 113.181C147.474 113.369 147.619 113.602 147.723 113.878C147.831 114.155 147.884 114.47 147.884 114.825C147.884 114.971 147.868 115.07 147.836 115.122C147.803 115.171 147.743 115.195 147.655 115.195H144.406C144.416 115.491 144.458 115.75 144.533 115.971C144.607 116.189 144.71 116.371 144.84 116.518C144.973 116.664 145.131 116.773 145.313 116.844C145.495 116.916 145.699 116.952 145.923 116.952C146.134 116.952 146.317 116.927 146.469 116.879C146.626 116.83 146.759 116.778 146.87 116.722C146.983 116.664 147.078 116.61 147.153 116.561C147.231 116.513 147.299 116.488 147.357 116.488C147.435 116.488 147.496 116.518 147.538 116.576L147.811 116.927ZM147.299 110.551L146.143 111.81C146.094 111.865 146.047 111.904 146.001 111.927C145.956 111.946 145.895 111.956 145.821 111.956H145.245L145.967 110.775C146.013 110.701 146.061 110.645 146.113 110.609C146.169 110.57 146.253 110.551 146.367 110.551H147.299ZM149.858 116.415C150.014 116.62 150.183 116.763 150.366 116.844C150.548 116.926 150.746 116.966 150.961 116.966C151.403 116.966 151.743 116.809 151.98 116.493C152.221 116.178 152.341 115.701 152.341 115.064C152.341 114.475 152.236 114.044 152.024 113.771C151.813 113.494 151.514 113.356 151.127 113.356C150.853 113.356 150.616 113.418 150.414 113.542C150.216 113.665 150.031 113.841 149.858 114.068V116.415ZM149.858 113.361C150.063 113.133 150.296 112.95 150.556 112.81C150.816 112.67 151.112 112.6 151.444 112.6C151.733 112.6 151.993 112.657 152.224 112.771C152.459 112.881 152.657 113.042 152.82 113.254C152.982 113.462 153.107 113.716 153.195 114.015C153.283 114.314 153.327 114.652 153.327 115.03C153.327 115.43 153.277 115.794 153.176 116.122C153.078 116.451 152.937 116.732 152.751 116.966C152.569 117.201 152.346 117.383 152.083 117.513C151.819 117.64 151.523 117.703 151.195 117.703C151.036 117.703 150.889 117.687 150.756 117.654C150.623 117.625 150.499 117.581 150.385 117.523C150.275 117.464 150.172 117.392 150.078 117.308C149.983 117.223 149.894 117.127 149.809 117.02L149.766 117.435C149.739 117.568 149.658 117.635 149.522 117.635H148.907V110.434H149.858V113.361ZM157.669 114.605C157.669 114.416 157.642 114.242 157.586 114.083C157.534 113.924 157.456 113.785 157.352 113.668C157.248 113.551 157.121 113.46 156.972 113.395C156.822 113.33 156.65 113.298 156.454 113.298C156.054 113.298 155.739 113.413 155.508 113.644C155.28 113.875 155.136 114.195 155.074 114.605H157.669ZM158.455 116.927C158.338 117.064 158.203 117.183 158.05 117.283C157.897 117.381 157.734 117.461 157.562 117.523C157.39 117.584 157.211 117.63 157.025 117.659C156.843 117.688 156.663 117.703 156.484 117.703C156.142 117.703 155.825 117.646 155.532 117.532C155.243 117.415 154.991 117.246 154.776 117.025C154.565 116.801 154.399 116.524 154.279 116.196C154.161 115.864 154.103 115.483 154.103 115.054C154.103 114.709 154.157 114.389 154.264 114.093C154.371 113.794 154.524 113.533 154.722 113.312C154.924 113.091 155.17 112.917 155.459 112.79C155.749 112.663 156.074 112.6 156.435 112.6C156.737 112.6 157.015 112.65 157.269 112.751C157.526 112.849 157.747 112.992 157.933 113.181C158.118 113.369 158.263 113.602 158.367 113.878C158.474 114.155 158.528 114.47 158.528 114.825C158.528 114.971 158.512 115.07 158.479 115.122C158.447 115.171 158.386 115.195 158.299 115.195H155.049C155.059 115.491 155.101 115.75 155.176 115.971C155.251 116.189 155.353 116.371 155.484 116.518C155.617 116.664 155.775 116.773 155.957 116.844C156.139 116.916 156.342 116.952 156.567 116.952C156.778 116.952 156.96 116.927 157.113 116.879C157.269 116.83 157.403 116.778 157.513 116.722C157.627 116.664 157.721 116.61 157.796 116.561C157.874 116.513 157.942 116.488 158.001 116.488C158.079 116.488 158.139 116.518 158.181 116.576L158.455 116.927ZM160.448 113.629C160.607 113.304 160.799 113.049 161.024 112.863C161.248 112.678 161.518 112.585 161.834 112.585C161.941 112.585 162.042 112.598 162.136 112.624C162.234 112.647 162.318 112.683 162.39 112.732L162.326 113.449C162.304 113.537 162.25 113.581 162.165 113.581C162.12 113.581 162.052 113.572 161.96 113.556C161.869 113.537 161.772 113.527 161.668 113.527C161.515 113.527 161.38 113.55 161.263 113.595C161.146 113.637 161.04 113.703 160.946 113.79C160.855 113.875 160.773 113.981 160.702 114.107C160.63 114.231 160.564 114.373 160.502 114.532V117.635H159.55V112.678H160.097C160.201 112.678 160.271 112.698 160.307 112.737C160.346 112.772 160.373 112.837 160.39 112.932L160.448 113.629ZM164.77 115.161C164.939 115.161 165.087 115.138 165.214 115.093C165.344 115.047 165.451 114.984 165.536 114.903C165.624 114.818 165.689 114.717 165.731 114.6C165.777 114.483 165.8 114.355 165.8 114.215C165.8 113.929 165.712 113.701 165.536 113.532C165.364 113.359 165.108 113.273 164.77 113.273C164.435 113.273 164.18 113.359 164.004 113.532C163.832 113.701 163.746 113.929 163.746 114.215C163.746 114.355 163.767 114.483 163.809 114.6C163.855 114.714 163.92 114.813 164.004 114.898C164.092 114.979 164.199 115.044 164.326 115.093C164.456 115.138 164.604 115.161 164.77 115.161ZM166.287 117.893C166.287 117.776 166.255 117.684 166.19 117.615C166.125 117.544 166.035 117.488 165.921 117.449C165.811 117.407 165.681 117.378 165.531 117.362C165.382 117.342 165.224 117.327 165.058 117.318C164.895 117.308 164.728 117.3 164.555 117.293C164.383 117.283 164.217 117.267 164.058 117.244C163.889 117.329 163.749 117.431 163.638 117.552C163.531 117.672 163.477 117.814 163.477 117.976C163.477 118.08 163.503 118.178 163.555 118.269C163.611 118.36 163.694 118.438 163.804 118.503C163.918 118.571 164.059 118.624 164.229 118.659C164.401 118.698 164.606 118.718 164.843 118.718C165.077 118.718 165.284 118.697 165.463 118.654C165.642 118.615 165.791 118.558 165.912 118.484C166.035 118.412 166.128 118.326 166.19 118.225C166.255 118.124 166.287 118.014 166.287 117.893ZM167.253 112.863V113.22C167.253 113.337 167.18 113.41 167.034 113.439L166.502 113.517C166.548 113.618 166.583 113.725 166.609 113.839C166.635 113.95 166.648 114.067 166.648 114.19C166.648 114.434 166.601 114.656 166.507 114.854C166.413 115.049 166.282 115.217 166.117 115.356C165.951 115.496 165.752 115.604 165.521 115.678C165.294 115.753 165.043 115.791 164.77 115.791C164.546 115.791 164.336 115.766 164.141 115.717C164.043 115.776 163.968 115.841 163.916 115.913C163.868 115.981 163.843 116.049 163.843 116.117C163.843 116.231 163.89 116.316 163.985 116.371C164.082 116.426 164.207 116.467 164.36 116.493C164.516 116.516 164.694 116.531 164.892 116.537C165.094 116.544 165.297 116.555 165.502 116.571C165.71 116.584 165.913 116.61 166.112 116.649C166.313 116.685 166.491 116.745 166.644 116.83C166.8 116.911 166.925 117.025 167.019 117.171C167.117 117.314 167.166 117.501 167.166 117.732C167.166 117.947 167.112 118.155 167.005 118.357C166.9 118.558 166.748 118.737 166.546 118.893C166.344 119.05 166.099 119.175 165.809 119.269C165.52 119.363 165.191 119.411 164.824 119.411C164.456 119.411 164.136 119.375 163.863 119.303C163.593 119.232 163.367 119.136 163.185 119.015C163.006 118.895 162.871 118.755 162.78 118.596C162.692 118.436 162.648 118.271 162.648 118.098C162.648 117.858 162.723 117.654 162.872 117.488C163.022 117.319 163.228 117.188 163.492 117.093C163.349 117.028 163.235 116.94 163.15 116.83C163.066 116.716 163.024 116.566 163.024 116.381C163.024 116.309 163.037 116.236 163.063 116.161C163.089 116.083 163.128 116.007 163.18 115.932C163.235 115.854 163.302 115.781 163.38 115.713C163.461 115.644 163.554 115.582 163.658 115.527C163.414 115.391 163.222 115.21 163.082 114.986C162.942 114.758 162.872 114.493 162.872 114.19C162.872 113.946 162.919 113.727 163.014 113.532C163.108 113.337 163.238 113.169 163.404 113.029C163.573 112.889 163.773 112.782 164.004 112.707C164.238 112.632 164.494 112.595 164.77 112.595C165.199 112.595 165.569 112.685 165.878 112.863H167.253ZM171.333 114.605C171.333 114.416 171.306 114.242 171.25 114.083C171.198 113.924 171.12 113.785 171.016 113.668C170.912 113.551 170.785 113.46 170.636 113.395C170.486 113.33 170.314 113.298 170.119 113.298C169.719 113.298 169.403 113.413 169.172 113.644C168.944 113.875 168.8 114.195 168.738 114.605H171.333ZM172.119 116.927C172.002 117.064 171.867 117.183 171.714 117.283C171.561 117.381 171.398 117.461 171.226 117.523C171.054 117.584 170.875 117.63 170.689 117.659C170.507 117.688 170.327 117.703 170.148 117.703C169.806 117.703 169.489 117.646 169.197 117.532C168.907 117.415 168.655 117.246 168.44 117.025C168.229 116.801 168.063 116.524 167.943 116.196C167.826 115.864 167.767 115.483 167.767 115.054C167.767 114.709 167.821 114.389 167.928 114.093C168.035 113.794 168.188 113.533 168.387 113.312C168.588 113.091 168.834 112.917 169.123 112.79C169.413 112.663 169.738 112.6 170.099 112.6C170.402 112.6 170.68 112.65 170.933 112.751C171.19 112.849 171.411 112.992 171.597 113.181C171.782 113.369 171.927 113.602 172.031 113.878C172.138 114.155 172.192 114.47 172.192 114.825C172.192 114.971 172.176 115.07 172.143 115.122C172.111 115.171 172.051 115.195 171.963 115.195H168.714C168.723 115.491 168.766 115.75 168.84 115.971C168.915 116.189 169.018 116.371 169.148 116.518C169.281 116.664 169.439 116.773 169.621 116.844C169.803 116.916 170.006 116.952 170.231 116.952C170.442 116.952 170.624 116.927 170.777 116.879C170.933 116.83 171.067 116.778 171.177 116.722C171.291 116.664 171.385 116.61 171.46 116.561C171.538 116.513 171.607 116.488 171.665 116.488C171.743 116.488 171.803 116.518 171.846 116.576L172.119 116.927ZM173.215 117.635V112.678H173.785C173.919 112.678 174.002 112.741 174.034 112.868L174.103 113.342C174.285 113.124 174.486 112.946 174.707 112.81C174.932 112.67 175.194 112.6 175.493 112.6C175.821 112.6 176.088 112.691 176.293 112.873C176.498 113.052 176.648 113.296 176.742 113.605C176.813 113.429 176.906 113.278 177.02 113.151C177.134 113.024 177.261 112.92 177.401 112.839C177.54 112.758 177.688 112.698 177.844 112.658C178.004 112.619 178.165 112.6 178.327 112.6C178.591 112.6 178.825 112.642 179.03 112.727C179.238 112.808 179.414 112.928 179.557 113.088C179.7 113.247 179.809 113.444 179.884 113.678C179.959 113.912 179.996 114.179 179.996 114.478V117.635H179.04V114.478C179.04 114.107 178.958 113.828 178.796 113.639C178.636 113.45 178.402 113.356 178.093 113.356C177.957 113.356 177.827 113.381 177.703 113.429C177.579 113.475 177.47 113.545 177.376 113.639C177.285 113.733 177.212 113.851 177.157 113.99C177.105 114.13 177.079 114.293 177.079 114.478V117.635H176.122V114.478C176.122 114.094 176.046 113.811 175.893 113.629C175.74 113.447 175.516 113.356 175.22 113.356C175.015 113.356 174.825 113.41 174.649 113.517C174.473 113.624 174.312 113.771 174.166 113.956V117.635H173.215ZM184.559 114.605C184.559 114.416 184.532 114.242 184.476 114.083C184.424 113.924 184.346 113.785 184.242 113.668C184.138 113.551 184.011 113.46 183.862 113.395C183.712 113.33 183.54 113.298 183.344 113.298C182.944 113.298 182.629 113.413 182.398 113.644C182.17 113.875 182.026 114.195 181.964 114.605H184.559ZM185.345 116.927C185.228 117.064 185.093 117.183 184.94 117.283C184.787 117.381 184.624 117.461 184.452 117.523C184.28 117.584 184.101 117.63 183.915 117.659C183.733 117.688 183.553 117.703 183.374 117.703C183.032 117.703 182.715 117.646 182.422 117.532C182.133 117.415 181.881 117.246 181.666 117.025C181.455 116.801 181.289 116.524 181.169 116.196C181.051 115.864 180.993 115.483 180.993 115.054C180.993 114.709 181.047 114.389 181.154 114.093C181.261 113.794 181.414 113.533 181.613 113.312C181.814 113.091 182.06 112.917 182.349 112.79C182.639 112.663 182.964 112.6 183.325 112.6C183.627 112.6 183.905 112.65 184.159 112.751C184.416 112.849 184.637 112.992 184.823 113.181C185.008 113.369 185.153 113.602 185.257 113.878C185.364 114.155 185.418 114.47 185.418 114.825C185.418 114.971 185.402 115.07 185.369 115.122C185.337 115.171 185.276 115.195 185.189 115.195H181.939C181.949 115.491 181.991 115.75 182.066 115.971C182.141 116.189 182.243 116.371 182.374 116.518C182.507 116.664 182.665 116.773 182.847 116.844C183.029 116.916 183.232 116.952 183.457 116.952C183.668 116.952 183.85 116.927 184.003 116.879C184.159 116.83 184.293 116.778 184.403 116.722C184.517 116.664 184.611 116.61 184.686 116.561C184.764 116.513 184.832 116.488 184.891 116.488C184.969 116.488 185.029 116.518 185.072 116.576L185.345 116.927ZM187.333 113.366C187.441 113.252 187.553 113.148 187.67 113.054C187.787 112.959 187.911 112.88 188.041 112.815C188.174 112.746 188.315 112.694 188.465 112.658C188.618 112.619 188.781 112.6 188.953 112.6C189.226 112.6 189.465 112.645 189.67 112.737C189.878 112.828 190.052 112.956 190.192 113.122C190.332 113.285 190.438 113.481 190.509 113.712C190.581 113.943 190.617 114.199 190.617 114.478V117.635H189.66V114.478C189.66 114.124 189.579 113.849 189.416 113.654C189.254 113.455 189.005 113.356 188.67 113.356C188.426 113.356 188.197 113.415 187.982 113.532C187.771 113.646 187.574 113.802 187.392 114V117.635H186.44V112.678H187.011C187.145 112.678 187.228 112.741 187.26 112.868L187.333 113.366ZM193.385 117.713C192.985 117.713 192.676 117.601 192.458 117.376C192.244 117.152 192.136 116.831 192.136 116.415V113.449H191.56C191.505 113.449 191.458 113.433 191.419 113.4C191.383 113.364 191.365 113.312 191.365 113.244V112.859L192.17 112.746L192.385 111.268C192.398 111.213 192.422 111.17 192.458 111.141C192.497 111.109 192.546 111.092 192.605 111.092H193.088V112.756H194.493V113.449H193.088V116.352C193.088 116.547 193.135 116.693 193.229 116.791C193.327 116.885 193.45 116.932 193.6 116.932C193.688 116.932 193.762 116.921 193.824 116.898C193.889 116.875 193.945 116.851 193.99 116.825C194.036 116.796 194.075 116.77 194.107 116.747C194.14 116.724 194.169 116.713 194.195 116.713C194.228 116.713 194.252 116.721 194.268 116.737C194.288 116.75 194.307 116.773 194.327 116.805L194.61 117.264C194.454 117.407 194.268 117.518 194.054 117.596C193.839 117.674 193.616 117.713 193.385 117.713Z" fill="#9E9E9E"/>
<path d="M143.986 75.3445V82.3503H143.079V77.3643C143.079 77.2895 143.08 77.2098 143.084 77.1253C143.09 77.0407 143.097 76.9545 143.103 76.8667L140.771 81.1453C140.69 81.3047 140.565 81.3844 140.396 81.3844H140.249C140.08 81.3844 139.956 81.3047 139.878 81.1453L137.502 76.852C137.522 77.0342 137.532 77.2049 137.532 77.3643V82.3503H136.619V75.3445H137.39C137.481 75.3445 137.551 75.3543 137.6 75.3738C137.652 75.3901 137.701 75.4389 137.746 75.5202L140.088 79.7158C140.134 79.8004 140.176 79.8899 140.215 79.9842C140.254 80.0785 140.291 80.1728 140.327 80.2671C140.396 80.0752 140.475 79.8899 140.566 79.711L142.864 75.5202C142.906 75.4389 142.952 75.3901 143.001 75.3738C143.053 75.3543 143.124 75.3445 143.215 75.3445H143.986ZM148.045 80.15C147.658 80.1631 147.329 80.194 147.06 80.2427C146.79 80.2883 146.57 80.3501 146.401 80.4281C146.232 80.5062 146.11 80.5989 146.035 80.7062C145.96 80.8103 145.923 80.9274 145.923 81.0575C145.923 81.1811 145.942 81.2884 145.981 81.3795C146.024 81.4673 146.079 81.5405 146.147 81.599C146.219 81.6543 146.302 81.695 146.396 81.721C146.49 81.747 146.593 81.76 146.703 81.76C146.85 81.76 146.983 81.7454 147.103 81.7161C147.227 81.6868 147.342 81.6462 147.45 81.5941C147.557 81.5389 147.66 81.4722 147.757 81.3941C147.855 81.3161 147.951 81.2266 148.045 81.1258V80.15ZM145.254 78.0864C145.531 77.8229 145.83 77.6261 146.152 77.496C146.477 77.3659 146.833 77.3009 147.22 77.3009C147.503 77.3009 147.754 77.348 147.972 77.4424C148.19 77.5334 148.373 77.6619 148.523 77.8278C148.673 77.9937 148.785 78.1921 148.86 78.423C148.938 78.6539 148.977 78.9092 148.977 79.1889V82.3503H148.552C148.458 82.3503 148.387 82.3357 148.338 82.3064C148.289 82.2739 148.25 82.2154 148.221 82.1308L148.118 81.6966C147.991 81.8137 147.866 81.9178 147.743 82.0088C147.619 82.0966 147.489 82.1731 147.352 82.2381C147.219 82.2999 147.076 82.3471 146.923 82.3796C146.77 82.4121 146.601 82.4284 146.416 82.4284C146.22 82.4284 146.037 82.4024 145.864 82.3503C145.695 82.295 145.547 82.2121 145.42 82.1015C145.293 81.9909 145.193 81.8527 145.118 81.6868C145.046 81.521 145.01 81.3274 145.01 81.1063C145.01 80.9111 145.062 80.7241 145.167 80.5452C145.274 80.3631 145.446 80.2005 145.684 80.0574C145.924 79.9142 146.237 79.7972 146.62 79.7061C147.007 79.615 147.482 79.563 148.045 79.55V79.1889C148.045 78.8149 147.965 78.5352 147.806 78.3498C147.647 78.1644 147.412 78.0717 147.103 78.0717C146.895 78.0717 146.72 78.0977 146.577 78.1498C146.437 78.2018 146.315 78.2604 146.211 78.3254C146.11 78.3872 146.02 78.4441 145.942 78.4962C145.867 78.5482 145.789 78.5742 145.708 78.5742C145.643 78.5742 145.586 78.5563 145.537 78.5206C145.492 78.4848 145.454 78.4425 145.425 78.3937L145.254 78.0864ZM151.246 77.3936V82.3503H150.294V77.3936H151.246ZM151.426 75.8617C151.426 75.9495 151.408 76.0341 151.373 76.1154C151.337 76.1934 151.288 76.2634 151.226 76.3251C151.168 76.3837 151.098 76.4309 151.016 76.4666C150.935 76.4992 150.85 76.5154 150.763 76.5154C150.675 76.5154 150.592 76.4992 150.514 76.4666C150.436 76.4309 150.366 76.3837 150.304 76.3251C150.246 76.2634 150.198 76.1934 150.163 76.1154C150.13 76.0341 150.114 75.9495 150.114 75.8617C150.114 75.7706 150.13 75.686 150.163 75.608C150.198 75.5267 150.246 75.4567 150.304 75.3982C150.366 75.3364 150.436 75.2892 150.514 75.2567C150.592 75.2209 150.675 75.203 150.763 75.203C150.85 75.203 150.935 75.2209 151.016 75.2567C151.098 75.2892 151.168 75.3364 151.226 75.3982C151.288 75.4567 151.337 75.5267 151.373 75.608C151.408 75.686 151.426 75.7706 151.426 75.8617ZM153.516 78.0815C153.623 77.9676 153.735 77.8636 153.852 77.7692C153.97 77.6749 154.093 77.5952 154.223 77.5302C154.357 77.4619 154.498 77.4098 154.648 77.3741C154.801 77.335 154.963 77.3155 155.136 77.3155C155.409 77.3155 155.648 77.3611 155.853 77.4521C156.061 77.5432 156.235 77.6717 156.375 77.8375C156.515 78.0002 156.62 78.1969 156.692 78.4279C156.763 78.6588 156.799 78.9141 156.799 79.1938V82.3503H155.843V79.1938C155.843 78.8393 155.762 78.5645 155.599 78.3693C155.436 78.1709 155.188 78.0717 154.853 78.0717C154.609 78.0717 154.379 78.1303 154.165 78.2474C153.953 78.3612 153.757 78.5173 153.574 78.7157V82.3503H152.623V77.3936H153.194C153.327 77.3936 153.41 77.457 153.443 77.5839L153.516 78.0815ZM159.568 82.4284C159.168 82.4284 158.859 82.3162 158.641 82.0918C158.426 81.8674 158.319 81.547 158.319 81.1307V78.1644H157.743C157.688 78.1644 157.641 78.1482 157.602 78.1156C157.566 78.0799 157.548 78.0278 157.548 77.9595V77.5741L158.353 77.4619L158.568 75.9836C158.581 75.9283 158.605 75.8861 158.641 75.8568C158.68 75.8243 158.729 75.808 158.787 75.808H159.27V77.4716H160.675V78.1644H159.27V81.0672C159.27 81.2624 159.317 81.4088 159.412 81.5063C159.509 81.6006 159.633 81.6478 159.782 81.6478C159.87 81.6478 159.945 81.6364 160.007 81.6137C160.072 81.5909 160.127 81.5665 160.173 81.5405C160.218 81.5112 160.257 81.4852 160.29 81.4624C160.322 81.4397 160.352 81.4283 160.378 81.4283C160.41 81.4283 160.435 81.4364 160.451 81.4527C160.47 81.4657 160.49 81.4884 160.509 81.521L160.792 81.9796C160.636 82.1227 160.451 82.2333 160.236 82.3113C160.021 82.3894 159.799 82.4284 159.568 82.4284ZM164.806 79.3207C164.806 79.132 164.779 78.958 164.723 78.7986C164.671 78.6393 164.593 78.501 164.489 78.384C164.385 78.2669 164.258 78.1758 164.109 78.1108C163.959 78.0457 163.787 78.0132 163.591 78.0132C163.191 78.0132 162.876 78.1286 162.645 78.3596C162.417 78.5905 162.273 78.9109 162.211 79.3207H164.806ZM165.592 81.6429C165.475 81.7795 165.34 81.8982 165.187 81.9991C165.034 82.0966 164.871 82.1763 164.699 82.2381C164.527 82.2999 164.348 82.3455 164.162 82.3747C163.98 82.404 163.8 82.4186 163.621 82.4186C163.279 82.4186 162.962 82.3617 162.669 82.2479C162.38 82.1308 162.128 81.9617 161.913 81.7405C161.702 81.5161 161.536 81.2396 161.416 80.9111C161.298 80.5794 161.24 80.1988 161.24 79.7695C161.24 79.4247 161.294 79.1044 161.401 78.8084C161.508 78.5092 161.661 78.249 161.859 78.0278C162.061 77.8066 162.307 77.6326 162.596 77.5058C162.886 77.3789 163.211 77.3155 163.572 77.3155C163.874 77.3155 164.152 77.3659 164.406 77.4668C164.663 77.5643 164.884 77.7074 165.07 77.8961C165.255 78.0847 165.4 78.3173 165.504 78.5937C165.611 78.8702 165.665 79.1857 165.665 79.5402C165.665 79.6866 165.649 79.7858 165.616 79.8378C165.584 79.8866 165.523 79.911 165.436 79.911H162.186C162.196 80.207 162.238 80.4655 162.313 80.6867C162.388 80.9046 162.49 81.0868 162.621 81.2331C162.754 81.3795 162.912 81.4884 163.094 81.56C163.276 81.6315 163.479 81.6673 163.704 81.6673C163.915 81.6673 164.097 81.6429 164.25 81.5941C164.406 81.5454 164.54 81.4933 164.65 81.438C164.764 81.3795 164.858 81.3258 164.933 81.277C165.011 81.2282 165.079 81.2038 165.138 81.2038C165.216 81.2038 165.276 81.2331 165.318 81.2917L165.592 81.6429ZM167.58 78.0815C167.688 77.9676 167.8 77.8636 167.917 77.7692C168.034 77.6749 168.158 77.5952 168.288 77.5302C168.421 77.4619 168.562 77.4098 168.712 77.3741C168.865 77.335 169.028 77.3155 169.2 77.3155C169.473 77.3155 169.712 77.3611 169.917 77.4521C170.125 77.5432 170.299 77.6717 170.439 77.8375C170.579 78.0002 170.685 78.1969 170.756 78.4279C170.828 78.6588 170.864 78.9141 170.864 79.1938V82.3503H169.907V79.1938C169.907 78.8393 169.826 78.5645 169.663 78.3693C169.501 78.1709 169.252 78.0717 168.917 78.0717C168.673 78.0717 168.444 78.1303 168.229 78.2474C168.018 78.3612 167.821 78.5173 167.639 78.7157V82.3503H166.687V77.3936H167.258C167.392 77.3936 167.475 77.457 167.507 77.5839L167.58 78.0815ZM174.811 80.15C174.424 80.1631 174.096 80.194 173.826 80.2427C173.556 80.2883 173.336 80.3501 173.167 80.4281C172.998 80.5062 172.876 80.5989 172.801 80.7062C172.726 80.8103 172.689 80.9274 172.689 81.0575C172.689 81.1811 172.708 81.2884 172.747 81.3795C172.79 81.4673 172.845 81.5405 172.913 81.599C172.985 81.6543 173.068 81.695 173.162 81.721C173.256 81.747 173.359 81.76 173.47 81.76C173.616 81.76 173.749 81.7454 173.87 81.7161C173.993 81.6868 174.109 81.6462 174.216 81.5941C174.323 81.5389 174.426 81.4722 174.523 81.3941C174.621 81.3161 174.717 81.2266 174.811 81.1258V80.15ZM172.021 78.0864C172.297 77.8229 172.596 77.6261 172.918 77.496C173.243 77.3659 173.6 77.3009 173.987 77.3009C174.27 77.3009 174.52 77.348 174.738 77.4424C174.956 77.5334 175.14 77.6619 175.289 77.8278C175.439 77.9937 175.551 78.1921 175.626 78.423C175.704 78.6539 175.743 78.9092 175.743 79.1889V82.3503H175.319C175.224 82.3503 175.153 82.3357 175.104 82.3064C175.055 82.2739 175.016 82.2154 174.987 82.1308L174.884 81.6966C174.757 81.8137 174.632 81.9178 174.509 82.0088C174.385 82.0966 174.255 82.1731 174.118 82.2381C173.985 82.2999 173.842 82.3471 173.689 82.3796C173.536 82.4121 173.367 82.4284 173.182 82.4284C172.987 82.4284 172.803 82.4024 172.63 82.3503C172.461 82.295 172.313 82.2121 172.186 82.1015C172.06 81.9909 171.959 81.8527 171.884 81.6868C171.812 81.521 171.777 81.3274 171.777 81.1063C171.777 80.9111 171.829 80.7241 171.933 80.5452C172.04 80.3631 172.212 80.2005 172.45 80.0574C172.691 79.9142 173.003 79.7972 173.387 79.7061C173.774 79.615 174.248 79.563 174.811 79.55V79.1889C174.811 78.8149 174.731 78.5352 174.572 78.3498C174.413 78.1644 174.179 78.0717 173.87 78.0717C173.661 78.0717 173.486 78.0977 173.343 78.1498C173.203 78.2018 173.081 78.2604 172.977 78.3254C172.876 78.3872 172.786 78.4441 172.708 78.4962C172.634 78.5482 172.556 78.5742 172.474 78.5742C172.409 78.5742 172.352 78.5563 172.303 78.5206C172.258 78.4848 172.221 78.4425 172.191 78.3937L172.021 78.0864ZM177.909 78.0815C178.017 77.9676 178.129 77.8636 178.246 77.7692C178.363 77.6749 178.487 77.5952 178.617 77.5302C178.75 77.4619 178.892 77.4098 179.041 77.3741C179.194 77.335 179.357 77.3155 179.529 77.3155C179.802 77.3155 180.041 77.3611 180.246 77.4521C180.454 77.5432 180.628 77.6717 180.768 77.8375C180.908 78.0002 181.014 78.1969 181.085 78.4279C181.157 78.6588 181.193 78.9141 181.193 79.1938V82.3503H180.236V79.1938C180.236 78.8393 180.155 78.5645 179.993 78.3693C179.83 78.1709 179.581 78.0717 179.246 78.0717C179.002 78.0717 178.773 78.1303 178.558 78.2474C178.347 78.3612 178.15 78.5173 177.968 78.7157V82.3503H177.017V77.3936H177.587C177.721 77.3936 177.804 77.457 177.836 77.5839L177.909 78.0815ZM185.95 78.3205C185.921 78.3563 185.892 78.3856 185.862 78.4084C185.836 78.4279 185.797 78.4376 185.745 78.4376C185.693 78.4376 185.638 78.4181 185.579 78.3791C185.524 78.3368 185.453 78.2929 185.365 78.2474C185.28 78.1986 185.176 78.1547 185.052 78.1156C184.932 78.0733 184.782 78.0522 184.604 78.0522C184.369 78.0522 184.163 78.0945 183.984 78.1791C183.805 78.2636 183.656 78.384 183.535 78.5401C183.418 78.6962 183.329 78.8865 183.267 79.1109C183.205 79.3353 183.174 79.5874 183.174 79.8671C183.174 80.1566 183.207 80.4151 183.272 80.6428C183.337 80.8672 183.429 81.0575 183.55 81.2136C183.67 81.3665 183.817 81.4836 183.989 81.5649C184.161 81.6429 184.353 81.682 184.565 81.682C184.769 81.682 184.939 81.6576 185.072 81.6088C185.205 81.5567 185.316 81.5014 185.404 81.4429C185.492 81.3844 185.565 81.3307 185.623 81.2819C185.682 81.2299 185.742 81.2038 185.804 81.2038C185.882 81.2038 185.942 81.2331 185.984 81.2917L186.257 81.6429C186.144 81.7828 186.015 81.9015 185.872 81.9991C185.732 82.0966 185.583 82.1763 185.423 82.2381C185.264 82.2999 185.096 82.3455 184.921 82.3747C184.748 82.404 184.573 82.4186 184.394 82.4186C184.085 82.4186 183.795 82.3617 183.525 82.2479C183.259 82.1341 183.026 81.9682 182.828 81.7503C182.633 81.5323 182.478 81.2656 182.364 80.9502C182.25 80.6314 182.194 80.2704 182.194 79.8671C182.194 79.4996 182.244 79.1597 182.345 78.8474C182.449 78.5352 182.6 78.2669 182.798 78.0424C183 77.8148 183.247 77.6375 183.54 77.5107C183.833 77.3806 184.168 77.3155 184.545 77.3155C184.9 77.3155 185.212 77.3724 185.482 77.4863C185.752 77.6001 185.992 77.7611 186.204 77.9693L185.95 78.3205ZM190.343 79.3207C190.343 79.132 190.316 78.958 190.26 78.7986C190.208 78.6393 190.13 78.501 190.026 78.384C189.922 78.2669 189.795 78.1758 189.646 78.1108C189.496 78.0457 189.324 78.0132 189.128 78.0132C188.728 78.0132 188.413 78.1286 188.182 78.3596C187.954 78.5905 187.81 78.9109 187.748 79.3207H190.343ZM191.129 81.6429C191.012 81.7795 190.877 81.8982 190.724 81.9991C190.571 82.0966 190.408 82.1763 190.236 82.2381C190.063 82.2999 189.885 82.3455 189.699 82.3747C189.517 82.404 189.337 82.4186 189.158 82.4186C188.816 82.4186 188.499 82.3617 188.206 82.2479C187.917 82.1308 187.665 81.9617 187.45 81.7405C187.239 81.5161 187.073 81.2396 186.952 80.9111C186.835 80.5794 186.777 80.1988 186.777 79.7695C186.777 79.4247 186.831 79.1044 186.938 78.8084C187.045 78.5092 187.198 78.249 187.396 78.0278C187.598 77.8066 187.844 77.6326 188.133 77.5058C188.423 77.3789 188.748 77.3155 189.109 77.3155C189.411 77.3155 189.689 77.3659 189.943 77.4668C190.2 77.5643 190.421 77.7074 190.607 77.8961C190.792 78.0847 190.937 78.3173 191.041 78.5937C191.148 78.8702 191.202 79.1857 191.202 79.5402C191.202 79.6866 191.186 79.7858 191.153 79.8378C191.121 79.8866 191.06 79.911 190.973 79.911H187.723C187.733 80.207 187.775 80.4655 187.85 80.6867C187.925 80.9046 188.027 81.0868 188.158 81.2331C188.291 81.3795 188.449 81.4884 188.631 81.56C188.813 81.6315 189.016 81.6673 189.241 81.6673C189.452 81.6673 189.634 81.6429 189.787 81.5941C189.943 81.5454 190.076 81.4933 190.187 81.438C190.301 81.3795 190.395 81.3258 190.47 81.277C190.548 81.2282 190.616 81.2038 190.675 81.2038C190.753 81.2038 190.813 81.2331 190.855 81.2917L191.129 81.6429Z" fill="#9E9E9E"/>
<path d="M140.966 46.2218L140.961 47.0658H136.619V40.06H140.961V40.904H137.663V43.1238H140.317V43.9385H137.663V46.2218H140.966ZM142.825 42.7969C142.932 42.6831 143.044 42.579 143.161 42.4847C143.278 42.3904 143.402 42.3107 143.532 42.2456C143.665 42.1773 143.807 42.1253 143.956 42.0895C144.109 42.0505 144.272 42.031 144.444 42.031C144.718 42.031 144.957 42.0765 145.162 42.1676C145.37 42.2587 145.544 42.3871 145.684 42.553C145.823 42.7156 145.929 42.9124 146.001 43.1433C146.072 43.3742 146.108 43.6296 146.108 43.9093V47.0658H145.152V43.9093C145.152 43.5548 145.07 43.2799 144.908 43.0848C144.745 42.8864 144.496 42.7872 144.161 42.7872C143.917 42.7872 143.688 42.8457 143.474 42.9628C143.262 43.0766 143.065 43.2328 142.883 43.4312V47.0658H141.932V42.109H142.503C142.636 42.109 142.719 42.1725 142.751 42.2993L142.825 42.7969ZM150.835 39.8648V47.0658H149.879V39.8648H150.835ZM153.19 42.109V47.0658H152.238V42.109H153.19ZM153.37 40.5771C153.37 40.6649 153.352 40.7495 153.316 40.8308C153.281 40.9089 153.232 40.9788 153.17 41.0406C153.111 41.0991 153.042 41.1463 152.96 41.1821C152.879 41.2146 152.794 41.2309 152.707 41.2309C152.619 41.2309 152.536 41.2146 152.458 41.1821C152.38 41.1463 152.31 41.0991 152.248 41.0406C152.189 40.9788 152.142 40.9089 152.106 40.8308C152.074 40.7495 152.058 40.6649 152.058 40.5771C152.058 40.4861 152.074 40.4015 152.106 40.3234C152.142 40.2421 152.189 40.1722 152.248 40.1136C152.31 40.0519 152.38 40.0047 152.458 39.9722C152.536 39.9364 152.619 39.9185 152.707 39.9185C152.794 39.9185 152.879 39.9364 152.96 39.9722C153.042 40.0047 153.111 40.0519 153.17 40.1136C153.232 40.1722 153.281 40.2421 153.316 40.3234C153.352 40.4015 153.37 40.4861 153.37 40.5771ZM156.309 44.5923C156.478 44.5923 156.626 44.5695 156.753 44.524C156.883 44.4785 156.99 44.415 157.075 44.3337C157.162 44.2492 157.227 44.1483 157.27 44.0312C157.315 43.9142 157.338 43.7857 157.338 43.6458C157.338 43.3596 157.25 43.1319 157.075 42.9628C156.902 42.7904 156.647 42.7042 156.309 42.7042C155.974 42.7042 155.718 42.7904 155.543 42.9628C155.37 43.1319 155.284 43.3596 155.284 43.6458C155.284 43.7857 155.305 43.9142 155.347 44.0312C155.393 44.1451 155.458 44.2443 155.543 44.3288C155.63 44.4102 155.738 44.4752 155.865 44.524C155.995 44.5695 156.143 44.5923 156.309 44.5923ZM157.826 47.3244C157.826 47.2073 157.793 47.1146 157.728 47.0463C157.663 46.9747 157.574 46.9194 157.46 46.8804C157.349 46.8381 157.219 46.8089 157.07 46.7926C156.92 46.7731 156.762 46.7584 156.596 46.7487C156.434 46.7389 156.266 46.7308 156.094 46.7243C155.922 46.7145 155.756 46.6983 155.596 46.6755C155.427 46.7601 155.287 46.8625 155.177 46.9829C155.069 47.1032 155.016 47.2447 155.016 47.4073C155.016 47.5114 155.042 47.609 155.094 47.7C155.149 47.7911 155.232 47.8692 155.343 47.9342C155.456 48.0025 155.598 48.0545 155.767 48.0903C155.939 48.1294 156.144 48.1489 156.382 48.1489C156.616 48.1489 156.822 48.1277 157.001 48.0854C157.18 48.0464 157.33 47.9895 157.45 47.9147C157.574 47.8431 157.667 47.7569 157.728 47.6561C157.793 47.5553 157.826 47.4447 157.826 47.3244ZM158.792 42.2944V42.6506C158.792 42.7677 158.719 42.8408 158.572 42.8701L158.041 42.9482C158.086 43.049 158.122 43.1563 158.148 43.2702C158.174 43.3808 158.187 43.4978 158.187 43.6214C158.187 43.8654 158.14 44.0865 158.045 44.2849C157.951 44.4801 157.821 44.6476 157.655 44.7874C157.489 44.9273 157.291 45.0346 157.06 45.1094C156.832 45.1842 156.582 45.2216 156.309 45.2216C156.084 45.2216 155.874 45.1973 155.679 45.1485C155.582 45.207 155.507 45.2721 155.455 45.3436C155.406 45.4119 155.382 45.4802 155.382 45.5485C155.382 45.6624 155.429 45.7469 155.523 45.8022C155.621 45.8575 155.746 45.8982 155.899 45.9242C156.055 45.9469 156.232 45.9616 156.431 45.9681C156.632 45.9746 156.836 45.986 157.04 46.0022C157.249 46.0152 157.452 46.0413 157.65 46.0803C157.852 46.1161 158.029 46.1762 158.182 46.2608C158.338 46.3421 158.463 46.456 158.558 46.6023C158.655 46.7454 158.704 46.9324 158.704 47.1634C158.704 47.378 158.65 47.5862 158.543 47.7878C158.439 47.9895 158.286 48.1684 158.084 48.3245C157.883 48.4806 157.637 48.6058 157.348 48.7002C157.058 48.7945 156.73 48.8416 156.362 48.8416C155.995 48.8416 155.674 48.8059 155.401 48.7343C155.131 48.6628 154.905 48.5668 154.723 48.4465C154.544 48.3261 154.409 48.1863 154.318 48.0269C154.23 47.8675 154.186 47.7017 154.186 47.5293C154.186 47.2886 154.261 47.0853 154.411 46.9194C154.56 46.7503 154.767 46.6186 155.03 46.5243C154.887 46.4592 154.773 46.3714 154.689 46.2608C154.604 46.147 154.562 45.9974 154.562 45.812C154.562 45.7404 154.575 45.6672 154.601 45.5924C154.627 45.5144 154.666 45.4379 154.718 45.3631C154.773 45.2851 154.84 45.2119 154.918 45.1436C154.999 45.0753 155.092 45.0135 155.196 44.9582C154.952 44.8216 154.76 44.6411 154.621 44.4167C154.481 44.189 154.411 43.9239 154.411 43.6214C154.411 43.3775 154.458 43.158 154.552 42.9628C154.647 42.7677 154.777 42.6002 154.943 42.4603C155.112 42.3204 155.312 42.2131 155.543 42.1383C155.777 42.0635 156.032 42.0261 156.309 42.0261C156.738 42.0261 157.107 42.1155 157.416 42.2944H158.792ZM160.558 42.7969C160.665 42.6831 160.777 42.579 160.894 42.4847C161.011 42.3904 161.135 42.3107 161.265 42.2456C161.398 42.1773 161.54 42.1253 161.689 42.0895C161.842 42.0505 162.005 42.031 162.177 42.031C162.451 42.031 162.69 42.0765 162.894 42.1676C163.103 42.2587 163.277 42.3871 163.416 42.553C163.556 42.7156 163.662 42.9124 163.734 43.1433C163.805 43.3742 163.841 43.6296 163.841 43.9093V47.0658H162.885V43.9093C162.885 43.5548 162.803 43.2799 162.641 43.0848C162.478 42.8864 162.229 42.7872 161.894 42.7872C161.65 42.7872 161.421 42.8457 161.206 42.9628C160.995 43.0766 160.798 43.2328 160.616 43.4312V47.0658H159.665V42.109H160.236C160.369 42.109 160.452 42.1725 160.484 42.2993L160.558 42.7969ZM168.408 44.0361C168.408 43.8475 168.38 43.6735 168.325 43.5141C168.273 43.3547 168.195 43.2165 168.091 43.0994C167.987 42.9823 167.86 42.8913 167.71 42.8262C167.561 42.7612 167.388 42.7286 167.193 42.7286C166.793 42.7286 166.478 42.8441 166.247 43.075C166.019 43.3059 165.874 43.6263 165.813 44.0361H168.408ZM169.194 46.3584C169.076 46.495 168.941 46.6137 168.789 46.7145C168.636 46.8121 168.473 46.8918 168.301 46.9536C168.128 47.0154 167.949 47.0609 167.764 47.0902C167.582 47.1195 167.401 47.1341 167.223 47.1341C166.881 47.1341 166.564 47.0772 166.271 46.9633C165.982 46.8463 165.73 46.6771 165.515 46.456C165.304 46.2315 165.138 45.9551 165.017 45.6266C164.9 45.2948 164.842 44.9143 164.842 44.485C164.842 44.1402 164.895 43.8198 165.003 43.5239C165.11 43.2246 165.263 42.9644 165.461 42.7433C165.663 42.5221 165.909 42.3481 166.198 42.2212C166.488 42.0944 166.813 42.031 167.174 42.031C167.476 42.031 167.754 42.0814 168.008 42.1822C168.265 42.2798 168.486 42.4229 168.672 42.6115C168.857 42.8002 169.002 43.0327 169.106 43.3092C169.213 43.5857 169.267 43.9011 169.267 44.2557C169.267 44.402 169.25 44.5012 169.218 44.5533C169.185 44.6021 169.125 44.6264 169.037 44.6264H165.788C165.798 44.9224 165.84 45.181 165.915 45.4022C165.99 45.6201 166.092 45.8022 166.222 45.9486C166.356 46.0949 166.514 46.2039 166.696 46.2754C166.878 46.347 167.081 46.3828 167.305 46.3828C167.517 46.3828 167.699 46.3584 167.852 46.3096C168.008 46.2608 168.141 46.2088 168.252 46.1535C168.366 46.0949 168.46 46.0413 168.535 45.9925C168.613 45.9437 168.681 45.9193 168.74 45.9193C168.818 45.9193 168.878 45.9486 168.92 46.0071L169.194 46.3584Z" fill="#FC7E59"/>
<rect x="126.707" y="99.4922" width="1.80946" height="6.3331" rx="0.904729" fill="#9E9E9E"/>
<rect x="126.707" y="87.7307" width="1.80946" height="5.42838" rx="0.904729" fill="#9E9E9E"/>
<rect x="126.707" y="64.2078" width="1.80946" height="5.42838" rx="0.904729" fill="#9E9E9E"/>
<rect x="126.707" y="51.5416" width="1.80946" height="6.3331" rx="0.904729" fill="#9E9E9E"/>
<circle cx="127.613" cy="114.873" r="2.71419" fill="#9E9E9E"/>
<circle cx="127.613" cy="78.6834" r="2.71419" fill="#9E9E9E"/>
<circle cx="127.613" cy="43.3989" r="2.71419" fill="#FC7E59"/>
<defs>
<linearGradient id="paint0_linear_709_342" x1="81.473" y1="59.8033" x2="81.473" y2="96.8972" gradientUnits="userSpaceOnUse">
<stop stop-color="#F37D06"/>
<stop offset="1" stop-color="#FF7E7E"/>
</linearGradient>
</defs>
</svg>
