<svg width="11" height="11" viewBox="0 0 11 11" fill="none" xmlns="http://www.w3.org/2000/svg">
<path d="M5.0453 0.177268C5.06779 0.129616 5.10253 0.0895043 5.1456 0.0614599C5.18867 0.0334154 5.23836 0.0185547 5.28906 0.0185547C5.33976 0.0185547 5.38945 0.0334154 5.43252 0.0614599C5.4756 0.0895043 5.51034 0.129616 5.53283 0.177268L6.71829 2.69554C6.79639 2.86129 6.91167 3.00469 7.05424 3.11343C7.19681 3.22217 7.36241 3.293 7.53683 3.31985L10.188 3.72674C10.2382 3.73437 10.2854 3.75659 10.3242 3.79089C10.363 3.82519 10.3919 3.8702 10.4076 3.92082C10.4233 3.97144 10.4252 4.02566 10.413 4.07735C10.4009 4.12903 10.3752 4.17611 10.3388 4.21328L8.42157 6.17127C8.29513 6.3005 8.20052 6.46001 8.1459 6.63608C8.09128 6.81215 8.07828 6.99951 8.10801 7.18202L8.56064 9.9484C8.56951 10.0011 8.56409 10.0553 8.54499 10.1048C8.52589 10.1544 8.49389 10.1974 8.45264 10.2288C8.41139 10.2602 8.36254 10.2789 8.31168 10.2826C8.26081 10.2863 8.20998 10.2749 8.16497 10.2498L5.79507 8.94303C5.63891 8.85704 5.46518 8.81211 5.28881 8.81211C5.11243 8.81211 4.9387 8.85704 4.78255 8.94303L2.41315 10.2498C2.36816 10.2748 2.31739 10.286 2.26661 10.2822C2.21583 10.2784 2.16709 10.2598 2.12592 10.2284C2.08475 10.197 2.05281 10.1541 2.03373 10.1046C2.01465 10.0551 2.0092 10.001 2.018 9.9484L2.47012 7.18256C2.49998 6.99996 2.48704 6.81249 2.43242 6.63631C2.37779 6.46012 2.28311 6.30052 2.15656 6.17127L0.239284 4.21382C0.202639 4.1767 0.176671 4.12953 0.164339 4.07769C0.152007 4.02585 0.153805 3.97142 0.169531 3.9206C0.185256 3.86977 0.214275 3.82461 0.253282 3.79024C0.292289 3.75587 0.339717 3.73368 0.390161 3.7262L3.04078 3.31985C3.2154 3.29321 3.38123 3.22247 3.52399 3.11371C3.66676 3.00496 3.78219 2.86145 3.86034 2.69554L5.0453 0.177268Z" fill="#FF840A"/>
</svg>
