<svg width="45" height="46" viewBox="0 0 45 46" fill="none" xmlns="http://www.w3.org/2000/svg">
<rect y="0.18396" width="45" height="45" rx="8" fill="#FF840A"/>
<path d="M15.2501 19.7764C16.2166 15.8998 18.6338 13.9612 22.5002 13.9612C28.3003 13.9612 29.0254 18.3226 31.9254 19.0495C33.859 19.5343 35.5505 18.8074 37.0005 16.8688C36.034 20.7453 33.6168 22.684 29.7504 22.684C23.9503 22.684 23.2253 18.3226 20.3252 17.5957C18.3916 17.1108 16.7001 17.8377 15.2501 19.7764ZM8 28.4992C8.96644 24.6226 11.3836 22.684 15.2501 22.684C21.0502 22.684 21.7752 27.0454 24.6753 27.7723C26.6089 28.2571 28.3003 27.5302 29.7504 25.5916C28.7839 29.4681 26.3667 31.4068 22.5002 31.4068C16.7001 31.4068 15.9751 27.0454 13.0751 26.3185C11.1415 25.8336 9.45002 26.5605 8 28.4992Z" fill="white"/>
</svg>
