<svg width="40" height="41" viewBox="0 0 40 41" fill="none" xmlns="http://www.w3.org/2000/svg">
<circle cx="20" cy="20.1025" r="20" fill="#FAEEE2"/>
<path d="M24.44 13.9225C23.7566 13.1421 23.3799 12.1399 23.38 11.1025H20.29V23.5025C20.2667 24.1737 19.9835 24.8096 19.5003 25.276C19.0171 25.7425 18.3716 26.0029 17.7 26.0025C16.28 26.0025 15.1 24.8425 15.1 23.4025C15.1 21.6825 16.76 20.3925 18.47 20.9225V17.7625C15.02 17.3025 12 19.9825 12 23.4025C12 26.7325 14.76 29.1025 17.69 29.1025C20.83 29.1025 23.38 26.5525 23.38 23.4025V17.1125C24.633 18.0124 26.1374 18.4952 27.68 18.4925V15.4025C27.68 15.4025 25.8 15.4925 24.44 13.9225Z" fill="#FF840A"/>
</svg>
