<svg width="45" height="46" viewBox="0 0 45 46" fill="none" xmlns="http://www.w3.org/2000/svg">
<rect y="0.18396" width="45" height="45" rx="8" fill="#FF840A"/>
<mask id="mask0_700_744" style="mask-type:luminance" maskUnits="userSpaceOnUse" x="10" y="10" width="25" height="25">
<path d="M27.5445 34.5814C27.9244 34.7294 28.3577 34.7199 28.7413 34.5354L33.7081 32.1455C34.23 31.8943 34.5618 31.3661 34.5618 30.7866V14.5814C34.5618 14.0019 34.23 13.4737 33.7081 13.2225L28.7413 10.8325C28.238 10.5904 27.6489 10.6497 27.2072 10.9708C27.1441 11.0167 27.084 11.0679 27.0276 11.1244L17.5192 19.799L13.3776 16.6552C12.992 16.3625 12.4528 16.3865 12.0947 16.7122L10.7663 17.9205C10.3283 18.319 10.3278 19.008 10.7652 19.4071L14.357 22.6839L10.7652 25.9608C10.3278 26.3599 10.3283 27.0489 10.7663 27.4474L12.0947 28.6556C12.4528 28.9814 12.992 29.0054 13.3776 28.7128L17.5192 25.5689L27.0276 34.2435C27.178 34.394 27.3546 34.5074 27.5445 34.5814ZM28.5344 17.2074L21.3197 22.6839L28.5344 28.1604V17.2074Z" fill="white"/>
</mask>
<g mask="url(#mask0_700_744)">
<path d="M33.7228 13.2263L28.7521 10.833C28.1768 10.556 27.4892 10.6728 27.0376 11.1244L10.7654 25.9608C10.3278 26.3599 10.3283 27.049 10.7665 27.4474L12.0957 28.6557C12.454 28.9815 12.9936 29.0054 13.3794 28.7128L32.9748 13.8472C33.6322 13.3485 34.5765 13.8174 34.5765 14.6425V14.5848C34.5765 14.0056 34.2447 13.4776 33.7228 13.2263Z" fill="white"/>
</g>
<mask id="mask1_700_744" style="mask-type:luminance" maskUnits="userSpaceOnUse" x="10" y="10" width="25" height="25">
<path d="M27.5445 34.5814C27.9244 34.7294 28.3577 34.7199 28.7413 34.5354L33.7081 32.1455C34.23 31.8943 34.5618 31.3661 34.5618 30.7866V14.5814C34.5618 14.0019 34.23 13.4737 33.7081 13.2225L28.7413 10.8325C28.238 10.5904 27.6489 10.6497 27.2072 10.9708C27.1441 11.0167 27.084 11.0679 27.0276 11.1244L17.5192 19.799L13.3776 16.6552C12.992 16.3625 12.4528 16.3865 12.0947 16.7122L10.7663 17.9205C10.3283 18.319 10.3278 19.008 10.7652 19.4071L14.357 22.6839L10.7652 25.9608C10.3278 26.3599 10.3283 27.0489 10.7663 27.4474L12.0947 28.6556C12.4528 28.9814 12.992 29.0054 13.3776 28.7128L17.5192 25.5689L27.0276 34.2435C27.178 34.394 27.3546 34.5074 27.5445 34.5814ZM28.5344 17.2074L21.3197 22.6839L28.5344 28.1604V17.2074Z" fill="white"/>
</mask>
<g mask="url(#mask1_700_744)">
<path d="M33.7228 32.1416L28.7521 34.5349C28.1768 34.8119 27.4892 34.6951 27.0376 34.2436L10.7654 19.4071C10.3278 19.0081 10.3283 18.319 10.7665 17.9206L12.0957 16.7122C12.454 16.3865 12.9936 16.3625 13.3794 16.6552L32.9748 31.5207C33.6322 32.0194 34.5765 31.5506 34.5765 30.7254V30.7831C34.5765 31.3623 34.2447 31.8903 33.7228 32.1416Z" fill="white"/>
</g>
<mask id="mask2_700_744" style="mask-type:luminance" maskUnits="userSpaceOnUse" x="10" y="10" width="25" height="25">
<path d="M27.5445 34.5814C27.9244 34.7294 28.3577 34.7199 28.7413 34.5354L33.7081 32.1455C34.23 31.8943 34.5618 31.3661 34.5618 30.7866V14.5814C34.5618 14.0019 34.23 13.4737 33.7081 13.2225L28.7413 10.8325C28.238 10.5904 27.6489 10.6497 27.2072 10.9708C27.1441 11.0167 27.084 11.0679 27.0276 11.1244L17.5192 19.799L13.3776 16.6552C12.992 16.3625 12.4528 16.3865 12.0947 16.7122L10.7663 17.9205C10.3283 18.319 10.3278 19.008 10.7652 19.4071L14.357 22.6839L10.7652 25.9608C10.3278 26.3599 10.3283 27.0489 10.7663 27.4474L12.0947 28.6556C12.4528 28.9814 12.992 29.0054 13.3776 28.7128L17.5192 25.5689L27.0276 34.2435C27.178 34.394 27.3546 34.5074 27.5445 34.5814ZM28.5344 17.2074L21.3197 22.6839L28.5344 28.1604V17.2074Z" fill="white"/>
</mask>
<g mask="url(#mask2_700_744)">
<path d="M28.7362 34.5368C28.1607 34.8136 27.4731 34.6966 27.0215 34.245C27.5779 34.8014 28.5293 34.4073 28.5293 33.6204V11.7504C28.5293 10.9635 27.5779 10.5694 27.0215 11.1258C27.4731 10.6742 28.1607 10.5572 28.7362 10.834L33.706 13.224C34.2283 13.4751 34.5603 14.0034 34.5603 14.5828V30.7881C34.5603 31.3675 34.2283 31.8957 33.706 32.1469L28.7362 34.5368Z" fill="white"/>
</g>
</svg>
