<svg width="17" height="17" viewBox="0 0 17 17" fill="none" xmlns="http://www.w3.org/2000/svg">
<path fill-rule="evenodd" clip-rule="evenodd" d="M10.7345 0.655594C11.5068 0.655516 12.2636 0.872057 12.919 1.28061C13.5744 1.68917 14.102 2.27336 14.442 2.9668L14.5196 3.13278H15.6889C15.8287 3.13277 15.9663 3.1683 16.0887 3.23603C16.2111 3.30376 16.3143 3.40147 16.3886 3.51999C16.4629 3.63852 16.5058 3.77397 16.5134 3.91365C16.521 4.05332 16.493 4.19264 16.432 4.31852L16.3759 4.41678L15.0943 6.33825C14.9961 6.48599 14.948 6.66145 14.9573 6.83864L14.9688 6.94433L15.0853 7.58345C15.9019 12.0738 12.5189 16.2131 7.98978 16.3411L7.77344 16.3444H0.825771C0.685891 16.3444 0.548302 16.3089 0.425912 16.2412C0.303522 16.1734 0.200345 16.0757 0.12606 15.9572C0.0517752 15.8387 0.00881828 15.7032 0.00121945 15.5635C-0.00637939 15.4239 0.0216289 15.2846 0.0826168 15.1587L0.138766 15.0604L6.28631 5.83868C6.49468 5.5265 6.60588 5.15957 6.60586 4.78423C6.60586 3.68925 7.04084 2.63911 7.81511 1.86484C8.58938 1.09057 9.63952 0.655594 10.7345 0.655594ZM7.84445 8.08714C7.62068 8.08714 7.297 8.14494 6.989 8.25972C6.67935 8.37532 6.50843 8.50331 6.44898 8.57184L3.65471 12.7641C4.47879 12.5271 5.35984 12.2661 6.18392 11.9433C7.06497 11.599 7.8172 11.2067 8.33824 10.7493C8.84358 10.3059 9.08305 9.84759 9.08305 9.32573C9.08305 8.99724 8.95255 8.68219 8.72027 8.44991C8.48799 8.21763 8.17295 8.08714 7.84445 8.08714ZM10.7345 3.9585C10.5155 3.9585 10.3055 4.0455 10.1506 4.20035C9.99577 4.35521 9.90877 4.56523 9.90877 4.78423C9.90877 5.00323 9.99577 5.21325 10.1506 5.36811C10.3055 5.52296 10.5155 5.60996 10.7345 5.60996C10.9535 5.60996 11.1635 5.52296 11.3184 5.36811C11.4732 5.21325 11.5602 5.00323 11.5602 4.78423C11.5602 4.56523 11.4732 4.35521 11.3184 4.20035C11.1635 4.0455 10.9535 3.9585 10.7345 3.9585Z" fill="#FF840A"/>
</svg>
