<svg width="251" height="175" viewBox="0 0 251 175" fill="none" xmlns="http://www.w3.org/2000/svg">
<rect x="17.7852" y="9.83551" width="215.326" height="155.343" rx="7.69023" fill="#D9D9D9"/>
<path d="M44.6345 28.9451C44.5822 29.0366 44.5255 29.1041 44.4645 29.1477C44.4079 29.1869 44.336 29.2065 44.2488 29.2065C44.1573 29.2065 44.0571 29.1738 43.9481 29.1085C43.8436 29.0387 43.7172 28.9625 43.569 28.8797C43.4208 28.7969 43.2465 28.7228 43.0461 28.6574C42.85 28.5877 42.6168 28.5529 42.3466 28.5529C42.1026 28.5529 41.8891 28.5834 41.7061 28.6444C41.523 28.701 41.3683 28.7816 41.2419 28.8862C41.1199 28.9908 41.0284 29.1172 40.9674 29.2654C40.9064 29.4092 40.8759 29.5682 40.8759 29.7425C40.8759 29.9648 40.9369 30.15 41.0589 30.2981C41.1853 30.4463 41.3509 30.5727 41.5557 30.6773C41.7605 30.7819 41.9937 30.8756 42.2551 30.9584C42.5166 31.0412 42.7846 31.1305 43.0591 31.2264C43.3337 31.3179 43.6017 31.4268 43.8632 31.5532C44.1246 31.6752 44.3578 31.8321 44.5626 32.0238C44.7674 32.2112 44.9308 32.4422 45.0528 32.7167C45.1792 32.9913 45.2424 33.3246 45.2424 33.7168C45.2424 34.1439 45.1683 34.5448 45.0202 34.9196C44.8763 35.29 44.6628 35.6147 44.3796 35.8936C44.1007 36.1681 43.7586 36.386 43.3533 36.5472C42.948 36.7041 42.4839 36.7826 41.961 36.7826C41.6603 36.7826 41.364 36.752 41.072 36.691C40.78 36.6344 40.4989 36.5516 40.2288 36.4426C39.9629 36.3337 39.7124 36.203 39.477 36.0504C39.2417 35.8979 39.0325 35.728 38.8495 35.5406L39.3659 34.6973C39.4095 34.6363 39.4661 34.5862 39.5359 34.547C39.6056 34.5034 39.6797 34.4816 39.7581 34.4816C39.8671 34.4816 39.9847 34.5274 40.1111 34.6189C40.2375 34.7061 40.3878 34.8041 40.5621 34.9131C40.7364 35.022 40.9391 35.1222 41.17 35.2137C41.4054 35.3009 41.6864 35.3445 42.0133 35.3445C42.5144 35.3445 42.9023 35.2268 43.1768 34.9915C43.4513 34.7518 43.5886 34.4097 43.5886 33.9652C43.5886 33.7168 43.5254 33.5142 43.3991 33.3573C43.277 33.2004 43.1136 33.0697 42.9088 32.9651C42.704 32.8562 42.4708 32.7647 42.2094 32.6906C41.9479 32.6165 41.6821 32.5359 41.4119 32.4487C41.1417 32.3616 40.8759 32.257 40.6144 32.135C40.353 32.0129 40.1198 31.8539 39.915 31.6578C39.7102 31.4617 39.5446 31.2176 39.4182 30.9257C39.2962 30.6293 39.2352 30.2655 39.2352 29.834C39.2352 29.4898 39.3027 29.1542 39.4378 28.8274C39.5773 28.5006 39.7777 28.2108 40.0392 27.958C40.3007 27.7053 40.6231 27.5026 41.0066 27.3501C41.3901 27.1976 41.8302 27.1213 42.327 27.1213C42.8848 27.1213 43.3991 27.2085 43.8697 27.3828C44.3403 27.5571 44.7413 27.8011 45.0724 28.1149L44.6345 28.9451ZM48.4633 36.7826C47.8793 36.7826 47.4305 36.6191 47.1167 36.2923C46.8073 35.9611 46.6526 35.5057 46.6526 34.9261V31.1806H45.9662C45.8791 31.1806 45.805 31.1523 45.744 31.0956C45.683 31.039 45.6525 30.954 45.6525 30.8407V30.2001L46.731 30.0236L47.0709 28.1933C47.0927 28.1062 47.1341 28.0386 47.1951 27.9907C47.2561 27.9428 47.3346 27.9188 47.4305 27.9188H48.2672V30.0301H50.0582V31.1806H48.2672V34.815C48.2672 35.0242 48.3173 35.1876 48.4175 35.3053C48.5221 35.4229 48.6637 35.4817 48.8424 35.4817C48.9426 35.4817 49.0254 35.4709 49.0908 35.4491C49.1605 35.4229 49.2193 35.3968 49.2673 35.3706C49.3196 35.3445 49.3653 35.3205 49.4045 35.2987C49.4438 35.2726 49.483 35.2595 49.5222 35.2595C49.5701 35.2595 49.6094 35.2726 49.6399 35.2987C49.6704 35.3205 49.7031 35.3554 49.7379 35.4033L50.2216 36.1877C49.9863 36.3838 49.7161 36.532 49.4111 36.6322C49.106 36.7324 48.7901 36.7826 48.4633 36.7826ZM54.6348 33.8149C54.1685 33.8367 53.7763 33.8781 53.4582 33.9391C53.1401 33.9957 52.8852 34.0698 52.6934 34.1613C52.5017 34.2528 52.3644 34.3596 52.2816 34.4816C52.1988 34.6037 52.1574 34.7366 52.1574 34.8804C52.1574 35.1636 52.2402 35.3663 52.4058 35.4883C52.5758 35.6103 52.7958 35.6713 53.066 35.6713C53.3972 35.6713 53.6826 35.6125 53.9223 35.4948C54.1664 35.3728 54.4039 35.1898 54.6348 34.9457V33.8149ZM50.935 30.9061C51.7064 30.2001 52.6346 29.8471 53.7197 29.8471C54.1119 29.8471 54.4627 29.9125 54.7721 30.0432C55.0815 30.1696 55.343 30.3483 55.5565 30.5792C55.77 30.8058 55.9313 31.0782 56.0402 31.3963C56.1535 31.7144 56.2102 32.0631 56.2102 32.4422V36.678H55.4781C55.3255 36.678 55.2079 36.6562 55.1251 36.6126C55.0423 36.5647 54.9769 36.471 54.929 36.3315L54.7852 35.8478C54.6152 36.0003 54.4496 36.1354 54.2884 36.2531C54.1271 36.3664 53.9594 36.4623 53.785 36.5407C53.6107 36.6191 53.4233 36.678 53.2229 36.7172C53.0268 36.7608 52.8089 36.7826 52.5692 36.7826C52.286 36.7826 52.0245 36.7455 51.7848 36.6714C51.5451 36.593 51.3381 36.4775 51.1638 36.325C50.9895 36.1725 50.8544 35.9829 50.7586 35.7563C50.6627 35.5297 50.6147 35.266 50.6147 34.9653C50.6147 34.7954 50.6431 34.6276 50.6997 34.462C50.7564 34.2921 50.8479 34.1308 50.9743 33.9783C51.105 33.8258 51.2728 33.682 51.4776 33.5469C51.6824 33.4118 51.933 33.2941 52.2293 33.1939C52.53 33.0937 52.8786 33.0131 53.2752 32.952C53.6717 32.8867 54.125 32.8475 54.6348 32.8344V32.4422C54.6348 31.9933 54.5389 31.6621 54.3472 31.4486C54.1555 31.2307 53.8787 31.1218 53.517 31.1218C53.2556 31.1218 53.0377 31.1523 52.8634 31.2133C52.6934 31.2743 52.5431 31.344 52.4123 31.4225C52.2816 31.4965 52.1618 31.5641 52.0528 31.6251C51.9482 31.6861 51.8306 31.7166 51.6998 31.7166C51.5865 31.7166 51.4907 31.6883 51.4122 31.6316C51.3338 31.5706 51.2706 31.5009 51.2227 31.4225L50.935 30.9061ZM64.4069 36.678H62.7923V31.1806H59.6808V34.815C59.6808 35.0242 59.731 35.1876 59.8312 35.3053C59.9358 35.4229 60.0774 35.4817 60.2561 35.4817C60.3563 35.4817 60.4391 35.4709 60.5045 35.4491C60.5742 35.4229 60.633 35.3968 60.681 35.3706C60.7332 35.3445 60.779 35.3205 60.8182 35.2987C60.8574 35.2726 60.8967 35.2595 60.9359 35.2595C60.9838 35.2595 61.023 35.2726 61.0535 35.2987C61.0841 35.3205 61.1167 35.3554 61.1516 35.4033L61.6353 36.1877C61.4 36.3838 61.1298 36.532 60.8248 36.6322C60.5197 36.7324 60.2038 36.7826 59.8769 36.7826C59.293 36.7826 58.8441 36.6191 58.5304 36.2923C58.221 35.9611 58.0663 35.5057 58.0663 34.9261V31.1806H57.3799C57.2928 31.1806 57.2187 31.1523 57.1577 31.0956C57.0967 31.039 57.0662 30.954 57.0662 30.8407V30.2001L58.1447 30.0171L58.4846 28.1933C58.5064 28.1062 58.5478 28.0386 58.6088 27.9907C58.6698 27.9428 58.7483 27.9188 58.8441 27.9188H59.6808V30.0301H64.4069V36.678ZM64.6879 27.9907C64.6879 28.1301 64.6596 28.2631 64.603 28.3894C64.5463 28.5115 64.4701 28.6182 64.3742 28.7097C64.2827 28.8012 64.1715 28.8753 64.0408 28.932C63.9144 28.9843 63.7793 29.0104 63.6355 29.0104C63.4961 29.0104 63.3654 28.9843 63.2433 28.932C63.1213 28.8753 63.0146 28.8012 62.923 28.7097C62.8315 28.6182 62.7574 28.5115 62.7008 28.3894C62.6485 28.2631 62.6224 28.1301 62.6224 27.9907C62.6224 27.8469 62.6485 27.714 62.7008 27.592C62.7574 27.4656 62.8315 27.3566 62.923 27.2651C63.0146 27.1693 63.1213 27.0952 63.2433 27.0429C63.3654 26.9862 63.4961 26.9579 63.6355 26.9579C63.7793 26.9579 63.9144 26.9862 64.0408 27.0429C64.1715 27.0952 64.2827 27.1693 64.3742 27.2651C64.4701 27.3566 64.5463 27.4656 64.603 27.592C64.6596 27.714 64.6879 27.8469 64.6879 27.9907ZM70.1468 31.2787C70.1032 31.3484 70.0575 31.3985 70.0095 31.429C69.9616 31.4551 69.9006 31.4682 69.8265 31.4682C69.7481 31.4682 69.6631 31.4464 69.5716 31.4029C69.4844 31.3593 69.382 31.3113 69.2643 31.259C69.1467 31.2024 69.0116 31.1523 68.8591 31.1087C68.7109 31.0651 68.5344 31.0433 68.3296 31.0433C68.0115 31.0433 67.7609 31.1109 67.5779 31.246C67.3992 31.3811 67.3099 31.5576 67.3099 31.7754C67.3099 31.9192 67.3556 32.0413 67.4471 32.1415C67.543 32.2374 67.6672 32.3223 67.8197 32.3964C67.9766 32.4705 68.1531 32.5381 68.3492 32.5991C68.5453 32.6557 68.7436 32.7189 68.9441 32.7886C69.1489 32.8584 69.3493 32.939 69.5454 33.0305C69.7415 33.1176 69.9158 33.2309 70.0684 33.3704C70.2252 33.5055 70.3494 33.6689 70.441 33.8606C70.5368 34.0524 70.5848 34.2834 70.5848 34.5535C70.5848 34.876 70.5259 35.1745 70.4083 35.4491C70.295 35.7192 70.125 35.9546 69.8984 36.155C69.6718 36.3511 69.3907 36.5058 69.0552 36.6191C68.724 36.7281 68.3405 36.7826 67.9047 36.7826C67.6738 36.7826 67.4471 36.7608 67.2249 36.7172C67.007 36.678 66.7957 36.6213 66.5908 36.5472C66.3904 36.4731 66.203 36.386 66.0287 36.2858C65.8587 36.1855 65.7084 36.0766 65.5777 35.9589L65.9502 35.3445C65.9982 35.2704 66.0548 35.2137 66.1202 35.1745C66.1856 35.1353 66.2684 35.1157 66.3686 35.1157C66.4688 35.1157 66.5625 35.144 66.6497 35.2007C66.7412 35.2573 66.8458 35.3183 66.9634 35.3837C67.0811 35.4491 67.2184 35.5101 67.3752 35.5667C67.5365 35.6234 67.7391 35.6517 67.9832 35.6517C68.1749 35.6517 68.3383 35.6299 68.4734 35.5863C68.6129 35.5384 68.7262 35.4774 68.8133 35.4033C68.9048 35.3292 68.9702 35.2442 69.0094 35.1484C69.053 35.0481 69.0748 34.9457 69.0748 34.8412C69.0748 34.6843 69.0268 34.5557 68.931 34.4555C68.8395 34.3553 68.7153 34.2681 68.5584 34.194C68.4059 34.1199 68.2294 34.0546 68.0289 33.9979C67.8328 33.9369 67.6302 33.8715 67.421 33.8018C67.2162 33.7321 67.0135 33.6515 66.8131 33.56C66.617 33.4641 66.4405 33.3442 66.2836 33.2004C66.1311 33.0566 66.0069 32.8801 65.911 32.671C65.8195 32.4618 65.7738 32.209 65.7738 31.9127C65.7738 31.6382 65.8282 31.3767 65.9372 31.1283C66.0461 30.8799 66.2052 30.6642 66.4143 30.4812C66.6279 30.2938 66.8915 30.1456 67.2053 30.0367C67.5234 29.9234 67.8895 29.8667 68.3035 29.8667C68.7654 29.8667 69.1859 29.943 69.565 30.0955C69.9442 30.248 70.2601 30.4485 70.5129 30.6969L70.1468 31.2787ZM78.5655 36.678H76.9509V31.1806H73.8394V34.815C73.8394 35.0242 73.8895 35.1876 73.9898 35.3053C74.0944 35.4229 74.236 35.4817 74.4147 35.4817C74.5149 35.4817 74.5977 35.4709 74.663 35.4491C74.7328 35.4229 74.7916 35.3968 74.8395 35.3706C74.8918 35.3445 74.9376 35.3205 74.9768 35.2987C75.016 35.2726 75.0552 35.2595 75.0945 35.2595C75.1424 35.2595 75.1816 35.2726 75.2121 35.2987C75.2426 35.3205 75.2753 35.3554 75.3102 35.4033L75.7939 36.1877C75.5586 36.3838 75.2884 36.532 74.9833 36.6322C74.6783 36.7324 74.3624 36.7826 74.0355 36.7826C73.4516 36.7826 73.0027 36.6191 72.689 36.2923C72.3796 35.9611 72.2249 35.5057 72.2249 34.9261V31.1806H71.5385C71.4514 31.1806 71.3773 31.1523 71.3163 31.0956C71.2553 31.039 71.2247 30.954 71.2247 30.8407V30.2001L72.3033 30.0171L72.6432 28.1933C72.665 28.1062 72.7064 28.0386 72.7674 27.9907C72.8284 27.9428 72.9069 27.9188 73.0027 27.9188H73.8394V30.0301H78.5655V36.678ZM78.8465 27.9907C78.8465 28.1301 78.8182 28.2631 78.7616 28.3894C78.7049 28.5115 78.6286 28.6182 78.5328 28.7097C78.4413 28.8012 78.3301 28.8753 78.1994 28.932C78.073 28.9843 77.9379 29.0104 77.7941 29.0104C77.6547 29.0104 77.5239 28.9843 77.4019 28.932C77.2799 28.8753 77.1731 28.8012 77.0816 28.7097C76.9901 28.6182 76.916 28.5115 76.8594 28.3894C76.8071 28.2631 76.7809 28.1301 76.7809 27.9907C76.7809 27.8469 76.8071 27.714 76.8594 27.592C76.916 27.4656 76.9901 27.3566 77.0816 27.2651C77.1731 27.1693 77.2799 27.0952 77.4019 27.0429C77.5239 26.9862 77.6547 26.9579 77.7941 26.9579C77.9379 26.9579 78.073 26.9862 78.1994 27.0429C78.3301 27.0952 78.4413 27.1693 78.5328 27.2651C78.6286 27.3566 78.7049 27.4656 78.7616 27.592C78.8182 27.714 78.8465 27.8469 78.8465 27.9907ZM84.423 31.6839C84.2444 31.4617 84.0461 31.3048 83.8282 31.2133C83.6103 31.1218 83.3772 31.076 83.1288 31.076C82.8847 31.076 82.6647 31.1218 82.4686 31.2133C82.2725 31.3048 82.1047 31.4442 81.9653 31.6316C81.8258 31.8147 81.719 32.05 81.645 32.3376C81.5709 32.6209 81.5338 32.9564 81.5338 33.3442C81.5338 33.7365 81.5643 34.0698 81.6253 34.3444C81.6907 34.6145 81.7822 34.8368 81.8999 35.0111C82.0175 35.1811 82.1614 35.3053 82.3313 35.3837C82.5013 35.4578 82.6908 35.4948 82.9 35.4948C83.2355 35.4948 83.521 35.4251 83.7563 35.2856C83.9916 35.1462 84.2139 34.9479 84.423 34.6908V31.6839ZM86.0376 29.9713V38.8678H84.423V35.8282C84.1572 36.1114 83.8565 36.3402 83.521 36.5145C83.1854 36.6889 82.7954 36.776 82.3509 36.776C81.9849 36.776 81.6493 36.6998 81.3443 36.5472C81.0392 36.3947 80.7756 36.1746 80.5533 35.887C80.3354 35.5951 80.1655 35.2355 80.0435 34.8085C79.9258 34.3814 79.867 33.8933 79.867 33.3442C79.867 32.8475 79.9345 32.3855 80.0696 31.9585C80.2047 31.5314 80.3986 31.161 80.6514 30.8472C80.9041 30.5335 81.207 30.2894 81.56 30.1151C81.913 29.9365 82.3095 29.8471 82.7497 29.8471C83.168 29.8471 83.5188 29.919 83.8021 30.0628C84.0853 30.2066 84.3381 30.4006 84.5603 30.6446L84.6453 30.2655C84.7019 30.0694 84.837 29.9713 85.0506 29.9713H86.0376ZM93.4095 29.9713V36.678H92.4224C92.2089 36.678 92.0738 36.5799 92.0172 36.3838L91.906 35.8478C91.6315 36.1267 91.3286 36.3533 90.9974 36.5276C90.6662 36.6976 90.2762 36.7826 89.8274 36.7826C89.4613 36.7826 89.1367 36.7215 88.8534 36.5995C88.5745 36.4731 88.3392 36.2967 88.1474 36.0701C87.9557 35.8434 87.8097 35.5754 87.7095 35.266C87.6136 34.9523 87.5657 34.608 87.5657 34.2332V29.9713H89.1802V34.2332C89.1802 34.6429 89.2739 34.961 89.4613 35.1876C89.6531 35.4098 89.9385 35.521 90.3176 35.521C90.5965 35.521 90.858 35.46 91.102 35.3379C91.3461 35.2116 91.577 35.0394 91.7949 34.8215V29.9713H93.4095ZM99.3311 32.5533C99.3311 32.3441 99.3006 32.148 99.2396 31.965C99.1829 31.7776 99.0958 31.6142 98.9781 31.4748C98.8605 31.3353 98.7101 31.2264 98.5271 31.1479C98.3484 31.0651 98.1392 31.0237 97.8996 31.0237C97.4333 31.0237 97.065 31.1566 96.7949 31.4225C96.529 31.6883 96.3591 32.0652 96.285 32.5533H99.3311ZM96.2523 33.5273C96.2785 33.8715 96.3395 34.1701 96.4353 34.4228C96.5312 34.6712 96.6576 34.8782 96.8145 35.0438C96.9714 35.205 97.1566 35.327 97.3701 35.4098C97.588 35.4883 97.8277 35.5275 98.0891 35.5275C98.3506 35.5275 98.575 35.497 98.7624 35.436C98.9542 35.375 99.1198 35.3074 99.2592 35.2334C99.403 35.1593 99.5272 35.0917 99.6318 35.0307C99.7407 34.9697 99.8453 34.9392 99.9456 34.9392C100.081 34.9392 100.181 34.9893 100.246 35.0895L100.71 35.6778C100.532 35.887 100.331 36.0635 100.109 36.2073C99.8867 36.3468 99.6536 36.4601 99.4095 36.5472C99.1699 36.63 98.9236 36.6889 98.6709 36.7237C98.4225 36.7586 98.1806 36.776 97.9453 36.776C97.479 36.776 97.0454 36.6998 96.6445 36.5472C96.2436 36.3903 95.895 36.1616 95.5987 35.8609C95.3023 35.5558 95.0692 35.1811 94.8992 34.7366C94.7293 34.2877 94.6443 33.7691 94.6443 33.1808C94.6443 32.7233 94.7184 32.294 94.8665 31.8931C95.0147 31.4878 95.2261 31.137 95.5006 30.8407C95.7795 30.54 96.1172 30.3025 96.5138 30.1282C96.9147 29.9539 97.3657 29.8667 97.8669 29.8667C98.2896 29.8667 98.6796 29.9343 99.037 30.0694C99.3943 30.2045 99.7015 30.4027 99.9586 30.6642C100.216 30.9213 100.416 31.2394 100.56 31.6186C100.708 31.9933 100.782 32.4226 100.782 32.9063C100.782 33.1503 100.756 33.3159 100.704 33.4031C100.652 33.4859 100.551 33.5273 100.403 33.5273H96.2523ZM106.086 31.2787C106.042 31.3484 105.997 31.3985 105.949 31.429C105.901 31.4551 105.84 31.4682 105.766 31.4682C105.687 31.4682 105.602 31.4464 105.511 31.4029C105.423 31.3593 105.321 31.3113 105.203 31.259C105.086 31.2024 104.951 31.1523 104.798 31.1087C104.65 31.0651 104.473 31.0433 104.269 31.0433C103.951 31.0433 103.7 31.1109 103.517 31.246C103.338 31.3811 103.249 31.5576 103.249 31.7754C103.249 31.9192 103.295 32.0413 103.386 32.1415C103.482 32.2374 103.606 32.3223 103.759 32.3964C103.916 32.4705 104.092 32.5381 104.288 32.5991C104.484 32.6557 104.683 32.7189 104.883 32.7886C105.088 32.8584 105.288 32.939 105.484 33.0305C105.681 33.1176 105.855 33.2309 106.007 33.3704C106.164 33.5055 106.288 33.6689 106.38 33.8606C106.476 34.0524 106.524 34.2834 106.524 34.5535C106.524 34.876 106.465 35.1745 106.347 35.4491C106.234 35.7192 106.064 35.9546 105.837 36.155C105.611 36.3511 105.33 36.5058 104.994 36.6191C104.663 36.7281 104.28 36.7826 103.844 36.7826C103.613 36.7826 103.386 36.7608 103.164 36.7172C102.946 36.678 102.735 36.6213 102.53 36.5472C102.329 36.4731 102.142 36.386 101.968 36.2858C101.798 36.1855 101.647 36.0766 101.517 35.9589L101.889 35.3445C101.937 35.2704 101.994 35.2137 102.059 35.1745C102.125 35.1353 102.207 35.1157 102.308 35.1157C102.408 35.1157 102.502 35.144 102.589 35.2007C102.68 35.2573 102.785 35.3183 102.902 35.3837C103.02 35.4491 103.157 35.5101 103.314 35.5667C103.476 35.6234 103.678 35.6517 103.922 35.6517C104.114 35.6517 104.277 35.6299 104.412 35.5863C104.552 35.5384 104.665 35.4774 104.752 35.4033C104.844 35.3292 104.909 35.2442 104.948 35.1484C104.992 35.0481 105.014 34.9457 105.014 34.8412C105.014 34.6843 104.966 34.5557 104.87 34.4555C104.779 34.3553 104.654 34.2681 104.497 34.194C104.345 34.1199 104.168 34.0546 103.968 33.9979C103.772 33.9369 103.569 33.8715 103.36 33.8018C103.155 33.7321 102.953 33.6515 102.752 33.56C102.556 33.4641 102.38 33.3442 102.223 33.2004C102.07 33.0566 101.946 32.8801 101.85 32.671C101.759 32.4618 101.713 32.209 101.713 31.9127C101.713 31.6382 101.767 31.3767 101.876 31.1283C101.985 30.8799 102.144 30.6642 102.353 30.4812C102.567 30.2938 102.831 30.1456 103.144 30.0367C103.462 29.9234 103.829 29.8667 104.243 29.8667C104.704 29.8667 105.125 29.943 105.504 30.0955C105.883 30.248 106.199 30.4485 106.452 30.6969L106.086 31.2787Z" fill="url(#paint0_linear_709_300)"/>
<path d="M39.3184 53.6698L39.3184 145.184" stroke="#FF840A" stroke-opacity="0.15" stroke-width="1.53805" stroke-linecap="round"/>
<path d="M110.068 53.6698L110.068 145.184" stroke="#FF840A" stroke-opacity="0.15" stroke-width="1.53805" stroke-linecap="round"/>
<path d="M193.893 53.6698L193.893 145.184" stroke="#FF840A" stroke-opacity="0.15" stroke-width="1.53805" stroke-linecap="round"/>
<path d="M43.6588 146.029C43.4804 146.029 43.342 145.98 43.2435 145.881C43.1512 145.783 43.1051 145.641 43.1051 145.457V139.966C43.1051 139.775 43.1512 139.631 43.2435 139.532C43.342 139.428 43.4681 139.375 43.6219 139.375C43.7634 139.375 43.868 139.403 43.9357 139.458C44.0095 139.508 44.0956 139.594 44.194 139.717L47.7285 144.303H47.4885V139.938C47.4885 139.76 47.5347 139.622 47.627 139.523C47.7254 139.425 47.8638 139.375 48.0422 139.375C48.2207 139.375 48.356 139.425 48.4483 139.523C48.5406 139.622 48.5867 139.76 48.5867 139.938V145.475C48.5867 145.648 48.5436 145.783 48.4575 145.881C48.3714 145.98 48.2545 146.029 48.1068 146.029C47.9653 146.029 47.8515 146.001 47.7654 145.946C47.6854 145.891 47.5962 145.801 47.4978 145.678L43.9726 141.092H44.2033V145.457C44.2033 145.641 44.1571 145.783 44.0648 145.881C43.9726 145.98 43.8372 146.029 43.6588 146.029ZM51.9555 146.047C51.4879 146.047 51.0818 145.952 50.7373 145.761C50.3928 145.571 50.1252 145.3 49.9345 144.949C49.7437 144.592 49.6484 144.174 49.6484 143.694C49.6484 143.331 49.7007 143.008 49.8053 142.725C49.916 142.436 50.0729 142.19 50.2759 141.987C50.4789 141.778 50.7219 141.621 51.0049 141.516C51.2879 141.406 51.6048 141.35 51.9555 141.35C52.423 141.35 52.8291 141.446 53.1736 141.636C53.5181 141.827 53.7857 142.098 53.9765 142.448C54.1672 142.799 54.2625 143.214 54.2625 143.694C54.2625 144.057 54.2072 144.383 54.0964 144.672C53.9918 144.962 53.838 145.211 53.635 145.42C53.432 145.623 53.189 145.78 52.906 145.891C52.623 145.995 52.3061 146.047 51.9555 146.047ZM51.9555 145.171C52.1831 145.171 52.383 145.115 52.5553 145.005C52.7276 144.894 52.8598 144.731 52.9521 144.516C53.0505 144.294 53.0998 144.02 53.0998 143.694C53.0998 143.202 52.9952 142.836 52.786 142.596C52.5768 142.35 52.3 142.227 51.9555 142.227C51.7278 142.227 51.5279 142.282 51.3556 142.393C51.1834 142.498 51.048 142.661 50.9496 142.882C50.8573 143.098 50.8112 143.368 50.8112 143.694C50.8112 144.18 50.9157 144.549 51.1249 144.802C51.3341 145.048 51.6109 145.171 51.9555 145.171ZM56.9517 146.029C56.7979 146.029 56.6626 145.989 56.5457 145.909C56.4349 145.829 56.3426 145.706 56.2688 145.54L54.8015 142.135C54.7461 141.999 54.7246 141.873 54.7369 141.756C54.7554 141.639 54.8107 141.547 54.903 141.479C55.0015 141.406 55.1337 141.369 55.2998 141.369C55.4413 141.369 55.5552 141.403 55.6413 141.47C55.7274 141.532 55.8043 141.652 55.872 141.83L57.1178 144.94H56.841L58.1237 141.821C58.1914 141.649 58.2683 141.532 58.3544 141.47C58.4467 141.403 58.5697 141.369 58.7235 141.369C58.8589 141.369 58.9665 141.406 59.0465 141.479C59.1265 141.547 59.1757 141.639 59.1942 141.756C59.2126 141.867 59.1911 141.99 59.1296 142.125L57.6346 145.54C57.5669 145.706 57.4746 145.829 57.3577 145.909C57.247 145.989 57.1117 146.029 56.9517 146.029ZM60.2507 146.943C60.1708 147.041 60.0846 147.096 59.9923 147.109C59.9062 147.127 59.8293 147.112 59.7616 147.063C59.694 147.013 59.6571 146.943 59.6509 146.85C59.6448 146.764 59.6847 146.669 59.7709 146.564C59.8939 146.41 59.977 146.257 60.02 146.103C60.0631 145.949 60.0846 145.811 60.0846 145.688L60.1308 146.001C59.9154 146.001 59.7401 145.94 59.6048 145.817C59.4756 145.688 59.411 145.518 59.411 145.309C59.411 145.112 59.4725 144.952 59.5955 144.829C59.7186 144.7 59.8847 144.636 60.0939 144.636C60.3092 144.636 60.4784 144.709 60.6014 144.857C60.7245 144.999 60.786 145.205 60.786 145.475C60.786 145.623 60.7706 145.777 60.7398 145.937C60.7152 146.091 60.6629 146.251 60.583 146.417C60.5091 146.589 60.3984 146.764 60.2507 146.943ZM65.1835 145.955C65.0236 145.955 64.8975 145.912 64.8052 145.826C64.7191 145.734 64.676 145.611 64.676 145.457C64.676 145.297 64.7191 145.177 64.8052 145.097C64.8975 145.017 65.0236 144.977 65.1835 144.977H66.2171V140.446H66.7893L65.4327 141.267C65.3158 141.335 65.2051 141.363 65.1005 141.35C65.0021 141.332 64.9159 141.289 64.8421 141.221C64.7744 141.147 64.7283 141.061 64.7037 140.963C64.6791 140.864 64.6852 140.766 64.7221 140.667C64.7652 140.563 64.8452 140.477 64.9621 140.409L66.2356 139.643C66.3586 139.569 66.4817 139.508 66.6047 139.458C66.7277 139.403 66.8416 139.375 66.9461 139.375C67.0753 139.375 67.183 139.412 67.2691 139.486C67.3553 139.554 67.3983 139.668 67.3983 139.828V144.977H68.3396C68.4996 144.977 68.6226 145.017 68.7087 145.097C68.801 145.177 68.8472 145.297 68.8472 145.457C68.8472 145.617 68.801 145.74 68.7087 145.826C68.6226 145.912 68.4996 145.955 68.3396 145.955H65.1835ZM72.0458 146.047C71.2768 146.047 70.6892 145.758 70.2832 145.18C69.8771 144.596 69.6741 143.765 69.6741 142.688C69.6741 141.962 69.7633 141.353 69.9417 140.861C70.1263 140.363 70.3939 139.988 70.7446 139.735C71.1014 139.483 71.5351 139.357 72.0458 139.357C72.821 139.357 73.4085 139.64 73.8084 140.206C74.2144 140.772 74.4174 141.596 74.4174 142.679C74.4174 143.399 74.3252 144.011 74.1406 144.516C73.9622 145.014 73.6976 145.395 73.347 145.66C72.9963 145.918 72.5626 146.047 72.0458 146.047ZM72.0458 145.079C72.4641 145.079 72.7717 144.885 72.9686 144.497C73.1716 144.11 73.2731 143.504 73.2731 142.679C73.2731 141.855 73.1716 141.258 72.9686 140.889C72.7717 140.514 72.4641 140.326 72.0458 140.326C71.6336 140.326 71.326 140.514 71.1229 140.889C70.9199 141.258 70.8184 141.855 70.8184 142.679C70.8184 143.504 70.9199 144.11 71.1229 144.497C71.326 144.885 71.6336 145.079 72.0458 145.079Z" fill="#A8A8A8"/>
<path d="M114.409 146.029C114.23 146.029 114.092 145.98 113.994 145.881C113.901 145.783 113.855 145.641 113.855 145.457V139.966C113.855 139.775 113.901 139.631 113.994 139.532C114.092 139.428 114.218 139.375 114.372 139.375C114.513 139.375 114.618 139.403 114.686 139.458C114.759 139.508 114.846 139.594 114.944 139.717L118.478 144.303H118.239V139.938C118.239 139.76 118.285 139.622 118.377 139.523C118.475 139.425 118.614 139.375 118.792 139.375C118.971 139.375 119.106 139.425 119.198 139.523C119.291 139.622 119.337 139.76 119.337 139.938V145.475C119.337 145.648 119.294 145.783 119.208 145.881C119.121 145.98 119.004 146.029 118.857 146.029C118.715 146.029 118.602 146.001 118.515 145.946C118.435 145.891 118.346 145.801 118.248 145.678L114.723 141.092H114.953V145.457C114.953 145.641 114.907 145.783 114.815 145.881C114.723 145.98 114.587 146.029 114.409 146.029ZM122.705 146.047C122.238 146.047 121.832 145.952 121.487 145.761C121.143 145.571 120.875 145.3 120.684 144.949C120.494 144.592 120.398 144.174 120.398 143.694C120.398 143.331 120.451 143.008 120.555 142.725C120.666 142.436 120.823 142.19 121.026 141.987C121.229 141.778 121.472 141.621 121.755 141.516C122.038 141.406 122.355 141.35 122.705 141.35C123.173 141.35 123.579 141.446 123.924 141.636C124.268 141.827 124.536 142.098 124.726 142.448C124.917 142.799 125.013 143.214 125.013 143.694C125.013 144.057 124.957 144.383 124.846 144.672C124.742 144.962 124.588 145.211 124.385 145.42C124.182 145.623 123.939 145.78 123.656 145.891C123.373 145.995 123.056 146.047 122.705 146.047ZM122.705 145.171C122.933 145.171 123.133 145.115 123.305 145.005C123.478 144.894 123.61 144.731 123.702 144.516C123.801 144.294 123.85 144.02 123.85 143.694C123.85 143.202 123.745 142.836 123.536 142.596C123.327 142.35 123.05 142.227 122.705 142.227C122.478 142.227 122.278 142.282 122.106 142.393C121.933 142.498 121.798 142.661 121.7 142.882C121.607 143.098 121.561 143.368 121.561 143.694C121.561 144.18 121.666 144.549 121.875 144.802C122.084 145.048 122.361 145.171 122.705 145.171ZM127.702 146.029C127.548 146.029 127.413 145.989 127.296 145.909C127.185 145.829 127.093 145.706 127.019 145.54L125.552 142.135C125.496 141.999 125.475 141.873 125.487 141.756C125.505 141.639 125.561 141.547 125.653 141.479C125.751 141.406 125.884 141.369 126.05 141.369C126.191 141.369 126.305 141.403 126.391 141.47C126.477 141.532 126.554 141.652 126.622 141.83L127.868 144.94H127.591L128.874 141.821C128.941 141.649 129.018 141.532 129.104 141.47C129.197 141.403 129.32 141.369 129.474 141.369C129.609 141.369 129.717 141.406 129.797 141.479C129.877 141.547 129.926 141.639 129.944 141.756C129.963 141.867 129.941 141.99 129.88 142.125L128.385 145.54C128.317 145.706 128.225 145.829 128.108 145.909C127.997 145.989 127.862 146.029 127.702 146.029ZM131.001 146.943C130.921 147.041 130.835 147.096 130.742 147.109C130.656 147.127 130.579 147.112 130.512 147.063C130.444 147.013 130.407 146.943 130.401 146.85C130.395 146.764 130.435 146.669 130.521 146.564C130.644 146.41 130.727 146.257 130.77 146.103C130.813 145.949 130.835 145.811 130.835 145.688L130.881 146.001C130.665 146.001 130.49 145.94 130.355 145.817C130.226 145.688 130.161 145.518 130.161 145.309C130.161 145.112 130.222 144.952 130.346 144.829C130.469 144.7 130.635 144.636 130.844 144.636C131.059 144.636 131.228 144.709 131.351 144.857C131.474 144.999 131.536 145.205 131.536 145.475C131.536 145.623 131.521 145.777 131.49 145.937C131.465 146.091 131.413 146.251 131.333 146.417C131.259 146.589 131.148 146.764 131.001 146.943ZM135.934 145.955C135.774 145.955 135.647 145.912 135.555 145.826C135.469 145.734 135.426 145.611 135.426 145.457C135.426 145.297 135.469 145.177 135.555 145.097C135.647 145.017 135.774 144.977 135.934 144.977H136.967V140.446H137.539L136.183 141.267C136.066 141.335 135.955 141.363 135.85 141.35C135.752 141.332 135.666 141.289 135.592 141.221C135.524 141.147 135.478 141.061 135.454 140.963C135.429 140.864 135.435 140.766 135.472 140.667C135.515 140.563 135.595 140.477 135.712 140.409L136.986 139.643C137.109 139.569 137.232 139.508 137.355 139.458C137.478 139.403 137.592 139.375 137.696 139.375C137.825 139.375 137.933 139.412 138.019 139.486C138.105 139.554 138.148 139.668 138.148 139.828V144.977H139.09C139.25 144.977 139.373 145.017 139.459 145.097C139.551 145.177 139.597 145.297 139.597 145.457C139.597 145.617 139.551 145.74 139.459 145.826C139.373 145.912 139.25 145.955 139.09 145.955H135.934ZM141.467 145.955C141.307 145.955 141.181 145.912 141.089 145.826C141.002 145.734 140.959 145.611 140.959 145.457C140.959 145.297 141.002 145.177 141.089 145.097C141.181 145.017 141.307 144.977 141.467 144.977H142.5V140.446H143.073L141.716 141.267C141.599 141.335 141.488 141.363 141.384 141.35C141.285 141.332 141.199 141.289 141.125 141.221C141.058 141.147 141.012 141.061 140.987 140.963C140.962 140.864 140.969 140.766 141.005 140.667C141.049 140.563 141.129 140.477 141.245 140.409L142.519 139.643C142.642 139.569 142.765 139.508 142.888 139.458C143.011 139.403 143.125 139.375 143.23 139.375C143.359 139.375 143.466 139.412 143.552 139.486C143.639 139.554 143.682 139.668 143.682 139.828V144.977H144.623C144.783 144.977 144.906 145.017 144.992 145.097C145.084 145.177 145.131 145.297 145.131 145.457C145.131 145.617 145.084 145.74 144.992 145.826C144.906 145.912 144.783 145.955 144.623 145.955H141.467Z" fill="#A8A8A8"/>
<path d="M199.837 146.029C199.646 146.029 199.498 145.977 199.394 145.872C199.295 145.761 199.246 145.611 199.246 145.42V140.437H197.447C197.287 140.437 197.161 140.394 197.068 140.307C196.982 140.215 196.939 140.092 196.939 139.938C196.939 139.778 196.982 139.658 197.068 139.578C197.161 139.492 197.287 139.449 197.447 139.449H202.227C202.387 139.449 202.51 139.492 202.596 139.578C202.688 139.658 202.734 139.778 202.734 139.938C202.734 140.092 202.688 140.215 202.596 140.307C202.51 140.394 202.387 140.437 202.227 140.437H200.427V145.42C200.427 145.611 200.378 145.761 200.28 145.872C200.181 145.977 200.034 146.029 199.837 146.029ZM204.635 146.047C204.168 146.047 203.762 145.952 203.417 145.761C203.073 145.571 202.805 145.3 202.614 144.949C202.423 144.592 202.328 144.174 202.328 143.694C202.328 143.331 202.38 143.008 202.485 142.725C202.596 142.436 202.753 142.19 202.956 141.987C203.159 141.778 203.402 141.621 203.685 141.516C203.968 141.406 204.285 141.35 204.635 141.35C205.103 141.35 205.509 141.446 205.853 141.636C206.198 141.827 206.465 142.098 206.656 142.448C206.847 142.799 206.942 143.214 206.942 143.694C206.942 144.057 206.887 144.383 206.776 144.672C206.672 144.962 206.518 145.211 206.315 145.42C206.112 145.623 205.869 145.78 205.586 145.891C205.303 145.995 204.986 146.047 204.635 146.047ZM204.635 145.171C204.863 145.171 205.063 145.115 205.235 145.005C205.407 144.894 205.54 144.731 205.632 144.516C205.73 144.294 205.78 144.02 205.78 143.694C205.78 143.202 205.675 142.836 205.466 142.596C205.257 142.35 204.98 142.227 204.635 142.227C204.408 142.227 204.208 142.282 204.035 142.393C203.863 142.498 203.728 142.661 203.629 142.882C203.537 143.098 203.491 143.368 203.491 143.694C203.491 144.18 203.595 144.549 203.805 144.802C204.014 145.048 204.291 145.171 204.635 145.171ZM209.629 146.047C209.236 146.047 208.888 145.952 208.586 145.761C208.291 145.571 208.06 145.3 207.894 144.949C207.728 144.592 207.645 144.174 207.645 143.694C207.645 143.208 207.728 142.793 207.894 142.448C208.06 142.098 208.291 141.827 208.586 141.636C208.888 141.446 209.236 141.35 209.629 141.35C210.005 141.35 210.331 141.443 210.607 141.627C210.89 141.812 211.081 142.055 211.18 142.356H211.078V139.957C211.078 139.766 211.127 139.622 211.226 139.523C211.324 139.425 211.466 139.375 211.65 139.375C211.835 139.375 211.976 139.425 212.075 139.523C212.179 139.622 212.232 139.766 212.232 139.957V145.438C212.232 145.629 212.182 145.777 212.084 145.881C211.986 145.98 211.844 146.029 211.66 146.029C211.475 146.029 211.333 145.98 211.235 145.881C211.137 145.777 211.087 145.629 211.087 145.438V144.719L211.189 144.995C211.097 145.315 210.909 145.571 210.626 145.761C210.343 145.952 210.011 146.047 209.629 146.047ZM209.952 145.171C210.18 145.171 210.38 145.115 210.552 145.005C210.724 144.894 210.857 144.731 210.949 144.516C211.047 144.294 211.097 144.02 211.097 143.694C211.097 143.202 210.992 142.836 210.783 142.596C210.574 142.35 210.297 142.227 209.952 142.227C209.725 142.227 209.525 142.282 209.352 142.393C209.18 142.498 209.045 142.661 208.946 142.882C208.854 143.098 208.808 143.368 208.808 143.694C208.808 144.18 208.913 144.549 209.122 144.802C209.331 145.048 209.608 145.171 209.952 145.171ZM214.913 146.047C214.587 146.047 214.295 145.986 214.037 145.863C213.785 145.734 213.585 145.561 213.437 145.346C213.295 145.131 213.225 144.888 213.225 144.617C213.225 144.285 213.311 144.023 213.483 143.833C213.655 143.636 213.935 143.494 214.323 143.408C214.71 143.322 215.23 143.279 215.882 143.279H216.344V143.943H215.892C215.51 143.943 215.206 143.962 214.978 143.999C214.75 144.036 214.587 144.1 214.489 144.193C214.397 144.279 214.351 144.402 214.351 144.562C214.351 144.765 214.421 144.931 214.563 145.06C214.704 145.189 214.901 145.254 215.153 145.254C215.356 145.254 215.535 145.208 215.689 145.115C215.849 145.017 215.975 144.885 216.067 144.719C216.159 144.553 216.205 144.362 216.205 144.146V143.085C216.205 142.778 216.138 142.556 216.002 142.421C215.867 142.285 215.639 142.218 215.32 142.218C215.141 142.218 214.947 142.239 214.738 142.282C214.535 142.325 214.32 142.399 214.092 142.504C213.975 142.559 213.871 142.575 213.778 142.55C213.692 142.525 213.625 142.476 213.575 142.402C213.526 142.322 213.502 142.236 213.502 142.144C213.502 142.052 213.526 141.962 213.575 141.876C213.625 141.784 213.708 141.716 213.825 141.673C214.108 141.556 214.378 141.473 214.637 141.424C214.901 141.375 215.141 141.35 215.356 141.35C215.799 141.35 216.162 141.418 216.445 141.553C216.735 141.689 216.95 141.895 217.091 142.172C217.233 142.442 217.304 142.793 217.304 143.224V145.438C217.304 145.629 217.257 145.777 217.165 145.881C217.073 145.98 216.941 146.029 216.768 146.029C216.596 146.029 216.461 145.98 216.362 145.881C216.27 145.777 216.224 145.629 216.224 145.438V144.995H216.298C216.255 145.211 216.169 145.398 216.039 145.558C215.916 145.712 215.759 145.832 215.569 145.918C215.378 146.004 215.16 146.047 214.913 146.047ZM219.574 147.69C219.438 147.69 219.328 147.653 219.241 147.579C219.155 147.512 219.103 147.419 219.085 147.303C219.072 147.186 219.094 147.063 219.149 146.933L219.777 145.54V146.02L218.097 142.135C218.042 141.999 218.023 141.873 218.042 141.756C218.06 141.639 218.116 141.547 218.208 141.479C218.306 141.406 218.439 141.369 218.605 141.369C218.746 141.369 218.86 141.403 218.946 141.47C219.032 141.532 219.109 141.652 219.177 141.83L220.423 144.94H220.146L221.419 141.821C221.487 141.649 221.567 141.532 221.659 141.47C221.752 141.403 221.875 141.369 222.028 141.369C222.164 141.369 222.271 141.406 222.351 141.479C222.431 141.547 222.481 141.639 222.499 141.756C222.518 141.867 222.496 141.99 222.434 142.125L220.192 147.247C220.112 147.419 220.026 147.536 219.934 147.598C219.841 147.659 219.721 147.69 219.574 147.69Z" fill="#A8A8A8"/>
<rect x="36.2402" y="100.192" width="5.69558" height="21.155" rx="2.84779" fill="url(#paint1_linear_709_300)"/>
<rect x="50.8887" y="108.329" width="5.69558" height="16.2731" rx="2.84779" fill="url(#paint2_linear_709_300)"/>
<rect x="65.5332" y="90.4284" width="5.69558" height="34.1735" rx="2.84779" fill="url(#paint3_linear_709_300)"/>
<rect x="79.3652" y="84.7328" width="5.69558" height="39.869" rx="2.84779" fill="url(#paint4_linear_709_300)"/>
<rect x="93.1973" y="87.1737" width="5.69558" height="17.9004" rx="2.84779" fill="url(#paint5_linear_709_300)"/>
<rect x="107.029" y="73.3416" width="5.69558" height="31.7325" rx="2.84779" fill="url(#paint6_linear_709_300)"/>
<rect x="120.863" y="90.4284" width="5.69558" height="14.6458" rx="2.84779" fill="url(#paint7_linear_709_300)"/>
<rect x="133.879" y="90.4284" width="5.69558" height="17.9004" rx="2.84779" fill="url(#paint8_linear_709_300)"/>
<rect x="146.898" y="90.4284" width="5.69558" height="17.9004" rx="2.84779" fill="url(#paint9_linear_709_300)"/>
<rect x="160.73" y="84.7328" width="5.69558" height="23.596" rx="2.84779" fill="url(#paint10_linear_709_300)"/>
<rect x="173.75" y="77.41" width="5.69558" height="22.7823" rx="2.84779" fill="url(#paint11_linear_709_300)"/>
<rect x="186.768" y="70.9007" width="5.69558" height="17.9004" rx="2.84779" fill="url(#paint12_linear_709_300)"/>
<rect x="199.787" y="65.2052" width="5.69558" height="23.596" rx="2.84779" fill="url(#paint13_linear_709_300)"/>
<rect x="212.805" y="75.9715" width="5.69558" height="23.596" rx="2.84779" fill="url(#paint14_linear_709_300)"/>
<defs>
<linearGradient id="paint0_linear_709_300" x1="73.0488" y1="23.678" x2="73.0488" y2="39.678" gradientUnits="userSpaceOnUse">
<stop stop-color="#F37D06"/>
<stop offset="1" stop-color="#FF7E7E"/>
</linearGradient>
<linearGradient id="paint1_linear_709_300" x1="39.088" y1="100.192" x2="39.088" y2="121.347" gradientUnits="userSpaceOnUse">
<stop stop-color="#F37D06"/>
<stop offset="1" stop-color="#FF7E7E"/>
</linearGradient>
<linearGradient id="paint2_linear_709_300" x1="53.7365" y1="108.329" x2="53.7365" y2="124.602" gradientUnits="userSpaceOnUse">
<stop stop-color="#F37D06"/>
<stop offset="1" stop-color="#FF7E7E"/>
</linearGradient>
<linearGradient id="paint3_linear_709_300" x1="68.381" y1="90.4284" x2="68.381" y2="124.602" gradientUnits="userSpaceOnUse">
<stop stop-color="#F37D06"/>
<stop offset="1" stop-color="#FF7E7E"/>
</linearGradient>
<linearGradient id="paint4_linear_709_300" x1="82.213" y1="84.7328" x2="82.213" y2="124.602" gradientUnits="userSpaceOnUse">
<stop stop-color="#F37D06"/>
<stop offset="1" stop-color="#FF7E7E"/>
</linearGradient>
<linearGradient id="paint5_linear_709_300" x1="96.0451" y1="87.1737" x2="96.0451" y2="105.074" gradientUnits="userSpaceOnUse">
<stop stop-color="#F37D06"/>
<stop offset="1" stop-color="#FF7E7E"/>
</linearGradient>
<linearGradient id="paint6_linear_709_300" x1="109.877" y1="73.3416" x2="109.877" y2="105.074" gradientUnits="userSpaceOnUse">
<stop stop-color="#F37D06"/>
<stop offset="1" stop-color="#FF7E7E"/>
</linearGradient>
<linearGradient id="paint7_linear_709_300" x1="123.711" y1="90.4284" x2="123.711" y2="105.074" gradientUnits="userSpaceOnUse">
<stop stop-color="#F37D06"/>
<stop offset="1" stop-color="#FF7E7E"/>
</linearGradient>
<linearGradient id="paint8_linear_709_300" x1="136.727" y1="90.4284" x2="136.727" y2="108.329" gradientUnits="userSpaceOnUse">
<stop stop-color="#F37D06"/>
<stop offset="1" stop-color="#FF7E7E"/>
</linearGradient>
<linearGradient id="paint9_linear_709_300" x1="149.746" y1="90.4284" x2="149.746" y2="108.329" gradientUnits="userSpaceOnUse">
<stop stop-color="#F37D06"/>
<stop offset="1" stop-color="#FF7E7E"/>
</linearGradient>
<linearGradient id="paint10_linear_709_300" x1="163.578" y1="84.7328" x2="163.578" y2="108.329" gradientUnits="userSpaceOnUse">
<stop stop-color="#F37D06"/>
<stop offset="1" stop-color="#FF7E7E"/>
</linearGradient>
<linearGradient id="paint11_linear_709_300" x1="176.598" y1="77.41" x2="176.598" y2="100.192" gradientUnits="userSpaceOnUse">
<stop stop-color="#F37D06"/>
<stop offset="1" stop-color="#FF7E7E"/>
</linearGradient>
<linearGradient id="paint12_linear_709_300" x1="189.615" y1="70.9007" x2="189.615" y2="88.8011" gradientUnits="userSpaceOnUse">
<stop stop-color="#F37D06"/>
<stop offset="1" stop-color="#FF7E7E"/>
</linearGradient>
<linearGradient id="paint13_linear_709_300" x1="202.635" y1="65.2052" x2="202.635" y2="88.8011" gradientUnits="userSpaceOnUse">
<stop stop-color="#F37D06"/>
<stop offset="1" stop-color="#FF7E7E"/>
</linearGradient>
<linearGradient id="paint14_linear_709_300" x1="215.652" y1="75.9715" x2="215.652" y2="99.5675" gradientUnits="userSpaceOnUse">
<stop stop-color="#F37D06"/>
<stop offset="1" stop-color="#FF7E7E"/>
</linearGradient>
</defs>
</svg>
